<?xml version="1.0" standalone="no"?>
<!DOCTYPE svg PUBLIC "-//W3C//DTD SVG 1.1//EN" "http://www.w3.org/Graphics/SVG/1.1/DTD/svg11.dtd" >
<svg>
<metadata>
Created by FontForge 20090914 at Mon May 27 12:49:37 2019
 By www-data
Copyright (c) SIL International, 2004-2015.
</metadata>
<defs>
<font id="AndikaNewBasic-Regular" horiz-adv-x="1120" >
  <font-face 
    font-family="Andika New Basic"
    font-weight="400"
    font-stretch="normal"
    units-per-em="2048"
    panose-1="2 0 0 0 0 0 0 0 0 0"
    ascent="1638"
    descent="-410"
    x-height="1020"
    cap-height="1460"
    bbox="-1114 -520 2335 2620"
    underline-thickness="80"
    underline-position="-70"
    unicode-range="U+0020-U+FB02"
  />
<missing-glyph horiz-adv-x="1400" 
d="M150 50h1100v1700h-1100v-1700zM100 1800h1200v-1800h-1200v1800z" />
    <glyph glyph-name=".notdef" horiz-adv-x="1400" 
d="M150 50h1100v1700h-1100v-1700zM100 1800h1200v-1800h-1200v1800z" />
    <glyph glyph-name="space" unicode=" " horiz-adv-x="550" 
 />
    <glyph glyph-name="exclam" unicode="!" horiz-adv-x="764" 
d="M225 110c0 18.667 3.5 36.167 10.5 52.5s16.667 30.666 29 42.999s26.666 22 42.999 29s33.833 10.5 52.5 10.5s36.167 -3.5 52.5 -10.5s30.666 -16.667 42.999 -29s22 -26.666 29 -42.999s10.5 -33.833 10.5 -52.5s-3.5 -36.167 -10.5 -52.5
s-16.667 -30.666 -29 -42.999s-26.666 -22 -42.999 -29s-33.833 -10.5 -52.5 -10.5s-36.167 3.5 -52.5 10.5s-30.666 16.667 -42.999 29s-22 26.666 -29 42.999s-10.5 33.833 -10.5 52.5zM275 440c-2 72.667 -3.33301 148.834 -4 228.501s-2.16699 163.834 -4.5 252.501
s-5.83301 181.834 -10.5 279.501s-11.667 200.834 -21 309.501h255c-10 -108.667 -17.333 -211.834 -22 -309.501s-8.16699 -190.834 -10.5 -279.501s-3.83301 -172.834 -4.5 -252.501s-1.66699 -155.834 -3 -228.501h-175z" />
    <glyph glyph-name="quotedbl" unicode="&#x22;" horiz-adv-x="1025" 
d="M620 1045l-3.99707 109.5c-1.33301 37.667 -3.33301 78.167 -6 121.5s-6.33398 90.333 -11.001 141s-11 106.667 -19 168h205c-7.33301 -61.333 -13.333 -117.333 -18 -168s-8.33398 -97.667 -11.001 -141s-4.83398 -83.833 -6.50098 -121.5
s-3.16699 -74.167 -4.5 -109.5h-125zM280.003 1045l-3.99707 109.5c-1.33301 37.667 -3.33301 78.167 -6 121.5s-6.33398 90.333 -11.001 141s-11 106.667 -19 168h205c-7.33301 -61.333 -13.333 -117.333 -18 -168s-8.33398 -97.667 -11.001 -141
s-4.83398 -83.833 -6.50098 -121.5s-3.16699 -74.167 -4.5 -109.5h-125z" />
    <glyph glyph-name="numbersign" unicode="#" horiz-adv-x="1200" 
d="M427 625h275l67 235h-275zM84 1010h303l100 350h150l-100 -350h275l100 350h150l-100 -350h213v-150h-256l-67 -235h264v-150h-307l-107 -375h-150l107 375h-275l-107 -375h-150l107 375h-209v150h252l67 235h-260v150z" />
    <glyph glyph-name="dollar" unicode="$" horiz-adv-x="1200" 
d="M365 1030c0 -21.333 2.33301 -40.667 7 -58s13.667 -33.833 27 -49.5s32.333 -30.667 57 -45s57 -28.833 97 -43.5v388c-28.667 -5.33301 -54.5 -14.333 -77.5 -27s-42.667 -27.5 -59 -44.5s-29 -35.833 -38 -56.5s-13.5 -42 -13.5 -64zM871 395.999
c0 19.333 -2.33301 37.833 -7 55.5s-13.834 35 -27.501 52s-32.667 33.667 -57 50s-56.5 32.833 -96.5 49.5v-429c26.667 7.33301 51.334 17.5 74.001 30.5s42.5 28.833 59.5 47.5s30.333 40 40 64s14.5 50.667 14.5 80zM949 1127
c-52 28.667 -98.6709 50.6709 -140.004 66.0039s-83.333 25.666 -126 30.999v-433c58.667 -18 110.5 -38.5 155.5 -61.5s82.833 -49.833 113.5 -80.5s54 -65.334 70 -104.001s24 -82.334 24 -131.001c0 -54 -9.33301 -103.667 -28 -149s-44.167 -85.5 -76.5 -120.5
s-70.666 -64.167 -114.999 -87.5s-92.166 -39.666 -143.499 -48.999v-228h-130v220c-41.333 1.33301 -81.333 5.33301 -120 12s-75 15.5 -109 26.5s-65.5 23.667 -94.5 38s-54.5 30.166 -76.5 47.499l42 189c56 -49.333 114 -86 174 -110s121.333 -37.667 184 -41v487
c-5.33301 1.33301 -9.66602 2.66602 -12.999 3.99902c-72 21.333 -130.667 45 -176 71s-80.833 54.167 -106.5 84.5s-43.334 62.833 -53.001 97.5s-14.5 71.667 -14.5 111c0 36 6.83301 74 20.5 114s35.334 77.5 65.001 112.5s67.334 65.5 113.001 91.5
s100.5 42.667 164.5 50v215h130v-213c55.333 -3.33301 106.833 -11.5 154.5 -24.5s97.167 -31.833 148.5 -56.5z" />
    <glyph glyph-name="percent" unicode="%" horiz-adv-x="1526" 
d="M690 1089c0 -74 -7.50195 -136.671 -22.502 -188.004s-35.667 -93 -62 -125s-57.833 -55.167 -94.5 -69.5s-77 -21.5 -121 -21.5s-83.833 7.16699 -119.5 21.5s-66.167 37.333 -91.5 69s-44.833 72.334 -58.5 122.001s-20.5 109.834 -20.5 180.501
s7.33301 131.334 22 182.001s35.334 92.334 62.001 125.001s58.334 56.667 95.001 72s76.667 23 120 23c44 0 83.833 -7.5 119.5 -22.5s66.167 -38.5 91.5 -70.5s45 -72.667 59 -122s21 -108 21 -176zM524.998 1076c0 50 -2.49707 91.833 -7.49707 125.5
s-12.833 60.834 -23.5 81.501s-24.334 35.334 -41.001 44.001s-36.334 13 -59.001 13c-22 0 -41 -4.33301 -57 -13s-29.333 -22.834 -40 -42.501s-18.667 -45.334 -24 -77.001s-8 -70.5 -8 -116.5c0 -50 2.5 -92 7.5 -126s12.833 -61.333 23.5 -82s24.167 -35.5 40.5 -44.5
s35.5 -13.5 57.5 -13.5c21.333 0 40.166 4.5 56.499 13.5s30 23.333 41 43s19.333 45.5 25 77.5s8.5 71 8.5 117zM1239 1480l-780 -1505h-168l782 1505h166zM1426 378.996c0 -74 -7.50195 -136.671 -22.502 -188.004s-35.667 -93 -62 -125s-57.833 -55.167 -94.5 -69.5
s-77 -21.5 -121 -21.5s-83.833 7.16699 -119.5 21.5s-66.167 37.333 -91.5 69s-44.833 72.334 -58.5 122.001s-20.5 109.834 -20.5 180.501s7.33301 131.334 22 182.001s35.334 92.334 62.001 125.001s58.334 56.667 95.001 72s76.667 23 120 23
c44 0 83.833 -7.5 119.5 -22.5s66.167 -38.5 91.5 -70.5s45 -72.667 59 -122s21 -108 21 -176zM1261 365.992c0 50 -2.49707 91.833 -7.49707 125.5s-12.833 60.834 -23.5 81.501s-24.334 35.334 -41.001 44.001s-36.334 13 -59.001 13c-22 0 -41 -4.33301 -57 -13
s-29.333 -22.834 -40 -42.501s-18.667 -45.334 -24 -77.001s-8 -70.5 -8 -116.5c0 -50 2.5 -92 7.5 -126s12.833 -61.333 23.5 -82s24.167 -35.5 40.5 -44.5s35.5 -13.5 57.5 -13.5c21.333 0 40.166 4.5 56.499 13.5s30 23.333 41 43s19.333 45.5 25 77.5s8.5 71 8.5 117z
" />
    <glyph glyph-name="ampersand" unicode="&#x26;" horiz-adv-x="1222" 
d="M315 1200c0 -36 12.999 -75.5 38.999 -118.5s59 -90.5 99 -142.5c56 56 99.5 105.5 130.5 148.5s46.5 82.167 46.5 117.5c0 22 -4.33301 42 -13 60s-20.167 33.333 -34.5 46s-30.833 22.334 -49.5 29.001s-38 10 -58 10c-19.333 0 -38.5 -3.5 -57.5 -10.5
s-36.167 -17 -51.5 -30s-27.666 -28.833 -36.999 -47.5s-14 -39.334 -14 -62.001zM454.999 150c20.667 0 42.668 3.33496 66.001 10.002s47.333 16 72 28s49.5 26.167 74.5 42.5s49.5 34.166 73.5 53.499l-97.5 133.5l-108.5 152.5l-51.5 69l-51.5 67
c-36.667 -33.333 -67.834 -64.333 -93.501 -93s-46.5 -56 -62.5 -82s-27.667 -51.333 -35 -76s-11 -49.667 -11 -75c0 -28 5 -55.833 15 -83.5s24.5 -52.334 43.5 -74.001s42.5 -39.167 70.5 -52.5s60 -20 96 -20zM1080 435.002c-12 -24 -28.1719 -50.666 -48.5049 -79.999
s-44.5 -59.333 -72.5 -90c48 -56 89.667 -99.833 125 -131.5s65.666 -52.834 90.999 -63.501l-34 -28.5c-13.333 -11 -27.166 -21.333 -41.499 -31s-28.166 -18 -41.499 -25s-24.333 -10.5 -33 -10.5c-14 0 -36.333 15.333 -67 46s-69 74.667 -115 132
c-29.333 -24.667 -60.333 -47.834 -93 -69.501s-66.167 -40.5 -100.5 -56.5s-69.166 -28.667 -104.499 -38s-70.333 -14 -105 -14c-56 0 -107.5 10.333 -154.5 31s-87.5 49 -121.5 85s-60.667 78.333 -80 127s-29 101 -29 157c0 37.333 5.5 73.333 16.5 108s28 70 51 106
s52.333 73.333 88 112s77.834 81 126.501 127l-71.5 96c-22.333 31.333 -41.666 62 -57.999 92s-29.166 59.5 -38.499 88.5s-14 57.5 -14 85.5c0 55.333 10 101.833 30 139.5s46 68 78 91s67.833 39.5 107.5 49.5s79.5 15 119.5 15c38 0 75 -6.33301 111 -19
s68 -31.167 96 -55.5s50.5 -54.166 67.5 -89.499s25.5 -75.666 25.5 -120.999c0 -28 -5.83301 -57.5 -17.5 -88.5s-28.167 -62.833 -49.5 -95.5s-46.666 -66 -75.999 -100s-61.333 -68 -96 -102l49.5 -65.5l49.5 -68.5l109.5 -156l97.5 -131
c27.333 30 51.166 60.167 71.499 90.5s35.833 59.166 46.5 86.499z" />
    <glyph glyph-name="quotesingle" unicode="'" horiz-adv-x="605" 
d="M240 1045l-3.99707 109.5c-1.33301 37.667 -3.33301 78.167 -6 121.5s-6.33398 90.333 -11.001 141s-11 106.667 -19 168h205c-7.33301 -61.333 -13.333 -117.333 -18 -168s-8.33398 -97.667 -11.001 -141s-4.83398 -83.833 -6.50098 -121.5
s-3.16699 -74.167 -4.5 -109.5h-125z" />
    <glyph glyph-name="parenleft" unicode="(" horiz-adv-x="795" 
d="M630 1485c-58.667 -51.333 -108.667 -108.168 -150 -170.501s-75 -129.833 -101 -202.5s-44.833 -149.667 -56.5 -231s-17.5 -166.666 -17.5 -255.999c0 -86.667 5.83301 -169.834 17.5 -249.501s30.5 -156.167 56.5 -229.5s59.667 -144.166 101 -212.499
s91.333 -134.5 150 -198.5l-95 -145c-137.333 142.667 -241.666 300 -312.999 472s-107 359.667 -107 563c0 109.333 10.5 214.5 31.5 315.5s50.667 195.167 89 282.5s84.666 166.333 138.999 237s114.5 130.667 180.5 180z" />
    <glyph glyph-name="parenright" unicode=")" horiz-adv-x="795" 
d="M240 1640c66 -49.333 126.167 -109.332 180.5 -179.999s100.666 -149.667 138.999 -237s68 -181.5 89 -282.5s31.5 -206.167 31.5 -315.5c0 -203.333 -35.667 -391 -107 -563s-175.666 -329.333 -312.999 -472l-95 145c56 64 104.5 130.167 145.5 198.5
s74.833 139.166 101.5 212.499s46.334 149.833 59.001 229.5s19 162.834 19 249.501c0 84 -6.33301 166.5 -19 247.5s-32.334 158.333 -59.001 232s-60.5 142.667 -101.5 207s-89.5 122.166 -145.5 173.499z" />
    <glyph glyph-name="asterisk" unicode="*" horiz-adv-x="1028" 
d="M560 1600c-3.33301 -33.333 -6.16699 -63.6641 -8.5 -90.9971s-4.33301 -52.833 -6 -76.5s-3 -46.167 -4 -67.5s-1.5 -43 -1.5 -65l55 36.5l56 40l62 46.5l72 57l70 -125l-83 -39l-69 -34l-61 -31.5l-57 -30.5c19.333 -10 39 -19.667 59 -29l63 -28l72 -29.5l86 -33.5
l-75 -125l-74.5 52l-63.5 42.5l-57 36.5l-55 34c0.666992 -22 1.83398 -43.833 3.50098 -65.5s3.5 -44.334 5.5 -68.001s4.66699 -49 8 -76s7.66602 -57.167 12.999 -90.5h-140l7.5 91c2.33301 27.333 4.33301 53 6 77s3 46.667 4 68s1.83301 42.666 2.5 63.999
c-18 -11.333 -36 -23.333 -54 -36l-56.5 -40.5l-62.5 -47l-72 -56.5l-70 125l82 38l70 34l60.5 31.5l57.5 31.5c-19.333 10 -39 19.667 -59 29s-41.167 18.666 -63.5 27.999l-72 29l-85.5 34l75 125l74.5 -52.5l63.5 -43l57 -36.5l55 -33c-0.666992 22 -2 43.667 -4 65
s-4.5 43.833 -7.5 67.5s-6.5 49.167 -10.5 76.5l-13 91h145z" />
    <glyph glyph-name="plus" unicode="+" horiz-adv-x="1200" 
d="M155 810h370v370h150v-370h370v-150h-370v-375h-150v375h-370v150z" />
    <glyph glyph-name="comma" unicode="," horiz-adv-x="650" 
d="M185 150c3.33301 16 9.49805 30.166 18.498 42.499s19.833 22.666 32.5 30.999s26.334 14.833 41.001 19.5s29 7 43 7c20 0 38.833 -3.83301 56.5 -11.5s33 -18.667 46 -33s23.333 -31.666 31 -51.999s11.5 -43.166 11.5 -68.499c0 -61.333 -14.5 -122 -43.5 -182
s-72.833 -117.667 -131.5 -173l-100 40c14.667 14.667 29.834 32.667 45.501 54s30.167 44.5 43.5 69.5s24.333 51 33 78s13 53.167 13 78.5h-140v100z" />
    <glyph glyph-name="hyphen" unicode="-" horiz-adv-x="860" 
d="M80 705h700v-150h-700v150z" />
    <glyph glyph-name="period" unicode="." horiz-adv-x="640" 
d="M185 110c0 18.667 3.5 36.167 10.5 52.5s16.667 30.666 29 42.999s26.666 22 42.999 29s33.833 10.5 52.5 10.5s36.167 -3.5 52.5 -10.5s30.666 -16.667 42.999 -29s22 -26.666 29 -42.999s10.5 -33.833 10.5 -52.5s-3.5 -36.167 -10.5 -52.5
s-16.667 -30.666 -29 -42.999s-26.666 -22 -42.999 -29s-33.833 -10.5 -52.5 -10.5s-36.167 3.5 -52.5 10.5s-30.666 16.667 -42.999 29s-22 26.666 -29 42.999s-10.5 33.833 -10.5 52.5z" />
    <glyph glyph-name="slash" unicode="/" horiz-adv-x="1000" 
d="M990 1600l-830 -1845h-150l830 1845h150z" />
    <glyph glyph-name="zero" unicode="0" horiz-adv-x="1200" 
d="M1110 740c0 -147.333 -13.501 -269.998 -40.501 -367.998s-63.833 -176.5 -110.5 -235.5s-101.667 -100.667 -165 -125s-131.333 -36.5 -204 -36.5c-72 0 -138.667 12.333 -200 37s-114.166 65.834 -158.499 123.501s-79 134.167 -104 229.5s-37.5 213.666 -37.5 354.999
c0 140.667 13.5 259.667 40.5 357s64 176.166 111 236.499s102.167 104 165.5 131s131 40.5 203 40.5c72.667 0 139.5 -13.167 200.5 -39.5s113.667 -69 158 -128s79 -135.833 104 -230.5s37.5 -210.334 37.5 -347.001zM909.999 715.002
c0 110 -6.66602 203.165 -19.999 279.498s-33 138.333 -59 186s-58.333 82 -97 103s-83.334 31.5 -134.001 31.5c-48 0 -91.167 -10.5 -129.5 -31.5s-70.833 -54.5 -97.5 -100.5s-47.167 -105 -61.5 -177s-21.5 -159 -21.5 -261c0 -110 6.83301 -203.167 20.5 -279.5
s33.667 -138.166 60 -185.499s58.833 -81.666 97.5 -102.999s82.667 -32 132 -32c48 0 91.167 10.667 129.5 32s70.833 54.833 97.5 100.5s47.167 104.5 61.5 176.5s21.5 159 21.5 261z" />
    <glyph glyph-name="one" unicode="1" horiz-adv-x="1200" 
d="M535 1260l-300 -172l-25 180l345 212h170v-1310h315v-170h-820v170h315v1090z" />
    <glyph glyph-name="two" unicode="2" horiz-adv-x="1200" 
d="M1080 0h-959.997v170c45.333 32.667 93.833 70.5 145.5 113.5s103 89.167 154 138.5s100 100.833 147 154.5s88.5 107.5 124.5 161.5s64.833 107.167 86.5 159.5s32.5 101.5 32.5 147.5c0 46.667 -8.16699 86.5 -24.5 119.5s-37.833 60 -64.5 81s-57 36.167 -91 45.5
s-69 14 -105 14c-30.667 0 -62.334 -4.5 -95.001 -13.5s-64.5 -21.833 -95.5 -38.5s-60.667 -36.334 -89 -59.001s-53.5 -47.334 -75.5 -74.001l-45 170c20 28 46 53.833 78 77.5s67.5 44.334 106.5 62.001s80 31.334 123 41.001s85.5 14.5 127.5 14.5
c60 0 117.167 -9.83301 171.5 -29.5s102.166 -47.667 143.499 -84s74.166 -80.333 98.499 -132s36.5 -109.834 36.5 -174.501c0 -56 -10.167 -112.833 -30.5 -170.5s-47.5 -114.667 -81.5 -171s-72.667 -111.166 -116 -164.499s-88 -104 -134 -152
s-91.333 -92.5 -136 -133.5l-122 -108.5h255c49.333 0 96 0.166992 140 0.5s84.5 1 121.5 2s70.167 2.5 99.5 4.5s54 4.66699 74 8v-180z" />
    <glyph glyph-name="three" unicode="3" horiz-adv-x="1200" 
d="M480 870c50 0 97.335 7.00195 142.002 21.002s83.834 32.333 117.501 55s60.5 48.667 80.5 78s30 59.666 30 90.999c0 34 -7.83301 63.167 -23.5 87.5s-36 44.5 -61 60.5s-53 27.833 -84 35.5s-61.5 11.5 -91.5 11.5c-38.667 0 -74.667 -2.66699 -108 -8s-65 -14 -95 -26
s-59.167 -28 -87.5 -48s-56.5 -44.333 -84.5 -73l-35 170c20 22.667 44.333 43.834 73 63.501s60.167 36.667 94.5 51s71.166 25.5 110.499 33.5s80 12 122 12c62 0 120.833 -8 176.5 -24s104.5 -38.833 146.5 -68.5s75.333 -65.834 100 -108.501s37 -90.667 37 -144
c0 -46 -10 -88.167 -30 -126.5s-45.5 -72.166 -76.5 -101.499s-65.5 -53.5 -103.5 -72.5s-74.667 -32.167 -110 -39.5c23.333 -4 48.833 -10.333 76.5 -19s55.167 -20.167 82.5 -34.5s53.666 -31.833 78.999 -52.5s47.833 -45 67.5 -73s35.334 -59.833 47.001 -95.5
s17.5 -75.834 17.5 -120.501c0 -58.667 -14.833 -114.167 -44.5 -166.5s-69.5 -98 -119.5 -137s-108 -69.833 -174 -92.5s-135 -34 -207 -34c-89.333 0 -171 15.167 -245 45.5s-137.333 70.166 -190 119.499l25 215c27.333 -30.667 56.666 -58.667 87.999 -84
s64.833 -47 100.5 -65s73.5 -31.833 113.5 -41.5s82.667 -14.5 128 -14.5c38 0 76.667 5.66699 116 17s74.833 28.5 106.5 51.5s57.5 51.667 77.5 86s30 74.5 30 120.5c0 40.667 -10.5 77.834 -31.5 111.501s-50.167 62.667 -87.5 87s-81.333 43.166 -132 56.499
s-105.334 20 -164.001 20h-70v170h70z" />
    <glyph glyph-name="four" unicode="4" horiz-adv-x="1200" 
d="M263 550h482v680zM935 395v-395h-190v395h-655v155l655 930h190v-930h190v-155h-190z" />
    <glyph glyph-name="five" unicode="5" horiz-adv-x="1200" 
d="M195 1460l805 0.00292969v-190c-38 8 -76.167 13.333 -114.5 16s-78.5 4 -120.5 4h-385v-370c15.333 2 37.5 4.16699 66.5 6.5s61.833 3.5 98.5 3.5c72 0 139.167 -11.167 201.5 -33.5s116.833 -53.666 163.5 -93.999s83.334 -88.333 110.001 -144
s40 -116.834 40 -183.501c0 -78 -13.5 -148 -40.5 -210s-64.667 -114.5 -113 -157.5s-105.666 -75.833 -171.999 -98.5s-138.5 -34 -216.5 -34c-38.667 0 -74.834 1.83301 -108.501 5.5s-66 9.66699 -97 18s-61.333 19.166 -91 32.499s-60.167 29.666 -91.5 48.999l30 210
c33.333 -27.333 64.833 -49.666 94.5 -66.999s59 -31 88 -41s58.667 -17 89 -21s63.166 -6 98.499 -6c50 0 95.833 7 137.5 21s77.5 34.333 107.5 61s53.333 59.5 70 98.5s25 83.833 25 134.5s-11.333 93.667 -34 129s-51.5 64.166 -86.5 86.499s-73.667 38.666 -116 48.999
s-83.5 15.5 -123.5 15.5c-26.667 0 -52.167 -1.16699 -76.5 -3.5s-49 -6 -74 -11s-51 -11.667 -78 -20s-55.833 -18.5 -86.5 -30.5v775z" />
    <glyph glyph-name="six" unicode="6" horiz-adv-x="1200" 
d="M645 720c-70 0 -133.502 -12.5 -190.502 -37.5s-106.167 -58.833 -147.5 -101.5c4 -57.333 13.5 -112 28.5 -164s35.833 -97.667 62.5 -137s59.334 -70.833 98.001 -94.5s83.334 -35.5 134.001 -35.5c44 0 83.833 7.33301 119.5 22s66.167 34.834 91.5 60.501
s44.833 55.834 58.5 90.501s20.5 72 20.5 112c0 44 -6 83.667 -18 119s-29.5 65.166 -52.5 89.499s-51.667 43.166 -86 56.499s-73.833 20 -118.5 20zM988.998 1200c-43.333 42.667 -87.832 71.6641 -133.499 86.9971s-92.5 23 -140.5 23
c-55.333 0 -106.833 -10.333 -154.5 -31s-89.5 -54 -125.5 -100s-65.167 -105.667 -87.5 -179s-35.833 -162.333 -40.5 -267c49.333 48.667 103.333 87.834 162 117.501s124 44.5 196 44.5c69.333 0 131.833 -10.5 187.5 -31.5s103 -50.167 142 -87.5
s68.833 -82.166 89.5 -134.499s31 -109.5 31 -171.5c0 -76 -12.5 -144.5 -37.5 -205.5s-60 -113 -105 -156s-99.167 -76 -162.5 -99s-133.333 -34.5 -210 -34.5c-77.333 0 -146.333 16.167 -207 48.5s-112 78.833 -154 139.5s-74 134.667 -96 222s-33 185.666 -33 294.999
c0 61.333 4.16699 123.833 12.5 187.5s22.166 125.334 41.499 185.001s44.5 115.834 75.5 168.501s69.333 98.5 115 137.5s99 69.833 160 92.5s131.167 34 210.5 34c29.333 0 57 -1.33301 83 -4s51.333 -7.5 76 -14.5s49.167 -16.333 73.5 -28s49.5 -26.167 75.5 -43.5z" />
    <glyph glyph-name="seven" unicode="7" horiz-adv-x="1200" 
d="M275 0c27.333 94 55.001 182.499 83.001 265.499s56.833 161.833 86.5 236.5s60.5 146 92.5 214s65.5 134.333 100.5 199s71.833 128.167 110.5 190.5l122 189.5h-390c-94 0 -171.333 -1.33301 -232 -4s-110 -8 -148 -16v185h990v-160
c-148 -202.667 -273.833 -412.667 -377.5 -630s-187.834 -440.666 -252.501 -669.999h-185z" />
    <glyph glyph-name="eight" unicode="8" horiz-adv-x="1200" 
d="M910 425c0 42 -7.83301 80.333 -23.5 115s-37.334 64.667 -65.001 90s-60.334 45 -98.001 59s-78.834 21 -123.501 21c-45.333 0 -86.833 -7 -124.5 -21s-70.334 -33.667 -98.001 -59s-49.167 -55.333 -64.5 -90s-23 -73 -23 -115c0 -44 7.66699 -83.333 23 -118
s36.833 -64 64.5 -88s60.334 -42.333 98.001 -55s79.167 -19 124.5 -19c44.667 0 85.834 6.33301 123.501 19s70.334 31 98.001 55s49.334 53.333 65.001 88s23.5 74 23.5 118zM860 1105c0 36.667 -6.83301 68.834 -20.5 96.501s-32.334 50.667 -56.001 69
s-51.167 32 -82.5 41s-65 13.5 -101 13.5s-69.667 -4.5 -101 -13.5s-58.833 -22.667 -82.5 -41s-42.334 -41.333 -56.001 -69s-20.5 -59.834 -20.5 -96.501c0 -39.333 6.83301 -73.833 20.5 -103.5s32.334 -54.667 56.001 -75s51.167 -35.666 82.5 -45.999
s65 -15.5 101 -15.5s69.667 5.16699 101 15.5s58.833 25.666 82.5 45.999s42.334 45.333 56.001 75s20.5 64.167 20.5 103.5zM600 -25c-64 0 -126.498 9.66309 -187.498 28.9961s-115.5 47.5 -163.5 84.5s-86.5 82 -115.5 135s-43.5 113.5 -43.5 181.5
c0 51.333 7.5 97.333 22.5 138s34.667 76.667 59 108s52.166 58.833 83.499 82.5s63 44.167 95 61.5c-19.333 10.667 -40.666 24.334 -63.999 41.001s-45 37.334 -65 62.001s-36.833 54 -50.5 88s-20.5 73.667 -20.5 119c0 61.333 13.167 115.666 39.5 162.999
s61.166 87 104.499 119s92.5 56.333 147.5 73s111.167 25 168.5 25s112.5 -8.33301 165.5 -25s99.833 -41 140.5 -73s73.167 -71.667 97.5 -119s36.5 -101.666 36.5 -162.999c0 -45.333 -6.5 -84.666 -19.5 -117.999s-29.333 -62.166 -49 -86.499s-40.834 -45 -63.501 -62
s-43.667 -31.5 -63 -43.5c27.333 -14 56 -32.5 86 -55.5s57.5 -50.667 82.5 -83s45.667 -69.5 62 -111.5s24.5 -88.667 24.5 -140c0 -68 -14.5 -128.5 -43.5 -181.5s-67.333 -98 -115 -135s-102.167 -65.167 -163.5 -84.5s-124 -29 -188 -29z" />
    <glyph glyph-name="nine" unicode="9" horiz-adv-x="1200" 
d="M583 760c33.333 0 65.6641 3.83008 96.9971 11.4971s61 18.334 89 32.001s54.333 30 79 49s46.667 39.833 66 62.5c-5.33301 52.667 -15.166 103 -29.499 151s-34.166 90 -59.499 126s-56.833 64.667 -94.5 86s-82.5 32 -134.5 32c-44 0 -83.833 -6.83301 -119.5 -20.5
s-66.167 -32.5 -91.5 -56.5s-44.833 -52.833 -58.5 -86.5s-20.5 -70.5 -20.5 -110.5c0 -44 7 -83.167 21 -117.5s33.333 -63.166 58 -86.499s53.834 -41.166 87.501 -53.499s70.5 -18.5 110.5 -18.5zM236.998 259.997c21.333 -21.333 43.166 -39.167 65.499 -53.5
s45 -25.666 68 -33.999s46.167 -14.166 69.5 -17.499s47 -5 71 -5c56.667 0 109 10.667 157 32s89.833 55.666 125.5 102.999s64.334 109 86.001 185s34.167 168.667 37.5 278c-48 -48 -102.667 -87 -164 -117s-126 -45 -194 -45c-69.333 0 -131.666 11 -186.999 33
s-102.333 51.833 -141 89.5s-68.167 81.667 -88.5 132s-30.5 104.166 -30.5 161.499c0 76 13.667 143.833 41 203.5s64.166 110.334 110.499 152.001s100 73.334 161 95.001s124.833 32.5 191.5 32.5c77.333 0 146.833 -17.167 208.5 -51.5s114 -82.5 157 -144.5
s75.833 -136.167 98.5 -222.5s34 -181.833 34 -286.5c0 -61.333 -4.16699 -123.833 -12.5 -187.5s-22 -125.334 -41 -185.001s-44 -115.834 -75 -168.501s-69.167 -98.5 -114.5 -137.5s-98.5 -69.833 -159.5 -92.5s-131.167 -34 -210.5 -34c-29.333 0 -57 1.33301 -83 4
s-51.333 7.5 -76 14.5s-49.167 16.333 -73.5 28s-49.5 26.167 -75.5 43.5z" />
    <glyph glyph-name="colon" unicode=":" horiz-adv-x="640" 
d="M185 110c0 18.667 3.5 36.167 10.5 52.5s16.667 30.666 29 42.999s26.666 22 42.999 29s33.833 10.5 52.5 10.5s36.167 -3.5 52.5 -10.5s30.666 -16.667 42.999 -29s22 -26.666 29 -42.999s10.5 -33.833 10.5 -52.5s-3.5 -36.167 -10.5 -52.5
s-16.667 -30.666 -29 -42.999s-26.666 -22 -42.999 -29s-33.833 -10.5 -52.5 -10.5s-36.167 3.5 -52.5 10.5s-30.666 16.667 -42.999 29s-22 26.666 -29 42.999s-10.5 33.833 -10.5 52.5zM185 790c0 18.667 3.5 36.167 10.5 52.5s16.667 30.666 29 42.999
s26.666 22 42.999 29s33.833 10.5 52.5 10.5s36.167 -3.5 52.5 -10.5s30.666 -16.667 42.999 -29s22 -26.666 29 -42.999s10.5 -33.833 10.5 -52.5s-3.5 -36.167 -10.5 -52.5s-16.667 -30.666 -29 -42.999s-26.666 -22 -42.999 -29s-33.833 -10.5 -52.5 -10.5
s-36.167 3.5 -52.5 10.5s-30.666 16.667 -42.999 29s-22 26.666 -29 42.999s-10.5 33.833 -10.5 52.5z" />
    <glyph glyph-name="semicolon" unicode=";" horiz-adv-x="650" 
d="M185 150c3.33301 16 9.49805 30.166 18.498 42.499s19.833 22.666 32.5 30.999s26.334 14.833 41.001 19.5s29 7 43 7c20 0 38.833 -3.83301 56.5 -11.5s33 -18.667 46 -33s23.333 -31.666 31 -51.999s11.5 -43.166 11.5 -68.499c0 -61.333 -14.5 -122 -43.5 -182
s-72.833 -117.667 -131.5 -173l-100 40c14.667 14.667 29.834 32.667 45.501 54s30.167 44.5 43.5 69.5s24.333 51 33 78s13 53.167 13 78.5h-140v100zM184.998 789.999c0 18.667 3.5 36.167 10.5 52.5s16.667 30.666 29 42.999s26.666 22 42.999 29s33.833 10.5 52.5 10.5
s36.167 -3.5 52.5 -10.5s30.666 -16.667 42.999 -29s22 -26.666 29 -42.999s10.5 -33.833 10.5 -52.5s-3.5 -36.167 -10.5 -52.5s-16.667 -30.666 -29 -42.999s-26.666 -22 -42.999 -29s-33.833 -10.5 -52.5 -10.5s-36.167 3.5 -52.5 10.5s-30.666 16.667 -42.999 29
s-22 26.666 -29 42.999s-10.5 33.833 -10.5 52.5z" />
    <glyph glyph-name="less" unicode="&#x3c;" horiz-adv-x="1200" 
d="M1080 245l-980 400v170l980 400v-180l-790 -305l790 -305v-180z" />
    <glyph glyph-name="equal" unicode="=" horiz-adv-x="1200" 
d="M120 980h960v-150h-960v150zM120 630h960v-150h-960v150z" />
    <glyph glyph-name="greater" unicode="&#x3e;" horiz-adv-x="1200" 
d="M120 1215l980 -400v-170l-980 -400v180l790 305l-790 305v180z" />
    <glyph glyph-name="question" unicode="?" horiz-adv-x="1050" 
d="M315 110c0 18.667 3.5 36.167 10.5 52.5s16.667 30.666 29 42.999s26.666 22 42.999 29s33.833 10.5 52.5 10.5s36.167 -3.5 52.5 -10.5s30.666 -16.667 42.999 -29s22 -26.666 29 -42.999s10.5 -33.833 10.5 -52.5s-3.5 -36.167 -10.5 -52.5
s-16.667 -30.666 -29 -42.999s-26.666 -22 -42.999 -29s-33.833 -10.5 -52.5 -10.5s-36.167 3.5 -52.5 10.5s-30.666 16.667 -42.999 29s-22 26.666 -29 42.999s-10.5 33.833 -10.5 52.5zM355 440c0 72.667 2.66797 136.331 8.00098 190.998s13.333 103.167 24 145.5
s24.167 79.833 40.5 112.5s35.5 63 57.5 91l59 76.5c17.333 23 32 44.333 44 64s21.167 38.334 27.5 56.001s9.5 35.5 9.5 53.5c0 14.667 -3.16699 30 -9.5 46s-17 30.5 -32 43.5s-34.833 23.833 -59.5 32.5s-55.334 13 -92.001 13c-40 0 -81.667 -9 -125 -27
s-84 -47 -122 -87l-45 179c16.667 16 36.834 30.667 60.501 44s49.5 24.833 77.5 34.5s57.5 17.334 88.5 23.001s62.167 8.5 93.5 8.5c59.333 0 112 -7.16699 158 -21.5s84.667 -34.5 116 -60.5s55.166 -57.5 71.499 -94.5s24.5 -78.167 24.5 -123.5
c0 -30.667 -4.5 -59.5 -13.5 -86.5s-21 -53 -36 -78s-32.5 -49.667 -52.5 -74l-63 -74.5c-26 -30 -47.167 -59.167 -63.5 -87.5s-29 -60.333 -38 -96s-15.167 -77.667 -18.5 -126s-5 -107.5 -5 -177.5h-185z" />
    <glyph glyph-name="at" unicode="@" horiz-adv-x="1702" 
d="M1025 870c-16.667 8 -40.666 15.8359 -71.999 23.5029s-65.666 11.5 -102.999 11.5c-17.333 0 -34.833 -2 -52.5 -6s-35 -10.833 -52 -20.5s-33.667 -22.5 -50 -38.5s-31.5 -36 -45.5 -60c-14.667 -24.667 -25.834 -55.334 -33.501 -92.001s-11.5 -74.334 -11.5 -113.001
c0 -44 4 -82.167 12 -114.5s18.833 -58.833 32.5 -79.5s29 -36 46 -46s34.5 -15 52.5 -15c14.667 0 31.167 6.66699 49.5 20s36.833 31 55.5 53s37.167 47.167 55.5 75.5s35.166 57.166 50.499 86.499s28.833 58.333 40.5 87s20.167 54.667 25.5 78v150zM1250 -117.997
c-25.333 -17.333 -53.6709 -33.1699 -85.0039 -47.5029s-64.333 -26.666 -99 -36.999s-70 -18.333 -106 -24s-71 -8.5 -105 -8.5c-65.333 0 -129.333 7.83301 -192 23.5s-122.167 38.834 -178.5 69.501s-108.333 68.834 -156 114.501s-88.834 98.5 -123.501 158.5
s-61.667 127 -81 201s-29 155 -29 243c0 92 9.83301 176.333 29.5 253s47 145.667 82 207s76.833 115.166 125.5 161.499s102 85 160 116s119.833 54.167 185.5 69.5s133.167 23 202.5 23c106.667 0 204.5 -16.667 293.5 -50s165.5 -80.833 229.5 -142.5
s113.667 -135.834 149 -222.501s53 -183.334 53 -290.001c0 -83.333 -10.333 -157.166 -31 -221.499s-47.667 -118.666 -81 -162.999s-71.166 -78 -113.499 -101s-85.5 -34.5 -129.5 -34.5c-30.667 0 -58.334 8.33301 -83.001 25s-46 39 -64 67s-32.333 60.833 -43 98.5
s-17.334 77.5 -20.001 119.5c-13.333 -31.333 -31.166 -64.833 -53.499 -100.5s-47.166 -68.834 -74.499 -99.501s-56.333 -56.167 -87 -76.5s-60.667 -30.5 -90 -30.5c-33.333 0 -66.666 7 -99.999 21s-63.333 35.333 -90 64s-48.334 64.667 -65.001 108
s-25 94.666 -25 153.999c0 62 6.66699 118.333 20 169s31.666 96 54.999 136c41.333 68 89.5 119.167 144.5 153.5s123.5 51.5 205.5 51.5c20 0 42.667 -1.5 68 -4.5s51.166 -7.16699 77.499 -12.5s52.333 -11.666 78 -18.999s49.5 -15.333 71.5 -24v-350
c0 -55.333 2.66699 -102.833 8 -142.5s12.833 -72.167 22.5 -97.5s20.834 -44.166 33.501 -56.499s26.334 -18.5 41.001 -18.5c16.667 0 35.834 7.33301 57.501 22s41.834 36.667 60.501 66s34.5 66.333 47.5 111s19.5 96.667 19.5 156c0 82.667 -12.5 160.5 -37.5 233.5
s-62.5 136.667 -112.5 191s-112.167 97.166 -186.5 128.499s-160.5 47 -258.5 47c-54.667 0 -108.167 -7.16699 -160.5 -21.5s-101.833 -35.166 -148.5 -62.499s-89.667 -60.5 -129 -99.5s-73.166 -83.167 -101.499 -132.5s-50.5 -103.333 -66.5 -162s-24 -121 -24 -187
c0 -108 16.5 -205.167 49.5 -291.5s78 -159.666 135 -219.999s123.833 -106.833 200.5 -139.5s158.334 -49 245.001 -49c46.667 0 93.167 6.66699 139.5 20s91.5 35 135.5 65z" />
    <glyph glyph-name="A" unicode="A" horiz-adv-x="1395" 
d="M685 1265l-252 -725h507zM40 0l27 63l30.5 74.5l36.5 94.5l46 123l400 1105h215l400 -1105l45 -123l37 -94.5l31 -74.5l27 -63h-205l-136 385h-615l-134 -385h-205z" />
    <glyph glyph-name="B" unicode="B" horiz-adv-x="1285" 
d="M175 311l0.00195312 832.001c0 46.667 -0.5 90.167 -1.5 130.5s-2.5 76.5 -4.5 108.5s-5 58 -9 78c22 1.33301 49.333 2.66602 82 3.99902s68.5 2.5 107.5 3.5s80 1.66699 123 2s85.5 0.5 127.5 0.5c74 0 140 -6 198 -18s106.667 -31.667 146 -59s69.333 -63.333 90 -108
s31 -99.667 31 -165c0 -42 -6.33301 -79.833 -19 -113.5s-30.167 -63.667 -52.5 -90s-48.333 -49.166 -78 -68.499s-61.5 -35.333 -95.5 -48c38.667 -10 77 -23.833 115 -41.5s72.167 -41.167 102.5 -70.5s55 -65.833 74 -109.5s28.5 -96.5 28.5 -158.5
c0 -60.667 -9.83301 -117.167 -29.5 -169.5s-51 -97.833 -94 -136.5s-98.333 -69 -166 -91s-149.5 -33 -245.5 -33c-50.667 0 -99.834 0.333008 -147.501 1s-91.334 1.5 -131.001 2.5s-74 2 -103 3s-50.167 2.16699 -63.5 3.5c4 20 7 45.667 9 77s3.5 66.666 4.5 105.999
s1.5 82 1.5 128zM365.002 155.001c9.33301 -0.666992 21.999 -1.33594 37.999 -2.00293s34.667 -1.16699 56 -1.5s44.833 -0.666016 70.5 -0.999023s52.5 -0.5 80.5 -0.5c42.667 0 84.167 4.33301 124.5 13s76 23.334 107 44.001s56 48.334 75 83.001s28.5 78 28.5 130
c0 92.667 -28.167 162.5 -84.5 209.5s-143.166 70.5 -260.499 70.5h-235v-545zM365.001 854.999h195c53.333 0 99.5 5.66699 138.5 17s71.167 27.333 96.5 48s44.166 45.5 56.499 74.5s18.5 60.833 18.5 95.5c0 37.333 -5.16699 70 -15.5 98s-26.666 51.5 -48.999 70.5
s-51.333 33.167 -87 42.5s-78.5 14 -128.5 14c-19.333 0 -40 -0.166992 -62 -0.5s-43.333 -0.833008 -64 -1.5s-39.667 -1.16699 -57 -1.5s-31.333 -0.833008 -42 -1.5v-455z" />
    <glyph glyph-name="C" unicode="C" horiz-adv-x="1355" 
d="M1230 140c-29.333 -27.333 -63.6641 -51.168 -102.997 -71.501s-80.5 -37.5 -123.5 -51.5s-86.5 -24.5 -130.5 -31.5s-85 -10.5 -123 -10.5c-101.333 0 -192.333 17.167 -273 51.5s-149.334 83.333 -206.001 147s-100.167 140.834 -130.5 231.501
s-45.5 192.334 -45.5 305.001c0 128.667 18.667 241.5 56 338.5s87.166 177.833 149.499 242.5s134.166 113.167 215.499 145.5s166 48.5 254 48.5c36 0 72.667 -2.33301 110 -7s74.833 -12.334 112.5 -23.001s75.167 -25 112.5 -43s74 -40.333 110 -67l-60 -180
c-31.333 28 -63.333 51.667 -96 71s-65.334 34.833 -98.001 46.5s-65.167 20 -97.5 25s-63.5 7.5 -93.5 7.5c-70 0 -134.333 -12.167 -193 -36.5s-109.167 -60.833 -151.5 -109.5s-75.5 -109.167 -99.5 -181.5s-36 -156.5 -36 -252.5c0 -90 11.833 -171 35.5 -243
s56.334 -133.333 98.001 -184s91.167 -89.667 148.5 -117s120 -41 188 -41c38 0 76.5 4.33301 115.5 13s77.167 21.167 114.5 37.5s73 35.833 107 58.5s65 48 93 76z" />
    <glyph glyph-name="D" unicode="D" horiz-adv-x="1435" 
d="M175 455l0.000976562 688.002c0 46.667 -0.5 90.167 -1.5 130.5s-2.5 76.5 -4.5 108.5s-5 58 -9 78l53.5 2.5c21.667 1 45.667 1.83301 72 2.5s54 1.33398 83 2.00098s58 1.16699 87 1.5l84.5 1c27.333 0.333008 52.333 0.5 75 0.5c26.667 0 57.167 -1.5 91.5 -4.5
s70.333 -8.83301 108 -17.5s76.334 -20.834 116.001 -36.501s78 -36.167 115 -61.5s71.833 -56 104.5 -92s61.167 -78.667 85.5 -128s43.666 -106.166 57.999 -170.499s21.5 -137.5 21.5 -219.5c0 -99.333 -11 -186.833 -33 -262.5s-51.5 -141.167 -88.5 -196.5
s-79.833 -101.666 -128.5 -138.999s-99.667 -67.333 -153 -90s-107.333 -38.667 -162 -48s-106.334 -14 -155.001 -14c-16 0 -34.5 0.166992 -55.5 0.5s-43.167 0.666016 -66.5 0.999023s-47.333 0.833008 -72 1.5l-72 2c-54.667 1.33301 -111 3 -169 5
c4 20 6.83301 45.667 8.5 77s3 66.666 4 105.999s1.66699 82.166 2 128.499s0.5 94.166 0.5 143.499zM365.001 165.002c23.333 -2 53.833 -4.16992 91.5 -6.50293s80.5 -3.5 128.5 -3.5c44.667 0 88.834 4.33301 132.501 13s85.334 22.5 125.001 41.5s76.5 43.5 110.5 73.5
s63.333 65.833 88 107.5s44 89.834 58 144.501s21 116.334 21 185.001c0 112 -14.167 205.667 -42.5 281s-66.5 135.833 -114.5 181.5s-104.167 78.334 -168.5 98.001s-132.5 29.5 -204.5 29.5c-16.667 0 -35.334 -0.166992 -56.001 -0.5s-41.5 -0.833008 -62.5 -1.5
s-40.833 -1.16699 -59.5 -1.5s-34.334 -0.833008 -47.001 -1.5v-1140z" />
    <glyph glyph-name="E" unicode="E" horiz-adv-x="1160" 
d="M935 845l0.000976562 -160.001h-570v-520h264c99.333 0 182.666 0.666992 249.999 2s121 5.66602 161 12.999v-180h-880c7.33301 40 11.666 97.833 12.999 173.5s2 162.834 2 261.501v590c0 98.667 -0.666992 185.834 -2 261.501s-5.66602 133.5 -12.999 173.5h850v-165
h-645v-450h570z" />
    <glyph glyph-name="F" unicode="F" horiz-adv-x="1150" 
d="M945 835l0.00195312 -160.002h-580v-240c0 -99.333 0.666992 -186.833 2 -262.5s5.66602 -133.167 12.999 -172.5h-220c7.33301 40 11.666 97.833 12.999 173.5s2 162.834 2 261.501v725c0 44.667 -0.5 85.834 -1.5 123.501s-2.5 71.5 -4.5 101.5s-5 55 -9 75h870v-165
h-665v-460h580z" />
    <glyph glyph-name="G" unicode="G" horiz-adv-x="1420" 
d="M1275 155c-51.333 -36 -99.6709 -65.6729 -145.004 -89.0059s-89.333 -41.666 -132 -54.999s-84.667 -22.666 -126 -27.999s-83.666 -8 -126.999 -8c-94.667 0 -181.667 16.333 -261 49s-147.833 80.667 -205.5 144s-102.667 141.166 -135 233.499
s-48.5 198.5 -48.5 318.5s18 227.333 54 322s85.167 174.834 147.5 240.501s135.333 115.834 219 150.501s173.5 52 269.5 52c40.667 0 80 -1.83301 118 -5.5s76.167 -10.5 114.5 -20.5s77.333 -24.167 117 -42.5s81.5 -42.166 125.5 -71.499l-65 -180
c-37.333 30 -73.5 54.833 -108.5 74.5s-69.167 35 -102.5 46s-66.5 18.667 -99.5 23s-66.167 6.5 -99.5 6.5c-76 0 -144.667 -13.333 -206 -40s-113.333 -64.667 -156 -114s-75.5 -109.166 -98.5 -179.499s-34.5 -149.166 -34.5 -236.499c0 -92 10.833 -174.667 32.5 -248
s52.834 -135.833 93.501 -187.5s89.834 -91.167 147.501 -118.5s122.167 -41 193.5 -41c30 0 58.167 1.5 84.5 4.5s52.5 8.16699 78.5 15.5s52.333 17 79 29s55.334 27.333 86.001 46v335h-350v165h540v-590z" />
    <glyph glyph-name="H" unicode="H" horiz-adv-x="1475" 
d="M1085 0v675h-720v-675h-205c7.33301 40 11.666 97.833 12.999 173.5s2 162.834 2 261.501v590c0 98.667 -0.666992 185.834 -2 261.501s-5.66602 133.5 -12.999 173.5h205v-625h720v625h205c-7.33301 -40 -11.666 -97.833 -12.999 -173.5s-2 -162.834 -2 -261.501v-590
c0 -98.667 0.666992 -185.834 2 -261.501s5.66602 -133.5 12.999 -173.5h-205z" />
    <glyph glyph-name="I" unicode="I" horiz-adv-x="975" 
d="M815 1460v-145h-245v-1170h245v-145h-675v145h240v1170h-240v145h675z" />
    <glyph glyph-name="J" unicode="J" horiz-adv-x="965" 
d="M780 1460l-0.00390625 -924.998c0 -104 -10.667 -191.667 -32 -263s-51.166 -129 -89.499 -173s-84.166 -75.667 -137.499 -95s-112 -29 -176 -29c-24 0 -50.167 2.16699 -78.5 6.5s-56.833 11.166 -85.5 20.499s-55.667 21.333 -81 36s-47 32 -65 52l45 185
c16.667 -19.333 35.334 -36.5 56.001 -51.5s42.167 -27.5 64.5 -37.5s45.333 -17.667 69 -23s47.167 -8 70.5 -8c36.667 0 70.334 6.5 101.001 19.5s57 33 79 60s39.167 61.167 51.5 102.5s18.5 90.666 18.5 147.999v495c0 48.667 -0.166992 96.167 -0.5 142.5s-1 90 -2 131
s-2.5 79 -4.5 114s-4.66699 65.833 -8 92.5h205z" />
    <glyph glyph-name="K" unicode="K" horiz-adv-x="1310" 
d="M365 787l560 672.998h240l-606 -687l671 -773h-245l-620 717v-717h-205c7.33301 40 11.666 97.833 12.999 173.5s2 162.834 2 261.501v590c0 98.667 -0.666992 185.834 -2 261.501s-5.66602 133.5 -12.999 173.5h205v-673z" />
    <glyph glyph-name="L" unicode="L" horiz-adv-x="1080" 
d="M589 165c49.333 0 96.001 0.165039 140.001 0.498047s84.667 1 122 2s70.666 2.5 99.999 4.5s54 4.66699 74 8v-180h-865c7.33301 40 11.666 97.833 12.999 173.5s2 162.834 2 261.501v590c0 98.667 -0.666992 185.834 -2 261.501s-5.66602 133.5 -12.999 173.5h205
v-1295h224z" />
    <glyph glyph-name="M" unicode="M" horiz-adv-x="1795" 
d="M455 1460l429.997 -1255l435 1255h220c8 -238 16 -456.667 24 -656c2 -56.667 4.33301 -113.5 7 -170.5l8 -167c2.66699 -54.333 5.33398 -106 8.00098 -155l7.5 -134.5c2.33301 -40.667 4.83301 -76.167 7.5 -106.5s5.33398 -53.833 8.00098 -70.5h-185l-28 1198
l-412 -1198h-195l-414 1195l-31 -1195h-185c2 16.667 4.33301 40.167 7 70.5s5.16699 65.833 7.5 106.5l7.5 134.5c2.66699 49 5.33398 100.667 8.00098 155s5.16699 110 7.5 167s4.83301 113.833 7.5 170.5c8 199.333 16.333 418 25 656h225z" />
    <glyph glyph-name="N" unicode="N" horiz-adv-x="1500" 
d="M340 1152v-1152h-180c7.33301 40 11.666 97.833 12.999 173.5s2 162.834 2 261.501v590c0 98.667 -0.666992 185.834 -2 261.501s-5.66602 133.5 -12.999 173.5h180l795 -1157v1157h180c-3.33301 -20 -6 -44.667 -8 -74s-3.5 -62.5 -4.5 -99.5s-1.66699 -77.5 -2 -121.5
s-0.5 -90.667 -0.5 -140v-1025h-165z" />
    <glyph glyph-name="O" unicode="O" horiz-adv-x="1460" 
d="M1340 740c0 -120 -17.833 -227.332 -53.5 -321.999s-83 -174.834 -142 -240.501s-126.167 -115.834 -201.5 -150.501s-153 -52 -233 -52c-80.667 0 -158 16.333 -232 49s-139.333 80.667 -196 144s-102 141.166 -136 233.499s-51 198.5 -51 318.5
c0 80 8.16699 154.333 24.5 223s39 131.334 68 188.001s63.5 107 103.5 151s83.5 81 130.5 111s96.667 52.833 149 68.5s105.5 23.5 159.5 23.5c79.333 0 155.833 -16.333 229.5 -49s138.667 -80.667 195 -144s101.333 -141.166 135 -233.499s50.5 -198.5 50.5 -318.5z
M1145 715.001c0 92 -10.1709 174.835 -30.5039 248.502s-49.166 136.167 -86.499 187.5s-82.166 90.666 -134.499 117.999s-110.166 41 -173.499 41s-121.333 -13.167 -174 -39.5s-98 -64 -136 -113s-67.5 -108.333 -88.5 -178s-31.5 -147.834 -31.5 -234.501
c0 -91.333 10.167 -173.666 30.5 -246.999s49.333 -135.833 87 -187.5s82.834 -91.334 135.501 -119.001s111.667 -41.5 177 -41.5c61.333 0 118 12.833 170 38.5s96.833 62.667 134.5 111s67.167 107.5 88.5 177.5s32 149.333 32 238z" />
    <glyph glyph-name="P" unicode="P" horiz-adv-x="1195" 
d="M365 435c0 -99.333 0.671875 -186.834 2.00488 -262.501s5.66602 -133.167 12.999 -172.5h-220c7.33301 40 11.666 97.833 12.999 173.5s2 162.834 2 261.501v708c0 46.667 -0.5 90.167 -1.5 130.5s-2.5 76.5 -4.5 108.5s-5 58 -9 78c42 1.33301 86.333 3 133 5
c40 1.33301 85.167 2.5 135.5 3.5s102.5 1.5 156.5 1.5c80.667 0 153.667 -9.16699 219 -27.5s121 -46 167 -83s81.5 -83 106.5 -138s37.5 -118.833 37.5 -191.5c0 -73.333 -12.167 -139.333 -36.5 -198s-59.333 -108.5 -105 -149.5s-101.334 -72.5 -167.001 -94.5
s-139.5 -33 -221.5 -33c-36.667 0 -74.334 0.833008 -113.001 2.5s-74.334 4.16699 -107.001 7.5v-130zM365.005 719.999c32 -4 64.668 -6.66602 98.001 -7.99902s69 -2 107 -2c70 0 127.833 8 173.5 24s82 37.833 109 65.5s45.833 59.667 56.5 96s16 74.5 16 114.5
s-5.83301 78.167 -17.5 114.5s-31 68.166 -58 95.499s-62.833 49.166 -107.5 65.499s-100.334 24.5 -167.001 24.5c-23.333 0 -44.333 -0.166992 -63 -0.5s-36 -0.666016 -52 -0.999023s-31.667 -0.833008 -47 -1.5l-48 -2v-585z" />
    <glyph glyph-name="Q" unicode="Q" horiz-adv-x="1475" 
d="M1145 715c0 92 -10.1709 174.835 -30.5039 248.502s-49.166 136.167 -86.499 187.5s-82.166 90.666 -134.499 117.999s-110.166 41 -173.499 41s-121.333 -13.167 -174 -39.5s-98 -64 -136 -113s-67.5 -108.333 -88.5 -178s-31.5 -147.834 -31.5 -234.501
c0 -91.333 10.167 -173.666 30.5 -246.999s49.333 -135.833 87 -187.5s82.834 -91.334 135.501 -119.001s111.667 -41.5 177 -41.5c61.333 0 118 12.833 170 38.5s96.833 62.667 134.5 111s67.167 107.5 88.5 177.5s32 149.333 32 238zM1340 740.002
c0 -65.333 -5.33203 -129 -15.999 -191s-26.667 -120.5 -48 -175.5s-48.333 -105.333 -81 -151s-71 -84.834 -115 -117.501c62.667 -38.667 124 -71.167 184 -97.5s123.667 -43.833 191 -52.5l-23.5 -38c-9.66699 -16 -20.5 -32 -32.5 -48s-24.833 -29.833 -38.5 -41.5
s-27.167 -17.5 -40.5 -17.5c-14 0 -33.167 4.66699 -57.5 14s-51 21 -80 35s-59.167 29.333 -90.5 46l-89.5 46c-28.333 14 -53.833 25.667 -76.5 35s-39.667 14 -51 14c-28.667 -9.33301 -56.334 -15.833 -83.001 -19.5s-55.667 -5.5 -87 -5.5
c-80.667 0 -157.834 16.333 -231.501 49s-138.5 80.667 -194.5 144s-100.667 141.166 -134 233.499s-50 198.5 -50 318.5c0 80 8.16699 154.333 24.5 223s39 131.334 68 188.001s63.5 107 103.5 151s83.5 81 130.5 111s96.667 52.833 149 68.5s105.5 23.5 159.5 23.5
c80.667 0 157.834 -16.333 231.501 -49s138.5 -80.667 194.5 -144s100.667 -141.166 134 -233.499s50 -198.5 50 -318.5z" />
    <glyph glyph-name="R" unicode="R" horiz-adv-x="1305" 
d="M365 435c0 -49.333 0.167969 -96.001 0.500977 -140.001s1 -84.667 2 -122s2.5 -70.666 4.5 -99.999s4.66699 -53.666 8 -72.999h-220c7.33301 40 11.666 97.833 12.999 173.5s2 162.834 2 261.501v708c0 46.667 -0.5 90.167 -1.5 130.5s-2.5 76.5 -4.5 108.5
s-5 58 -9 78c34.667 1.33301 73 3 115 5c36 1.33301 78.667 2.5 128 3.5s103.333 1.5 162 1.5c78 0 149.167 -7.83301 213.5 -23.5s119.5 -40 165.5 -73s81.833 -75.5 107.5 -127.5s38.5 -114 38.5 -186c0 -60.667 -9.5 -114.334 -28.5 -161.001s-44 -86.834 -75 -120.501
s-66.167 -61.5 -105.5 -83.5s-79.333 -38.667 -120 -50l73.5 -100.5l93 -126l100 -135l94.5 -126.5l77 -100c22 -28 37.333 -47 46 -57h-255l-422 625h-203v-190zM365.001 779.999h190.001c113.333 0 199.166 23.333 257.499 70s87.5 111.667 87.5 195
c0 42.667 -6.5 80.5 -19.5 113.5s-33.333 60.667 -61 83s-63.334 39.333 -107.001 51s-96.167 17.5 -157.5 17.5c-35.333 0 -69.166 -0.5 -101.499 -1.5s-61.833 -2.16699 -88.5 -3.5v-525z" />
    <glyph glyph-name="S" unicode="S" horiz-adv-x="1175" 
d="M960 1200c-36 20 -69.168 36.8281 -99.501 50.4951s-59.833 25 -88.5 34s-57.334 15.5 -86.001 19.5s-59 6 -91 6c-40 0 -76.5 -6 -109.5 -18s-61.5 -28 -85.5 -48s-42.5 -43 -55.5 -69s-19.5 -52.667 -19.5 -80s3.83301 -52.166 11.5 -74.499s23.167 -43.333 46.5 -63
s56.666 -39 99.999 -58s100.666 -38.833 171.999 -59.5c66 -19.333 124.5 -41.833 175.5 -67.5s93.833 -55.167 128.5 -88.5s61 -71.333 79 -114s27 -91 27 -145c0 -67.333 -13.167 -128.5 -39.5 -183.5s-62.333 -102.333 -108 -142s-98.834 -70.334 -159.501 -92.001
s-125 -32.5 -193 -32.5c-48 0 -94.833 3.33301 -140.5 10s-88.667 16 -129 28s-77.5 26.167 -111.5 42.5s-63.667 34.5 -89 54.5l45 205c66.667 -58 135.5 -100 206.5 -126s143.833 -39 218.5 -39c40 0 78.667 5.66699 116 17s70.333 27.833 99 49.5
s51.667 48.334 69 80.001s26 67.834 26 108.501c0 26 -4.16699 50.833 -12.5 74.5s-25.166 46.834 -50.499 69.501s-61.666 45.167 -108.999 67.5s-110 45.166 -188 68.499s-141.667 49 -191 77s-88 58.5 -116 91.5s-47.167 68.333 -57.5 106s-15.5 77.834 -15.5 120.501
s8.83301 87.667 26.5 135s45.5 91 83.5 131s86.667 73.167 146 99.5s130.666 39.5 213.999 39.5c38.667 0 74.834 -1.66699 108.501 -5s66.334 -8.66602 98.001 -15.999s62.834 -16.666 93.501 -27.999s62.334 -25 95.001 -41z" />
    <glyph glyph-name="T" unicode="T" horiz-adv-x="1265" 
d="M1200 1460v-185c-40 8.66699 -79.5 14.167 -118.5 16.5s-81.167 3.5 -126.5 3.5h-240v-860c0 -98.667 1.16699 -185.834 3.5 -261.501s7.83301 -133.5 16.5 -173.5h-230c8.66699 40 14.167 97.833 16.5 173.5s3.5 162.834 3.5 261.501v860h-235
c-44.667 0 -86.667 -1.16699 -126 -3.5s-79 -7.83301 -119 -16.5v185h1155z" />
    <glyph glyph-name="U" unicode="U" horiz-adv-x="1440" 
d="M1255 1460c-6.66699 -40 -10.8291 -96.501 -12.4961 -169.501s-2.5 -161.5 -2.5 -265.5v-510c0 -81.333 -10.667 -155.166 -32 -221.499s-53.833 -123.166 -97.5 -170.499s-98.834 -83.833 -165.501 -109.5s-145 -38.5 -235 -38.5c-91.333 0 -170.5 12.833 -237.5 38.5
s-122.5 62.167 -166.5 109.5s-76.833 104.166 -98.5 170.499s-32.5 140.166 -32.5 221.499v510c0 98.667 -0.833008 185.834 -2.5 261.501s-5.83398 133.5 -12.501 173.5h205v-900c0 -65.333 5.66699 -124.166 17 -176.499s30.333 -97 57 -134s62 -65.333 106 -85
s99 -29.5 165 -29.5c64.667 0 118.667 9.83301 162 29.5s78.166 48 104.499 85s45.166 81.667 56.499 134s17 111.166 17 176.499v900h205z" />
    <glyph glyph-name="V" unicode="V" horiz-adv-x="1365" 
d="M1310 1460l-28 -64.5l-30.5 -76l-36.5 -97l-45 -127.5l-385 -1095h-225l-390 1095l-45.5 126.5l-35.5 97.5l-29 76.5l-25 64.5h215l422 -1265l423 1265h215z" />
    <glyph glyph-name="W" unicode="W" horiz-adv-x="2080" 
d="M1484 186l311 1274h220l-24 -64.5c-8 -22.333 -16.5 -47.666 -25.5 -75.999l-29.5 -97l-36 -127.5l-305 -1095h-225l-343 1176l-342 -1176h-225l-305 1095l-36 126.5l-29.5 98c-9 29 -17.5 54.667 -25.5 77s-16 43.5 -24 63.5h220l316 -1274l359 1274h185z" />
    <glyph glyph-name="X" unicode="X" horiz-adv-x="1325" 
d="M330 1110l-82.5 129.5l-61.5 91l-49.5 68l-46.5 61.5h235l331 -526l319 526h235l-45.5 -58.5c-15 -19.667 -31.5 -42.667 -49.5 -69l-61.5 -93l-81.5 -129.5l-211 -343l272 -431l82.5 -129l58 -86.5l44 -62.5l42.5 -58h-230l-388 614l-372 -614h-230l44 60l44 64l56.5 87
l80.5 129l272 441z" />
    <glyph glyph-name="Y" unicode="Y" horiz-adv-x="1320" 
d="M265 1460l395.002 -661l375 661h230l-78 -114.5l-62.5 -97.5l-55 -90l-54.5 -93l-270 -462v-168c0 -98.667 0.666992 -185.834 2 -261.501s5.66602 -133.5 12.999 -173.5h-220c7.33301 40 11.666 97.833 12.999 173.5s2 162.834 2 261.501v176l-265 454l-56.5 96
l-57.5 95c-20 32 -41.5 64.667 -64.5 98l-76.5 106h230z" />
    <glyph glyph-name="Z" unicode="Z" horiz-adv-x="1230" 
d="M1105 1330l-795 -1165h390c98 0 185 1.5 261 4.5s134 8.16699 174 15.5v-185h-1060v125l795 1170h-340c-49.333 0 -93.833 -0.166992 -133.5 -0.5s-75.5 -1.33301 -107.5 -3s-60.667 -3.83398 -86 -6.50098s-48 -6 -68 -10v185h970v-130z" />
    <glyph glyph-name="bracketleft" unicode="[" horiz-adv-x="790" 
d="M200 -410v2010h440v-150h-255v-1710h255v-150h-440z" />
    <glyph glyph-name="backslash" unicode="\" horiz-adv-x="1000" 
d="M840 -245l-830 1845h150l830 -1845h-150z" />
    <glyph glyph-name="bracketright" unicode="]" horiz-adv-x="790" 
d="M150 -410v150h255v1710h-255v150h440v-2010h-440z" />
    <glyph glyph-name="asciicircum" unicode="^" horiz-adv-x="850" 
d="M0 1170l340 430h170l340 -430h-150l-275 280l-275 -280h-150z" />
    <glyph glyph-name="underscore" unicode="_" horiz-adv-x="1274" 
d="M0 -170h1274v-150h-1274v150z" />
    <glyph glyph-name="grave" unicode="`" horiz-adv-x="580" 
d="M230 1600l350 -430h-160l-420 430h230z" />
    <glyph glyph-name="a.SngStory" unicode="a" horiz-adv-x="1150" 
d="M805 862c-8 2 -16.999 3.99902 -26.999 5.99902s-21.833 4 -35.5 6s-29.667 3.5 -48 4.5s-39.833 1.5 -64.5 1.5c-65.333 0 -119.833 -13.167 -163.5 -39.5s-78.5 -61.333 -104.5 -105s-44.5 -93.834 -55.5 -150.501s-16.5 -115 -16.5 -175
c0 -38.667 3.83301 -74.167 11.5 -106.5s18.167 -60.333 31.5 -84s28.666 -42 45.999 -55s36 -19.5 56 -19.5c29.333 0 58.833 11.333 88.5 34s58.167 51.834 85.5 87.501s53 75.667 77 120s44.833 88.333 62.5 132s31.5 84.834 41.5 123.501s15 69.667 15 93v127z
M880.001 -0.000976562c-7.33301 16 -13.8311 37.998 -19.498 65.998s-10.334 57.833 -14.001 89.5s-6.5 63.167 -8.5 94.5s-3 58 -3 80v80c-20 -52 -43.833 -103.833 -71.5 -155.5s-59.334 -98.167 -95.001 -139.5s-75.5 -75 -119.5 -101s-92 -39 -144 -39
c-42 0 -81.333 9.33301 -118 28s-68.5 46.334 -95.5 83.001s-48.167 82.167 -63.5 136.5s-23 116.833 -23 187.5c0 79.333 10.667 156.833 32 232.5s54 143 98 202s100 106.333 168 142s148.667 53.5 242 53.5c64.667 0 125.667 -4.16699 183 -12.5
s111.333 -19.166 162 -32.499v-465c0 -126 6 -231.833 18 -317.5s27.667 -156.5 47 -212.5h-175z" />
    <glyph glyph-name="b" unicode="b" horiz-adv-x="1155" 
d="M330 1600v-775.002c23.333 30.667 48.666 59 75.999 85s56.833 48.667 88.5 68s65.834 34.5 102.501 45.5s76 16.5 118 16.5c50.667 0 97 -12.333 139 -37s78.333 -59.167 109 -103.5s54.5 -97.166 71.5 -158.499s25.5 -128.333 25.5 -201
c0 -86 -11.5 -163.667 -34.5 -233s-55.5 -128.666 -97.5 -177.999s-92.833 -87.333 -152.5 -114s-126.5 -40 -200.5 -40c-40.667 0 -80 2.83301 -118 8.5s-74.833 13 -110.5 22s-70.167 18.667 -103.5 29l-98 30.5v1183c0 42.667 -0.5 85.5 -1.5 128.5s-2.5 84 -4.5 123
s-5 72.5 -9 100.5h200zM330 184.998c24.667 -10 47.167 -18.5 67.5 -25.5s40.166 -12.667 59.499 -17s38.5 -7.5 57.5 -9.5s39.167 -3 60.5 -3c44 0 84.667 9 122 27s69.5 43.333 96.5 76s48.167 72.167 63.5 118.5s23 97.5 23 153.5c0 55.333 -5 105.333 -15 150
s-24.5 82.5 -43.5 113.5s-42.5 54.833 -70.5 71.5s-60 25 -96 25c-31.333 0 -62.666 -6.83301 -93.999 -20.5s-61.166 -32.834 -89.499 -57.501s-54.833 -54.167 -79.5 -88.5s-45.334 -72.166 -62.001 -113.499v-400z" />
    <glyph glyph-name="c" unicode="c" horiz-adv-x="1020" 
d="M925 85c-25.333 -19.333 -50.5029 -35.834 -75.5029 -49.501s-51.167 -25 -78.5 -34s-56.666 -15.667 -87.999 -20s-65.666 -6.5 -102.999 -6.5c-67.333 0 -130.333 11.833 -189 35.5s-110 57.834 -154 102.501s-78.667 98.667 -104 162s-38 135 -38 215
c0 75.333 12.167 146.333 36.5 213s59 125 104 175s99.667 89.5 164 118.5s136.166 43.5 215.499 43.5c66.667 0 124.167 -7.83301 172.5 -23.5s90.833 -36.167 127.5 -61.5l-35 -180c-45.333 33.333 -90.333 58.333 -135 75s-93 25 -145 25
c-44.667 0 -86.167 -8.5 -124.5 -25.5s-71.666 -41.5 -99.999 -73.5s-50.5 -71.333 -66.5 -118s-24 -99.334 -24 -158.001c0 -54 7.33301 -103 22 -147s35.667 -81.833 63 -113.5s60.333 -56.167 99 -73.5s82.334 -26 131.001 -26c60.667 0 115.667 10.333 165 31
s96 50.334 140 89.001z" />
    <glyph glyph-name="d" unicode="d" horiz-adv-x="1190" 
d="M845 795c-24.667 13.333 -47.668 24.666 -69.001 33.999s-42.333 17 -63 23s-41.667 10.5 -63 13.5s-44.666 4.5 -69.999 4.5c-38 0 -74.333 -8.66699 -109 -26s-65.5 -42.333 -92.5 -75s-48.5 -72.5 -64.5 -119.5s-24 -100.167 -24 -159.5
c0 -116.667 19.833 -205 59.5 -265s103.167 -90 190.5 -90c30.667 0 61.167 7.66699 91.5 23s59 35.333 86 60s51.5 52.834 73.5 84.501s40 64.167 54 97.5v395zM1030 530c0 -126 7.16602 -231.829 21.499 -317.496s32.166 -156.5 53.499 -212.5h-180
c-7.33301 17.333 -16.166 43.166 -26.499 77.499s-19.833 70.166 -28.5 107.499c-48 -68 -102.333 -120 -163 -156s-128 -54 -202 -54c-61.333 0 -116.5 11.5 -165.5 34.5s-91 55.667 -126 98s-61.833 93.333 -80.5 153s-28 126.167 -28 199.5
c0 88.667 12.167 168.667 36.5 240s57.833 132.166 100.5 182.499s92.834 89.166 150.501 116.499s120.167 41 187.5 41c21.333 0 43.5 -2.33301 66.5 -7s46 -11 69 -19s45.5 -17.167 67.5 -27.5s42.667 -20.833 62 -31.5v280c0 80.667 -1.83301 151.167 -5.5 211.5
s-10.167 111.5 -19.5 153.5h210v-1070z" />
    <glyph glyph-name="e" unicode="e" horiz-adv-x="1095" 
d="M280 485c2 -58.667 11.1719 -109.672 27.5049 -153.005s38.666 -79.166 66.999 -107.499s61.666 -49.5 99.999 -63.5s80.166 -21 125.499 -21c64.667 0 128 7.33301 190 22s123.667 40.667 185 78l20 -165c-35.333 -18 -70 -33.333 -104 -46s-68 -23 -102 -31
s-68.5 -13.833 -103.5 -17.5s-71.833 -5.5 -110.5 -5.5c-64 0 -125 11.167 -183 33.5s-109 55.333 -153 99s-79 97.834 -105 162.501s-39 139.667 -39 225c0 82.667 11.167 157.5 33.5 224.5s54.166 124.333 95.499 172s91.666 84.334 150.999 110.001s126 38.5 200 38.5
c54.667 0 103 -6.5 145 -19.5s78.333 -31 109 -54s56.334 -49.833 77.001 -80.5s37.167 -63.667 49.5 -99s21.166 -72.166 26.499 -110.499s8 -76.166 8 -113.499v-39c0 -16.667 -0.333008 -29.667 -1 -39h-709zM560.005 889.995c-73.333 0 -133.333 -21.5 -180 -64.5
s-77.334 -109.833 -92.001 -200.5h522c0 42.667 -6.16699 80.5 -18.5 113.5s-29.666 60.833 -51.999 83.5s-48.833 39.667 -79.5 51s-64 17 -100 17z" />
    <glyph glyph-name="f" unicode="f" horiz-adv-x="750" 
d="M40 995l200 -0.000976562v175c0 150 30.5 262.5 91.5 337.5s145.5 112.5 253.5 112.5c39.333 0 78 -6.16699 116 -18.5s72.667 -29.5 104 -51.5l-45 -160c-25.333 18.667 -53.5 33.334 -84.5 44.001s-61.167 16 -90.5 16c-52 0 -91.667 -18.667 -119 -56
s-41 -98.666 -41 -183.999v-215h270v-145h-270v-356c0 -48.667 0.5 -96.834 1.5 -144.501s2.66699 -93 5 -136s5.5 -82.833 9.5 -119.5s8.66699 -68 14 -94h-215v850h-200v145z" />
    <glyph glyph-name="g.SngBowl" unicode="g" horiz-adv-x="1125" 
d="M805 830c-16 6 -32.999 11.498 -50.999 16.498s-36.333 9.16699 -55 12.5s-36.834 6 -54.501 8s-34.167 3 -49.5 3c-54.667 0 -101.334 -11.167 -140.001 -33.5s-70.167 -51.666 -94.5 -87.999s-42.166 -77.5 -53.499 -123.5s-17 -92.667 -17 -140
c0 -62 4.83301 -113.5 14.5 -154.5s23 -73.667 40 -98s37 -41.666 60 -51.999s48.167 -15.5 75.5 -15.5c25.333 0 52.333 5.16699 81 15.5s57.5 25.166 86.5 44.499s57 43.333 84 72s51.5 61.334 73.5 98.001v435zM990.001 24.998
c0 -88 -12.8301 -163.331 -38.4971 -225.998s-59.334 -113.834 -101.001 -153.501s-89.167 -68.834 -142.5 -87.501s-107.666 -28 -162.999 -28c-64 0 -127.5 11 -190.5 33s-121.167 51 -174.5 87l65 155c47.333 -34 95 -61.667 143 -83s97 -32 147 -32
c26 0 54.667 4.66699 86 14s60.666 25.5 87.999 48.5s50.166 53.833 68.499 92.5s27.5 87 27.5 145v205c-26 -32.667 -53.5 -61.5 -82.5 -86.5s-58.333 -45.833 -88 -62.5s-59.334 -29.334 -89.001 -38.001s-58.167 -13 -85.5 -13c-46 0 -90.333 8 -133 24
s-80.5 41.5 -113.5 76.5s-59.333 80.5 -79 136.5s-29.5 123.667 -29.5 203c0 76.667 10 151.334 30 224.001s51 137.167 93 193.5s95.833 101.666 161.5 135.999s144.167 51.5 235.5 51.5c30 0 60.833 -2.16699 92.5 -6.5s63.167 -10.166 94.5 -17.499s62 -15.5 92 -24.5
l86 -26.5v-940z" />
    <glyph glyph-name="h" unicode="h" horiz-adv-x="1175" 
d="M855 0l-0.00292969 549.998c0 62.667 -4.16699 114.334 -12.5 155.001s-20.833 72.834 -37.5 96.501s-37.5 40.167 -62.5 49.5s-54.167 14 -87.5 14c-36 0 -71.167 -8.5 -105.5 -25.5s-65.833 -39 -94.5 -66s-54 -57.5 -76 -91.5s-38.333 -68 -49 -102v-580h-185v1130
c0 108 -0.666992 202.5 -2 283.5s-5.66602 143.167 -12.999 186.5h200v-770c49.333 70 107.333 122.5 174 157.5s135.334 52.5 206.001 52.5c106.667 0 188.334 -34.833 245.001 -104.5s85 -173.167 85 -310.5v-625h-185z" />
    <glyph glyph-name="i" unicode="i" horiz-adv-x="565" 
d="M155 1345c0 18.667 3 36.167 9 52.5s14.5 30.666 25.5 42.999s24.167 22 39.5 29s32.333 10.5 51 10.5s36 -3.5 52 -10.5s29.667 -16.667 41 -29s20.333 -26.666 27 -42.999s10 -33.833 10 -52.5s-3.33301 -36.167 -10 -52.5s-15.667 -30.666 -27 -42.999
s-25 -22 -41 -29s-33.333 -10.5 -52 -10.5s-35.667 3.5 -51 10.5s-28.5 16.667 -39.5 29s-19.5 26.666 -25.5 42.999s-9 33.833 -9 52.5zM375 475c0 -32 0.500977 -69.8281 1.50098 -113.495s2.33301 -87.834 4 -132.501s3.66699 -87.334 6 -128.001
s5.16602 -74.334 8.49902 -101.001h-205v530c0 48.667 -0.166992 96.667 -0.5 144s-1 92.166 -2 134.499s-2.5 81.666 -4.5 117.999s-4.66699 67.5 -8 93.5h200v-545z" />
    <glyph glyph-name="j" unicode="j" horiz-adv-x="595" 
d="M185 1345c0 18.667 3 36.167 9 52.5s14.5 30.666 25.5 42.999s24.167 22 39.5 29s32.333 10.5 51 10.5s36 -3.5 52 -10.5s29.667 -16.667 41 -29s20.333 -26.666 27 -42.999s10 -33.833 10 -52.5s-3.33301 -36.167 -10 -52.5s-15.667 -30.666 -27 -42.999
s-25 -22 -41 -29s-33.333 -10.5 -52 -10.5s-35.667 3.5 -51 10.5s-28.5 16.667 -39.5 29s-19.5 26.666 -25.5 42.999s-9 33.833 -9 52.5zM405 25c0 -93.333 -8.83203 -171.665 -26.499 -234.998s-42.834 -114.166 -75.501 -152.499s-72.167 -65.833 -118.5 -82.5
s-97.833 -25 -154.5 -25c-14 0 -30.5 1.5 -49.5 4.5s-38.667 7.16699 -59 12.5s-40.333 12.166 -60 20.499s-36.834 17.5 -51.501 27.5l35 165c10.667 -8 24.334 -15.667 41.001 -23s34 -13.833 52 -19.5s36 -10 54 -13s34 -4.5 48 -4.5c26.667 0 51 5.16699 73 15.5
s41 26.5 57 48.5s28.333 50.333 37 85s13 76.667 13 126v555c0 48.667 -0.166992 96.667 -0.5 144s-1 92.166 -2 134.499s-2.5 81.666 -4.5 117.999s-4.66699 67.5 -8 93.5h200v-995z" />
    <glyph glyph-name="k" unicode="k" horiz-adv-x="1035" 
d="M145 0l-0.000976562 1130c0 108 -0.666992 202.5 -2 283.5s-5.66602 143.167 -12.999 186.5h200v-999l405 419h250l-495 -447l525 -573h-245l-440 520v-520h-185z" />
    <glyph glyph-name="l" unicode="l" horiz-adv-x="565" 
d="M375 475c0 -32 0.500977 -69.666 1.50098 -112.999s2.33301 -87.333 4 -132s3.66699 -87.334 6 -128.001s5.16602 -74.667 8.49902 -102h-205v1130c0 97.333 -1.66699 185.5 -5 264.5s-8.33301 147.5 -15 205.5h205v-1125z" />
    <glyph glyph-name="m" unicode="m" horiz-adv-x="1685" 
d="M945 0l-184.998 -0.00292969v570c0 62 -2.33301 112.167 -7 150.5s-12.5 68.333 -23.5 90s-25.833 36.167 -44.5 43.5s-42 11 -70 11c-24.667 0 -49.334 -5 -74.001 -15s-48.167 -24.167 -70.5 -42.5s-43 -40 -62 -65s-35.167 -52.5 -48.5 -82.5v-660h-185v615
c0 98.667 -5.66699 182.167 -17 250.5s-22.333 119.833 -33 154.5h180c7.33301 -21.333 13.666 -46.5 18.999 -75.5s9.66602 -55.5 12.999 -79.5c30.667 35.333 60 64.333 88 87s55.833 40.5 83.5 53.5s55.167 22 82.5 27s55.333 7.5 84 7.5
c32.667 0 62.334 -4.66699 89.001 -14s50.167 -21.666 70.5 -36.999s37.833 -33.166 52.5 -53.499s26 -41.5 34 -63.5c31.333 34 61.666 61.833 90.999 83.5s58 38.667 86 51s55.5 21 82.5 26s53.5 7.5 79.5 7.5c50.667 0 93.334 -8.16699 128.001 -24.5
s62.5 -40.5 83.5 -72.5s36 -71.667 45 -119s13.5 -102 13.5 -164v-660h-185v550c0 64.667 -2.33301 117.334 -7 158.001s-12.5 72.667 -23.5 96s-25.833 39.333 -44.5 48s-42 13 -70 13c-24.667 0 -49 -4.83301 -73 -14.5s-47.167 -23.334 -69.5 -41.001
s-43 -39.167 -62 -64.5s-35.833 -53.666 -50.5 -84.999v-660z" />
    <glyph glyph-name="n" unicode="n" horiz-adv-x="1185" 
d="M865 0l-0.00292969 549.998c0 62.667 -4.16699 114.334 -12.5 155.001s-20.666 72.834 -36.999 96.501s-37 40.167 -62 49.5s-54.5 14 -88.5 14c-36 0 -71.167 -8.5 -105.5 -25.5s-65.833 -39 -94.5 -66s-54 -57.5 -76 -91.5s-38.333 -68 -49 -102v-580h-185v615
c0 98.667 -5.5 182.167 -16.5 250.5s-22.167 119.833 -33.5 154.5h180c4 -10.667 8 -24.5 12 -41.5s7.66699 -34.833 11 -53.5s6.33301 -37 9 -55l8 -45c63.333 76 127.333 130.833 192 164.5s132.334 50.5 203.001 50.5c106.667 0 188.334 -34.833 245.001 -104.5
s85 -173.167 85 -310.5v-625h-185z" />
    <glyph glyph-name="o" unicode="o" horiz-adv-x="1140" 
d="M280 505c0 -58 7.00391 -110 21.0039 -156s33.833 -84.833 59.5 -116.5s56.167 -55.834 91.5 -72.501s74.666 -25 117.999 -25c40 0 77.667 8.33301 113 25s66.166 40.834 92.499 72.501s47 70.5 62 116.5s22.5 98 22.5 156c0 58.667 -7 111.167 -21 157.5
s-33.833 85.666 -59.5 117.999s-56.334 57 -92.001 74s-74.834 25.5 -117.501 25.5c-40.667 0 -78.667 -8.5 -114 -25.5s-66 -41.667 -92 -74s-46.5 -71.666 -61.5 -117.999s-22.5 -98.833 -22.5 -157.5zM95.0039 505c0 86 13 162.167 39 228.5s61 122.333 105 168
s95.333 80.167 154 103.5s121 35 187 35c68.667 0 131.5 -11.667 188.5 -35s106 -57.833 147 -103.5s72.833 -101.667 95.5 -168s34 -142.5 34 -228.5s-13 -162 -39 -228s-61 -121.333 -105 -166s-95.333 -78.5 -154 -101.5s-121 -34.5 -187 -34.5
c-68.667 0 -131.5 11.5 -188.5 34.5s-106 56.833 -147 101.5s-72.833 100 -95.5 166s-34 142 -34 228z" />
    <glyph glyph-name="p" unicode="p" horiz-adv-x="1170" 
d="M340 260c34 -24 63.502 -43.833 88.502 -59.5s47.833 -28 68.5 -37s40.5 -15.167 59.5 -18.5s40.167 -5 63.5 -5c35.333 0 69.166 8.33301 101.499 25s61 40.834 86 72.501s45 70 60 115s22.5 95.833 22.5 152.5c0 55.333 -5.16699 105.5 -15.5 150.5
s-25.5 83.333 -45.5 115s-44.167 56.167 -72.5 73.5s-60.5 26 -96.5 26c-28.667 0 -58 -6.33301 -88 -19s-59.167 -31.334 -87.5 -56.001s-54.833 -55.5 -79.5 -92.5s-46.334 -79.5 -65.001 -127.5v-315zM285.002 1020c7.33301 -17.333 14.6689 -41.833 22.002 -73.5
s13.333 -70.5 18 -116.5c23.333 30.667 48.833 59 76.5 85s57 48.167 88 66.5s63.667 32.666 98 42.999s70.166 15.5 107.499 15.5c56.667 0 108.5 -12.5 155.5 -37.5s87 -60 120 -105s58.667 -98.333 77 -160s27.5 -129.167 27.5 -202.5c0 -85.333 -12 -162.5 -36 -231.5
s-56.5 -127.833 -97.5 -176.5s-89.167 -86.167 -144.5 -112.5s-114.333 -39.5 -177 -39.5c-26.667 0 -51.834 2.66699 -75.501 8s-46.667 12.666 -69 21.999s-44.5 20.833 -66.5 34.5s-45 28.834 -69 45.501v-235c0 -40 0.5 -76.167 1.5 -108.5s2.5 -62.166 4.5 -89.499
s4.66699 -52.5 8 -75.5s7 -45.167 11 -66.5h-210v975c0 62 -0.5 119.5 -1.5 172.5s-3.16699 101.667 -6.5 146s-8.33301 84.5 -15 120.5s-15.667 68 -27 96h180z" />
    <glyph glyph-name="q" unicode="q" horiz-adv-x="1130" 
d="M795 830c-30 11.333 -63.166 20.832 -99.499 28.499s-69.833 11.5 -100.5 11.5c-54.667 0 -101.334 -11.167 -140.001 -33.5s-70.167 -51.666 -94.5 -87.999s-42.166 -77.5 -53.499 -123.5s-17 -92.667 -17 -140c0 -62 6.83301 -114.667 20.5 -158
s31.5 -78.5 53.5 -105.5s46.667 -46.5 74 -58.5s54.666 -18 81.999 -18c46 0 93 18.333 141 55s92.667 91.667 134 165v465zM795.001 139.999c-52 -60.667 -101.667 -103.335 -149 -128.002s-94.333 -37 -141 -37c-46 0 -92.667 9 -140 27s-90.333 45.833 -129 83.5
s-70.167 85.5 -94.5 143.5s-36.5 126.667 -36.5 206c0 76.667 10 151.334 30 224.001s51 137.167 93 193.5s95.833 101.666 161.5 135.999s144.167 51.5 235.5 51.5c30 0 60.333 -2.16699 91 -6.5s61 -10.166 91 -17.499s59.5 -15.5 88.5 -24.5l84.5 -26.5v-1115
c0 -40 0.5 -76.167 1.5 -108.5s2.5 -62.166 4.5 -89.499s4.66699 -52.5 8 -75.5s7 -45.167 11 -66.5h-210v630z" />
    <glyph glyph-name="r" unicode="r" horiz-adv-x="890" 
d="M155 0l-0.000976562 615c0 98.667 -5.5 182.167 -16.5 250.5s-22.167 119.833 -33.5 154.5h180c4 -10.667 8 -24.5 12 -41.5s7.66699 -34.833 11 -53.5s6.33301 -37 9 -55l8 -45c24 34.667 50.167 65.334 78.5 92.001s57 49.167 86 67.5s57.333 32.166 85 41.499
s52.834 14 75.501 14c42 0 77.5 -9.16699 106.5 -27.5s52.667 -43 71 -74s31.666 -66.667 39.999 -107s12.5 -82.5 12.5 -126.5l-160 -35c0 24.667 -2.33301 48.5 -7 71.5s-11.667 43.333 -21 61s-21.166 31.667 -35.499 42s-31.5 15.5 -51.5 15.5
c-21.333 0 -45 -8.16699 -71 -24.5s-51.5 -37.833 -76.5 -64.5s-48.167 -56.667 -69.5 -90s-37.333 -67 -48 -101v-580h-185z" />
    <glyph glyph-name="s" unicode="s" horiz-adv-x="965" 
d="M800 785c-16.667 10 -35.666 20.5049 -56.999 31.5049s-44.5 21.167 -69.5 30.5s-51.667 17.166 -80 23.499s-57.833 9.5 -88.5 9.5c-36.667 0 -67.5 -4 -92.5 -12s-45 -18.167 -60 -30.5s-25.833 -26.333 -32.5 -42s-10 -30.834 -10 -45.501
c0 -17.333 2.66699 -32.666 8 -45.999s16.5 -25.666 33.5 -36.999s41.167 -22.333 72.5 -33s73.333 -22 126 -34c45.333 -10 88 -22.833 128 -38.5s75 -35.5 105 -59.5s53.667 -52.833 71 -86.5s26 -73.834 26 -120.501c0 -45.333 -10 -87.333 -30 -126
s-47.333 -72.5 -82 -101.5s-75.334 -51.667 -122.001 -68s-97 -24.5 -151 -24.5c-40.667 0 -79.834 3 -117.501 9s-73 14.333 -106 25s-63.167 23 -90.5 37s-51 28.667 -71 44l50 180c22.667 -20 48.167 -38.333 76.5 -55s57.5 -31 87.5 -43s60.167 -21.167 90.5 -27.5
s58.833 -9.5 85.5 -9.5c29.333 0 56.166 3.83301 80.499 11.5s45.333 17.667 63 30s31.5 26.666 41.5 42.999s15 33.166 15 50.499c0 18.667 -3.83301 36.167 -11.5 52.5s-21.667 32 -42 47s-48.333 29.5 -84 43.5s-81.5 28 -137.5 42c-60.667 14.667 -110.167 32 -148.5 52
s-68.333 42 -90 66s-36.5 50 -44.5 78s-12 57.667 -12 89c0 15.333 2.5 33.333 7.5 54s13.333 42.167 25 64.5s27 44.333 46 66s42.833 41 71.5 58s62.334 30.833 101.001 41.5s83.334 16 134.001 16c36 0 69.833 -2.33301 101.5 -7s60.667 -10.834 87 -18.501
s50.5 -16.334 72.5 -26.001s41.667 -19.167 59 -28.5z" />
    <glyph glyph-name="t" unicode="t" horiz-adv-x="835" 
d="M30 995l200.001 -0.00195312v325h185v-325h325v-145h-325v-460c0 -51.333 2.5 -93.333 7.5 -126s12.667 -58.167 23 -76.5s23.5 -30.833 39.5 -37.5s35.333 -10 58 -10c28.667 0 61 6.33301 97 19s76 31.334 120 56.001v-160c-46 -30 -90 -50.833 -132 -62.5
s-80.667 -17.5 -116 -17.5c-39.333 0 -76 4.5 -110 13.5s-63.833 24.833 -89.5 47.5s-45.834 52.834 -60.501 90.501s-22 85.5 -22 143.5v580h-200v145z" />
    <glyph glyph-name="u" unicode="u" horiz-adv-x="1185" 
d="M920 0c-4.66699 11.333 -9.66504 24.668 -14.998 40.001s-10.5 31.666 -15.5 48.999s-9.66699 35.5 -14 54.5s-7.83301 37.833 -10.5 56.5c-60.667 -74 -123.167 -130 -187.5 -168s-131.833 -57 -202.5 -57c-213.333 0 -320 143.333 -320 430v295
c0 32 -0.166992 61 -0.5 87s-1.16602 51.167 -2.49902 75.5s-3.33301 49.166 -6 74.499s-6.33398 53 -11.001 83h205v-555c0 -56.667 2.83301 -105.5 8.5 -146.5s15.167 -74.667 28.5 -101s30.833 -45.833 52.5 -58.5s48.5 -19 80.5 -19
c29.333 0 60.666 8.83301 93.999 26.5s65.166 40.167 95.499 67.5s58 57.5 83 90.5s44.167 64.833 57.5 95.5v280c0 32.667 -0.166992 62.167 -0.5 88.5s-1.16602 51.5 -2.49902 75.5s-3.33301 48.333 -6 73s-6.33398 52.334 -11.001 83.001h205v-570
c0 -97.333 5.5 -182.5 16.5 -255.5s27.167 -137.833 48.5 -194.5h-170z" />
    <glyph glyph-name="v" unicode="v" horiz-adv-x="1070" 
d="M1050 1020l-43.5 -93l-43 -98l-38.5 -91l-30 -73l-26.5 -65.5l-37 -93l-43.5 -109l-45 -113.5l-113 -284h-190l-109 274l-45 112l-43.5 109.5l-38 96.5l-29.5 73l-30 73.5l-39 91.5l-43 97.5l-43 92.5h210l305 -820l305 820h210z" />
    <glyph glyph-name="w" unicode="w" horiz-adv-x="1550" 
d="M850 1020l260 -805l210 805h185l-31.5 -102.5l-25.5 -87l-23.5 -81l-24.5 -84.5l-185 -665h-190l-250 785l-250 -785h-190l-185 665l-22.5 79l-24 81l-26.5 90l-32 105h185l210 -805l260 805h150z" />
    <glyph glyph-name="x" unicode="x" horiz-adv-x="1085" 
d="M536 376l-261 -376h-225l69 90.5l49.5 65.5l40 55l41.5 59l178 258l-158 222l-46 63l-44 57l-51.5 64.5l-68.5 85.5h230l260 -361l245 361h225l-66 -85.5l-49 -65l-41.5 -57.5l-43.5 -62l-163 -240l173 -240l47 -64.5l42 -54.5l48.5 -63l67.5 -88h-230z" />
    <glyph glyph-name="y" unicode="y" horiz-adv-x="1060" 
d="M655 0c-34.667 -96 -68.666 -174.335 -101.999 -235.002s-67.166 -108.5 -101.499 -143.5s-70 -59 -107 -72s-76.833 -19.5 -119.5 -19.5c-46 0 -89.167 7.33301 -129.5 22s-78.833 35.667 -115.5 63l60 160c10.667 -8.66699 23.167 -17.5 37.5 -26.5
s29.666 -17 45.999 -24s33.166 -12.833 50.499 -17.5s34.333 -7 51 -7c20 0 39.667 3.5 59 10.5s38.833 20.333 58.5 40s39.834 47.334 60.501 83.001s42.667 82.5 66 140.5l-279 691l-65 153c-24.667 56.667 -56.334 124 -95.001 202h200l323 -817l41.5 117.5l46.5 131
l48 136l46 131.5l105 301h200l-47 -107.5l-39 -93l-32.5 -81.5c-9.66699 -25.333 -18.5 -49.666 -26.5 -72.999z" />
    <glyph glyph-name="z" unicode="z" horiz-adv-x="1040" 
d="M930 1020l0.000976562 -95l-595 -775h430c29.333 0 59.166 0.666992 89.499 2s60.5 5.66602 90.5 12.999v-165h-840v110l575 760h-390c-30 0 -58.667 -0.666992 -86 -2s-50.333 -5.66602 -69 -12.999v165h795z" />
    <glyph glyph-name="braceleft" unicode="{" horiz-adv-x="1000" 
d="M800 -410c-26 6.66699 -54.665 14.8281 -85.998 24.4951s-61.5 20 -90.5 31s-55.167 22.5 -78.5 34.5s-40 23.667 -50 35c-12 13.333 -21.833 40 -29.5 80s-14 86.333 -19 139s-9 108.167 -12 166.5s-5.66699 112.5 -8 162.5s-4.66602 92.333 -6.99902 127
s-5.5 54.667 -9.5 60c-4.66699 6 -12.834 13.5 -24.501 22.5s-24.834 18.667 -39.501 29l-46 32.5l-44 32c-13.333 10 -24.333 19.333 -33 28s-13 15.667 -13 21c0 8 9.16699 19.333 27.5 34s39.166 30.334 62.499 47.001l67.5 47.5c21.667 15 35.834 27.167 42.501 36.5
c4 5.33301 7.16699 25.333 9.5 60s4.66602 77 6.99902 127s5 104.167 8 162.5s7 113.833 12 166.5s11.333 99 19 139s17.5 66.667 29.5 80c10 11.333 26.667 23 50 35s49.5 23.5 78.5 34.5s59.167 21.333 90.5 31s60 17.834 86 24.501l40 -140l-58 -21.5
c-22 -8.33301 -43.5 -17.166 -64.5 -26.499s-39.667 -18.666 -56 -27.999s-26.833 -17.333 -31.5 -24c-4 -6 -7.5 -19.333 -10.5 -40s-5.33301 -46.167 -7 -76.5s-3.16699 -64 -4.5 -101s-2.33301 -74.667 -3 -113l-2 -113c-0.666992 -37 -1.66699 -70.333 -3 -100
s-2.66602 -54.5 -3.99902 -74.5s-3.33301 -32.333 -6 -37c-4.66699 -9.33301 -15.5 -20.166 -32.5 -32.499l-53 -37.5l-50.5 -35.5c-15.333 -11 -23.333 -19.167 -24 -24.5c0.666992 -5.33301 8.66699 -13.5 24 -24.5l50.5 -35.5l53 -38
c17 -12.667 27.833 -23.334 32.5 -32.001c2.66699 -4.66699 4.66699 -17 6 -37s2.66602 -44.833 3.99902 -74.5s2.33301 -63 3 -100l2 -113c0.666992 -38.333 1.66699 -76 3 -113s2.83301 -70.667 4.5 -101s4 -55.833 7 -76.5s6.5 -34 10.5 -40
c4.66699 -7.33301 15.167 -15.5 31.5 -24.5s35 -18.167 56 -27.5s42.5 -18.166 64.5 -26.499l58 -21.5z" />
    <glyph glyph-name="bar" unicode="|" horiz-adv-x="690" 
d="M420 1600v-1990h-150v1990h150z" />
    <glyph glyph-name="braceright" unicode="}" horiz-adv-x="1000" 
d="M160 -270l58.002 21.5068c22 8.33301 43.5 17.166 64.5 26.499s39.5 18.5 55.5 27.5s26.667 17.167 32 24.5c4 6 7.5 19.333 10.5 40s5.33301 46.167 7 76.5s3.16699 64 4.5 101s2.33301 74.667 3 113l2 113c0.666992 37 1.66699 70.333 3 100s2.66602 54.5 3.99902 74.5
s3.33301 32.333 6 37c3.33301 6 9.5 12.833 18.5 20.5s19.167 15.667 30.5 24s23.5 16.833 36.5 25.5l35.5 24.5c10.667 7.66699 19.667 14.5 27 20.5s11.333 11 12 15c-0.666992 3.33301 -4.66699 8.16602 -12 14.499s-16.333 13.333 -27 21l-35.5 24.5
c-13 8.66699 -25.167 17.167 -36.5 25.5s-21.5 16.333 -30.5 24s-15.167 14.5 -18.5 20.5c-2.66699 4.66699 -4.66699 17 -6 37s-2.66602 44.833 -3.99902 74.5s-2.33301 63 -3 100l-2 113c-0.666992 38.333 -1.66699 76 -3 113s-2.83301 70.667 -4.5 101s-4 55.833 -7 76.5
s-6.5 34 -10.5 40c-5.33301 6.66699 -16 14.667 -32 24s-34.5 18.666 -55.5 27.999s-42.5 18.166 -64.5 26.499l-58 21.5l40 140c26 -6.66699 54.667 -14.834 86 -24.501s61.5 -20 90.5 -31s55.167 -22.5 78.5 -34.5s40 -23.667 50 -35c12 -13.333 21.833 -40 29.5 -80
s14 -86.333 19 -139s9 -108.167 12 -166.5s5.66699 -112.5 8 -162.5s4.66602 -92.333 6.99902 -127s5.5 -54.667 9.5 -60c6.66699 -9.33301 20.834 -21.5 42.501 -36.5l67.5 -47.5c23.333 -16.667 44.166 -32.334 62.499 -47.001s27.5 -26 27.5 -34
c0 -5.33301 -4.33301 -12.333 -13 -21s-19.667 -18 -33 -28l-44 -32l-46 -32.5c-14.667 -10.333 -27.834 -20 -39.501 -29s-19.834 -16.5 -24.501 -22.5c-4 -5.33301 -7.16699 -25.333 -9.5 -60s-4.66602 -77 -6.99902 -127s-5 -104.167 -8 -162.5s-7 -113.833 -12 -166.5
s-11.333 -99 -19 -139s-17.5 -66.667 -29.5 -80c-10 -11.333 -26.667 -23 -50 -35s-49.5 -23.5 -78.5 -34.5s-59.167 -21.333 -90.5 -31s-60 -17.834 -86 -24.501z" />
    <glyph glyph-name="asciitilde" unicode="~" horiz-adv-x="1115" 
d="M20 375c0 30.667 4.66699 60.333 14 89s23.166 54.167 41.499 76.5s41.166 40.333 68.499 54s59.333 20.5 96 20.5c55.333 0 107.333 -5.5 156 -16.5s97.167 -23 145.5 -36s97.833 -25 148.5 -36s105.667 -16.5 165 -16.5c20.667 0 38.167 3 52.5 9
s26.333 13.833 36 23.5s16.834 20.5 21.501 32.5s8 23.667 10 35h105c0 -32 -4.83301 -63 -14.5 -93s-24.167 -56.667 -43.5 -80s-43.666 -42 -72.999 -56s-64 -21 -104 -21c-57.333 0 -113 5.5 -167 16.5s-106.167 23 -156.5 36l-145.5 36c-46.667 11 -92 16.5 -136 16.5
c-19.333 0 -36 -2.33301 -50 -7s-25.667 -11.167 -35 -19.5s-16.333 -18 -21 -29s-7.66699 -22.5 -9 -34.5h-105z" />
    <glyph glyph-name="uni00A0" unicode="&#xa0;" horiz-adv-x="550" 
 />
    <glyph glyph-name="exclamdown" unicode="&#xa1;" horiz-adv-x="764" 
d="M227 978c0 18.667 3.5 36.167 10.5 52.5s16.5 30.5 28.5 42.5s26.167 21.5 42.5 28.5s33.833 10.5 52.5 10.5s36.167 -3.5 52.5 -10.5s30.5 -16.5 42.5 -28.5s21.5 -26.167 28.5 -42.5s10.5 -33.833 10.5 -52.5s-3.5 -36.167 -10.5 -52.5s-16.5 -30.5 -28.5 -42.5
s-26.167 -21.5 -42.5 -28.5s-33.833 -10.5 -52.5 -10.5s-36.167 3.5 -52.5 10.5s-30.5 16.5 -42.5 28.5s-21.5 26.167 -28.5 42.5s-10.5 33.833 -10.5 52.5zM443 660l4.00098 -228.501c1.33301 -79.667 3.33301 -163.834 6 -252.501s6.66699 -181.834 12 -279.501
s13 -200.834 23 -309.501h-255c9.33301 108.667 16.666 211.834 21.999 309.501s9.33301 190.834 12 279.501s4.66699 172.834 6 252.501s3 155.834 5 228.501h165z" />
    <glyph glyph-name="cent" unicode="&#xa2;" horiz-adv-x="1200" 
d="M386 549c0 -43.333 5.00195 -83.333 15.002 -120s24.333 -69.334 43 -98.001s41.667 -52.834 69 -72.501s58 -33.834 92 -42.501v678c-32 -9.33301 -61.333 -23.666 -88 -42.999s-49.834 -43.666 -69.501 -72.999s-34.834 -63.166 -45.501 -101.499
s-16 -80.833 -16 -127.5zM735.002 1320l0.00195312 -259.001c54 -3.33301 101 -12.166 141 -26.499s76 -32.166 108 -53.499l-33 -171c-36 26 -71.5 46.667 -106.5 62s-71.5 25.333 -109.5 30v-693c46 5.33301 88.5 17.5 127.5 36.5s76.5 44.167 112.5 75.5l19 -166
c-40 -30 -80.167 -53.333 -120.5 -70s-86.5 -27.334 -138.5 -32.001v-263h-130v263c-56.667 6.66699 -109.334 22.834 -158.001 48.501s-91 59.167 -127 100.5s-64.167 90.5 -84.5 147.5s-30.5 120.5 -30.5 190.5c0 64 9.33301 124.667 28 182s45.167 108.666 79.5 153.999
s76.166 83.5 125.499 114.5s105 52.167 167 63.5v266h130z" />
    <glyph glyph-name="sterling" unicode="&#xa3;" horiz-adv-x="1200" 
d="M765 690l-296.999 0.00195312c3.33301 -41.333 6 -81 8 -119s3 -73.333 3 -106c0 -62.667 -7.5 -118.5 -22.5 -167.5s-41.833 -93.167 -80.5 -132.5h203c49.333 0 96 0.166992 140 0.5s84.667 1 122 2s70.666 2.5 99.999 4.5s54 4.66699 74 8v-180h-870v130
c20 14.667 39 31.334 57 50.001s33.833 39 47.5 61s24.5 45.667 32.5 71s12 52 12 80c0 46.667 -1.5 95.167 -4.5 145.5s-6.5 101.166 -10.5 152.499h-124v145h113c-2.66699 36 -4.66699 70.667 -6 104s-2 65.333 -2 96c0 74.667 9.5 140.167 28.5 196.5
s45.833 103.333 80.5 141s76.167 65.834 124.5 84.501s102.166 28 161.499 28c19.333 0 40.333 -1.66699 63 -5s45 -8 67 -14s43.333 -13.333 64 -22s38.667 -18.334 54 -29.001l-46 -150c-12.667 9.33301 -27.5 17.666 -44.5 24.999s-34.833 13.666 -53.5 18.999
s-37 9.33301 -55 12s-34.333 4 -49 4c-31.333 0 -59.833 -4.5 -85.5 -13.5s-47.667 -23.5 -66 -43.5s-32.666 -45.833 -42.999 -77.5s-15.5 -70.167 -15.5 -115.5c0 -35.333 1 -73.333 3 -114s4.66699 -82.667 8 -126h309v-145z" />
    <glyph glyph-name="currency" unicode="&#xa4;" horiz-adv-x="1200" 
d="M905 877c0 42.667 -7.66406 82.501 -22.9971 119.501s-36.333 69.167 -63 96.5s-58.5 49 -95.5 65s-76.833 24 -119.5 24c-44.667 0 -85.834 -7.66699 -123.501 -23s-70.334 -36.666 -98.001 -63.999s-49.334 -59.833 -65.001 -97.5s-23.5 -78.834 -23.5 -123.501
c0 -44 7.83301 -84.667 23.5 -122s37.5 -69.5 65.5 -96.5s60.833 -48.167 98.5 -63.5s78.5 -23 122.5 -23c43.333 0 83.5 8 120.5 24s68.833 37.833 95.5 65.5s47.5 60.167 62.5 97.5s22.5 77.666 22.5 120.999zM1069 318.001l-211.001 211
c-37.333 -30 -77.166 -52.833 -119.499 -68.5s-87.166 -23.5 -134.499 -23.5c-51.333 0 -98.333 7.66699 -141 23s-83 38.333 -121 69l-211 -211l-94 93l211 211c-28 37.333 -49.167 76.666 -63.5 117.999s-21.5 86 -21.5 134s7.16699 94.5 21.5 139.5
s36.833 85.5 67.5 121.5l-215 215l94 94l215 -215c36.667 27.333 76.834 48.333 120.501 63s89.5 22 137.5 22c47.333 0 91.666 -7.66699 132.999 -23s79.666 -36.666 114.999 -63.999l217 217l94 -94l-213 -213c26 -36 47 -76.333 63 -121s24 -91 24 -139
c0 -95.333 -28.333 -180.333 -85 -255l211 -211z" />
    <glyph glyph-name="yen" unicode="&#xa5;" horiz-adv-x="1200" 
d="M200 770h227l-172 295l-56.5 96l-57.5 95c-20 32 -41.5 64.667 -64.5 98l-76.5 106h230l380 -635l360 635h230l-78 -114.5l-62.5 -97.5l-55 -90l-54.5 -93l-173 -295h231v-145h-313v-105h313v-145h-313c0 -84.667 0.666992 -159.334 2 -224.001s5.66602 -115 12.999 -151
h-220c6.66699 36 10.834 86.333 12.501 151s2.5 139.334 2.5 224.001h-305v145h305v105h-305v145z" />
    <glyph glyph-name="brokenbar" unicode="&#xa6;" horiz-adv-x="1024" 
d="M440 775v825h150v-825h-150zM590 445v-835h-150v835h150z" />
    <glyph glyph-name="section" unicode="&#xa7;" horiz-adv-x="1024" 
d="M700 480c0 18.667 -3.16797 37.499 -9.50098 56.499s-17.166 38.667 -32.499 59s-35.833 42 -61.5 65s-57.5 47.5 -95.5 73.5c-58 -2 -104.333 -17.167 -139 -45.5s-52 -66.166 -52 -113.499c0 -20 3.33301 -40 10 -60s18.167 -40.5 34.5 -61.5s38 -43.167 65 -66.5
s61.167 -48.666 102.5 -75.999c26.667 2.66699 51 9 73 19s40.667 22.5 56 37.5s27.333 32.167 36 51.5s13 39.666 13 60.999zM159.999 -175.001c22.667 -20 48.1699 -38.3262 76.5029 -54.9932s57.5 -31 87.5 -43s60.167 -21.167 90.5 -27.5s58.833 -9.5 85.5 -9.5
c29.333 0 56.166 4.33301 80.499 13s45.333 19.834 63 33.501s31.5 29.167 41.5 46.5s15 34.666 15 51.999c0 32 -7 61.667 -21 89s-34 54.166 -60 80.499s-57.167 52.833 -93.5 79.5l-120.5 86c-45.333 31.333 -85 61.5 -119 90.5s-62.667 59.167 -86 90.5
s-40.833 64.833 -52.5 100.5s-17.5 75.5 -17.5 119.5c0 68.667 17.333 127 52 175s80.667 84.667 138 110c-65.333 50 -113.333 98.333 -144 145s-46 94.667 -46 144c0 40.667 6.66699 81.167 20 121.5s35.333 76.666 66 108.999s70.334 58.666 119.001 78.999
s108.667 30.5 180 30.5c36 0 69.833 -2.33301 101.5 -7s60.667 -10.834 87 -18.501s50.5 -16.334 72.5 -26.001s41.667 -19.167 59 -28.5l-35 -175c-16.667 10 -35.667 20.5 -57 31.5s-44.5 21.167 -69.5 30.5s-51.667 17.166 -80 23.499s-57.833 9.5 -88.5 9.5
c-34 0 -63.333 -4 -88 -12s-45 -18.5 -61 -31.5s-27.667 -27.833 -35 -44.5s-11 -33.334 -11 -50.001c0 -25.333 7 -49.333 21 -72s34 -45.667 60 -69s57.167 -48 93.5 -74l120.5 -87c44.667 -32.667 84.167 -63.334 118.5 -92.001s63.166 -57.667 86.499 -87
s40.833 -59.666 52.5 -90.999s17.5 -65.666 17.5 -102.999c0 -71.333 -17 -134.5 -51 -189.5s-80.333 -97.5 -139 -127.5c65.333 -53.333 113.333 -107.333 144 -162s46 -112.334 46 -173.001c0 -45.333 -10 -88 -30 -128s-47.333 -75 -82 -105
s-75.334 -53.667 -122.001 -71s-97 -26 -151 -26c-40.667 0 -79.834 3 -117.501 9s-73 14.333 -106 25s-63.167 23 -90.5 37s-51 28.667 -71 44z" />
    <glyph glyph-name="dieresis" unicode="&#xa8;" horiz-adv-x="680" 
d="M0 1345c0 18.667 3.33301 36.167 10 52.5s15.834 30.666 27.501 42.999s25.334 22 41.001 29s32.834 10.5 51.501 10.5s36 -3.5 52 -10.5s29.667 -16.667 41 -29s20.333 -26.666 27 -42.999s10 -33.833 10 -52.5s-3.33301 -36.167 -10 -52.5s-15.667 -30.666 -27 -42.999
s-25 -22 -41 -29s-33.333 -10.5 -52 -10.5s-35.834 3.5 -51.501 10.5s-29.334 16.667 -41.001 29s-20.834 26.666 -27.501 42.999s-10 33.833 -10 52.5zM420 1345c0 18.667 3.33301 36.167 10 52.5s15.834 30.666 27.501 42.999s25.334 22 41.001 29
s32.834 10.5 51.501 10.5s36 -3.5 52 -10.5s29.667 -16.667 41 -29s20.333 -26.666 27 -42.999s10 -33.833 10 -52.5s-3.33301 -36.167 -10 -52.5s-15.667 -30.666 -27 -42.999s-25 -22 -41 -29s-33.333 -10.5 -52 -10.5s-35.834 3.5 -51.501 10.5
s-29.334 16.667 -41.001 29s-20.834 26.666 -27.501 42.999s-10 33.833 -10 52.5z" />
    <glyph glyph-name="copyright" unicode="&#xa9;" horiz-adv-x="1515" 
d="M1035 375c-18.667 -17.333 -39.3281 -32.501 -61.9951 -45.501s-46.5 -24 -71.5 -33s-50.5 -15.667 -76.5 -20s-51 -6.5 -75 -6.5c-59.333 0 -113.333 10.833 -162 32.5s-90.167 52.334 -124.5 92.001s-61 87 -80 142s-28.5 116.167 -28.5 183.5
c0 76.667 11.833 144.667 35.5 204s54.667 109 93 149s82 70.333 131 91s99.167 31 150.5 31c46 0 90.167 -6.5 132.5 -19.5s86.5 -36.5 132.5 -70.5l-40 -120c-40 36.667 -77.833 62.5 -113.5 77.5s-72.834 22.5 -111.501 22.5s-75.334 -7.66699 -110.001 -23
s-65 -37.833 -91 -67.5s-46.5 -66.167 -61.5 -109.5s-22.5 -93.333 -22.5 -150c0 -44 6.66699 -87 20 -129s32.166 -79.333 56.499 -112s53.666 -59 87.999 -79s72.833 -30 115.5 -30c46.667 0 91.167 11 133.5 33s81.166 51 116.499 87zM755.006 1485
c58 0 115.834 -7.00293 173.501 -21.0029s112.834 -35.167 165.501 -63.5s101.5 -63.5 146.5 -105.5s84.167 -91 117.5 -147s59.5 -118.833 78.5 -188.5s28.5 -146.167 28.5 -229.5c0 -85.333 -9.5 -163.166 -28.5 -233.499s-45.167 -133.333 -78.5 -189
s-72.5 -104.334 -117.5 -146.001s-93.833 -76.334 -146.5 -104.001s-107.834 -48.334 -165.501 -62.001s-115.5 -20.5 -173.5 -20.5c-60 0 -119 6.83301 -177 20.5s-113 34.334 -165 62.001s-100.167 62.334 -144.5 104.001s-82.666 90.334 -114.999 146.001
s-57.666 118.834 -75.999 189.501s-27.5 148.334 -27.5 233.001c0 83.333 9.16699 159.833 27.5 229.5s43.666 132.5 75.999 188.5s70.666 105 114.999 147s92.5 77.167 144.5 105.5s107.167 49.5 165.5 63.5s117.166 21 176.499 21zM755.007 1365
c-74.667 0 -146.834 -13.667 -216.501 -41s-131.5 -67.666 -185.5 -120.999s-97.167 -119.5 -129.5 -198.5s-48.5 -170.5 -48.5 -274.5s16.167 -195.5 48.5 -274.5s75.5 -145.167 129.5 -198.5s115.833 -93.666 185.5 -120.999s141.834 -41 216.501 -41
s147.167 13.667 217.5 41s132.666 67.666 186.999 120.999s98 119.5 131 198.5s49.5 170.5 49.5 274.5s-16.5 195.5 -49.5 274.5s-76.667 145.167 -131 198.5s-116.666 93.666 -186.999 120.999s-142.833 41 -217.5 41z" />
    <glyph glyph-name="ordfeminine" unicode="&#xaa;" horiz-adv-x="808" 
d="M585 1239c-11.333 2.66699 -28.001 5.50195 -50.001 8.50195s-50.667 4.5 -86 4.5c-46 0 -84.167 -8.5 -114.5 -25.5s-54.666 -39.833 -72.999 -68.5s-31.333 -61.334 -39 -98.001s-11.5 -74.667 -11.5 -114c0 -25.333 2.66699 -48.5 8 -69.5s12.666 -39 21.999 -54
s20 -26.833 32 -35.5s25 -13 39 -13c20.667 0 41.834 8.33301 63.501 25s42.5 38 62.5 64s39 55.167 57 87.5s33.667 64.166 47 95.499s23.833 60.5 31.5 87.5s11.5 48.167 11.5 63.5v42zM605.999 985.002c-14.667 -36.667 -32.3311 -73.999 -52.998 -111.999
s-44.334 -72.5 -71.001 -103.5s-56 -56.333 -88 -76s-66.333 -29.5 -103 -29.5c-29.333 0 -56.666 6.16699 -81.999 18.5s-47.5 30.333 -66.5 54s-34 53 -45 88s-16.5 75.5 -16.5 121.5c0 52 7.5 102.5 22.5 151.5s38 92.667 69 131s70.167 69.166 117.5 92.499
s103.666 35 168.999 35c46 0 91.167 -2.66699 135.5 -8s84.5 -12.333 120.5 -21v-303c0 -82 4.16699 -150.667 12.5 -206s19.166 -101.333 32.499 -138h-122c-5.33301 10 -9.83301 25.5 -13.5 46.5s-7 43.5 -10 67.5s-5.16699 47.5 -6.5 70.5s-2 41.5 -2 55.5v65z
M78.002 600.003h692v-100h-692v100z" />
    <glyph glyph-name="guillemotleft" unicode="&#xab;" horiz-adv-x="1300" 
d="M1000 0l-435 512l435 508h185l-390 -508l390 -512h-185zM510 0l-435 512l435 508h185l-390 -508l390 -512h-185z" />
    <glyph glyph-name="logicalnot" unicode="&#xac;" horiz-adv-x="1200" 
d="M915 340v310h-805v150h955v-460h-150z" />
    <glyph glyph-name="uni00AD" unicode="&#xad;" horiz-adv-x="860" 
d="M80 705h700v-150h-700v150z" />
    <glyph glyph-name="registered" unicode="&#xae;" horiz-adv-x="1615" 
d="M675 767h115c68 0 120 12.667 156 38s54 62 54 110c0 50 -16.5 89.333 -49.5 118s-86.5 43 -160.5 43c-22 0 -42.333 -0.333008 -61 -1s-36.667 -1.66699 -54 -3v-305zM1060 290l-260.998 378h-124v-120c0 -62.667 0.5 -115 1.5 -157s3.83301 -75.667 8.5 -101h-140
c4 25.333 6.33301 59 7 101s1 94.333 1 157v350c0 62.667 -0.333008 117.334 -1 164.001s-3 82.667 -7 108c20 1.33301 43 3 69 5c22 1.33301 48.167 2.5 78.5 3.5s64.5 1.5 102.5 1.5c48 0 92.167 -5 132.5 -15s75.166 -25.5 104.499 -46.5s52.166 -47.5 68.499 -79.5
s24.5 -70 24.5 -114c0 -36.667 -6 -68.834 -18 -96.501s-27.833 -51.5 -47.5 -71.5s-41.667 -36.167 -66 -48.5s-48.833 -21.833 -73.5 -28.5l43 -58.5l56 -75.5l61 -81.5l58 -77l47.5 -62c13.667 -17.667 23.5 -29.5 29.5 -35.5h-155zM855.002 1365
c-74.667 0 -146.834 -13.667 -216.501 -41s-131.5 -67.666 -185.5 -120.999s-97.167 -119.5 -129.5 -198.5s-48.5 -170.5 -48.5 -274.5s16.167 -195.5 48.5 -274.5s75.5 -145.167 129.5 -198.5s115.833 -93.666 185.5 -120.999s141.834 -41 216.501 -41
s147.167 13.667 217.5 41s132.666 67.666 186.999 120.999s98 119.5 131 198.5s49.5 170.5 49.5 274.5s-16.5 195.5 -49.5 274.5s-76.667 145.167 -131 198.5s-116.666 93.666 -186.999 120.999s-142.833 41 -217.5 41zM855.002 1485
c58 0 115.834 -7.00293 173.501 -21.0029s112.834 -35.167 165.501 -63.5s101.5 -63.5 146.5 -105.5s84.167 -91 117.5 -147s59.5 -118.833 78.5 -188.5s28.5 -146.167 28.5 -229.5c0 -85.333 -9.5 -163.166 -28.5 -233.499s-45.167 -133.333 -78.5 -189
s-72.5 -104.334 -117.5 -146.001s-93.833 -76.334 -146.5 -104.001s-107.834 -48.334 -165.501 -62.001s-115.5 -20.5 -173.5 -20.5c-60 0 -119 6.83301 -177 20.5s-113 34.334 -165 62.001s-100.167 62.334 -144.5 104.001s-82.666 90.334 -114.999 146.001
s-57.666 118.834 -75.999 189.501s-27.5 148.334 -27.5 233.001c0 83.333 9.16699 159.833 27.5 229.5s43.666 132.5 75.999 188.5s70.666 105 114.999 147s92.5 77.167 144.5 105.5s107.167 49.5 165.5 63.5s117.166 21 176.499 21z" />
    <glyph glyph-name="macron" unicode="&#xaf;" horiz-adv-x="710" 
d="M0 1390h710v-150h-710v150z" />
    <glyph glyph-name="degree" unicode="&#xb0;" horiz-adv-x="640" 
d="M70 1235c0 34.667 6.5 67.334 19.5 98.001s30.667 57.167 53 79.5s48.666 40 78.999 53s63.166 19.5 98.499 19.5c34.667 0 67.334 -6.5 98.001 -19.5s57.167 -30.667 79.5 -53s40 -48.833 53 -79.5s19.5 -63.334 19.5 -98.001c0 -35.333 -6.5 -68.166 -19.5 -98.499
s-30.667 -56.666 -53 -78.999s-48.833 -40 -79.5 -53s-63.334 -19.5 -98.001 -19.5c-35.333 0 -68.166 6.5 -98.499 19.5s-56.666 30.667 -78.999 53s-40 48.666 -53 78.999s-19.5 63.166 -19.5 98.499zM455 1235c0 18.667 -3.5 36.167 -10.5 52.5
s-16.667 30.666 -29 42.999s-26.666 22 -42.999 29s-33.833 10.5 -52.5 10.5s-36.167 -3.5 -52.5 -10.5s-30.666 -16.667 -42.999 -29s-22 -26.666 -29 -42.999s-10.5 -33.833 -10.5 -52.5s3.5 -36.167 10.5 -52.5s16.667 -30.666 29 -42.999s26.666 -22 42.999 -29
s33.833 -10.5 52.5 -10.5s36.167 3.5 52.5 10.5s30.666 16.667 42.999 29s22 26.666 29 42.999s10.5 33.833 10.5 52.5z" />
    <glyph glyph-name="plusminus" unicode="&#xb1;" horiz-adv-x="1200" 
d="M155 350h890v-150h-890v150zM155 985h370v380h150v-380h370v-150h-370v-365h-150v365h-370v150z" />
    <glyph glyph-name="twosuperior" unicode="&#xb2;" horiz-adv-x="840" 
d="M761 680l-672 0.00585938v110c32 21.333 66 46 102 74s71.833 58 107.5 90s70 65.5 103 100.5s62 70 87 105s45.167 69.5 60.5 103.5s23 66 23 96c0 30.667 -5.66699 56.667 -17 78s-26.333 38.833 -45 52.5s-40 23.5 -64 29.5s-48.333 9 -73 9
c-22 0 -44.333 -2.83301 -67 -8.5s-44.834 -14 -66.501 -25s-42.5 -23.833 -62.5 -38.5s-37.667 -30.667 -53 -48l-31 110c14 18.667 32.167 35.667 54.5 51s47.166 28.666 74.499 39.999s56 20.166 86 26.499s59.667 9.5 89 9.5c42 0 82 -6.33301 120 -19
s71.5 -30.834 100.5 -54.501s52 -52.334 69 -86.001s25.5 -71.5 25.5 -113.5c0 -36 -7.16699 -72.833 -21.5 -110.5s-33.333 -74.834 -57 -111.501s-50.667 -72.334 -81 -107.001s-61.666 -67.5 -93.999 -98.5s-64 -59.833 -95 -86.5l-85.5 -71h179
c34 0 66.5 0.166992 97.5 0.5s59.333 0.833008 85 1.5s48.834 1.66699 69.501 3s38 3 52 5v-117z" />
    <glyph glyph-name="threesuperior" unicode="&#xb3;" horiz-adv-x="840" 
d="M341 1245c35.333 0 68.501 4.66309 99.501 13.9961s58.333 21.333 82 36s42.5 31.5 56.5 50.5s21 38.833 21 59.5c0 22 -5.5 40.833 -16.5 56.5s-25.167 28.834 -42.5 39.501s-36.833 18.334 -58.5 23.001s-43.167 7 -64.5 7c-27.333 0 -52.666 -1.66699 -75.999 -5
s-45.5 -8.83301 -66.5 -16.5s-41.333 -18 -61 -31s-39.167 -28.833 -58.5 -47.5l-25 110c14 14.667 31 28.5 51 41.5s42 24.167 66 33.5s49.833 16.5 77.5 21.5s56.167 7.5 85.5 7.5c43.333 0 84.5 -5.16699 123.5 -15.5s73.167 -25.166 102.5 -44.499
s52.666 -42.833 69.999 -70.5s26 -58.834 26 -93.501c0 -30 -7 -57.5 -21 -82.5s-31.833 -47 -53.5 -66s-45.834 -34.667 -72.501 -47s-52.334 -20.833 -77.001 -25.5c16 -2.66699 33.833 -6.83398 53.5 -12.501s39 -13.167 58 -22.5s37.333 -20.666 55 -33.999
s33.5 -29.166 47.5 -47.499s25 -39 33 -62s12 -49.167 12 -78.5c0 -38 -10.333 -74 -31 -108s-48.5 -63.667 -83.5 -89s-75.667 -45.333 -122 -60s-94.5 -22 -144.5 -22c-62.667 0 -120 9.83301 -172 29.5s-96.333 45.5 -133 77.5l18 140c18.667 -20 39 -38.333 61 -55
s45.5 -30.834 70.5 -42.501s51.5 -20.667 79.5 -27s58 -9.5 90 -9.5c26 0 52.833 3.83301 80.5 11.5s52.5 18.834 74.5 33.501s40.167 33.167 54.5 55.5s21.5 48.5 21.5 78.5c0 26.667 -7.5 51 -22.5 73s-35.5 40.833 -61.5 56.5s-56.667 27.834 -92 36.501
s-73.666 13 -114.999 13h-49v110h49z" />
    <glyph glyph-name="acute" unicode="&#xb4;" horiz-adv-x="580" 
d="M580 1600l-420 -430h-160l350 430h230z" />
    <glyph glyph-name="mu" unicode="&#xb5;" horiz-adv-x="1185" 
d="M920 0c-4.66699 11.333 -9.66895 24.666 -15.002 39.999s-10.5 31.666 -15.5 48.999s-9.66699 35.5 -14 54.5s-7.83301 37.833 -10.5 56.5c-16 -25.333 -35.5 -51.166 -58.5 -77.499s-48.5 -50.5 -76.5 -72.5s-57.833 -40 -89.5 -54s-63.5 -21 -95.5 -21
c-23.333 0 -45.333 3 -66 9s-39.667 13.833 -57 23.5s-33 20.834 -47 33.501s-25.667 25.667 -35 39v-230c0 -40 0.5 -76.167 1.5 -108.5s2.5 -62.166 4.5 -89.499s4.66699 -52.5 8 -75.5s7 -45.167 11 -66.5h-210v1190c0 32 -0.166992 61 -0.5 87
s-1.16602 51.167 -2.49902 75.5s-3.33301 49.166 -6 74.499s-6.33398 53 -11.001 83h205v-555c0 -56.667 6.5 -105.5 19.5 -146.5s30 -74.667 51 -101s44.833 -45.833 71.5 -58.5s54 -19 82 -19c24.667 0 51 8.66699 79 26s54.833 39.666 80.5 66.999
s48.834 57.5 69.501 90.5s36.334 65.167 47.001 96.5v280c0 32.667 -0.166992 62.167 -0.5 88.5s-1.16602 51.5 -2.49902 75.5s-3.33301 48.333 -6 73s-6.33398 52.334 -11.001 83.001h205v-570c0 -97.333 5.5 -182.5 16.5 -255.5s27.167 -137.833 48.5 -194.5h-170z" />
    <glyph glyph-name="paragraph" unicode="&#xb6;" horiz-adv-x="1025" 
d="M850 1345v-1345.01h-135v1345h-160v-1345h-135v765c-22.667 0 -47.667 2.33301 -75 7s-54.666 12.5 -81.999 23.5s-53.833 25.333 -79.5 43s-48.334 39.334 -68.001 65.001s-35.5 55.834 -47.5 90.501s-18 74.334 -18 119.001s6 84.334 18 119.001s28 64.834 48 90.501
s43.167 47.334 69.5 65.001s54 31.834 83 42.501s58.333 18.334 88 23.001s57.5 7 83.5 7h525v-115h-115z" />
    <glyph glyph-name="periodcentered" unicode="&#xb7;" horiz-adv-x="679" 
d="M205 709c0 18.667 3.5 36.167 10.5 52.5s16.5 30.5 28.5 42.5s26.167 21.5 42.5 28.5s33.833 10.5 52.5 10.5s36.167 -3.5 52.5 -10.5s30.5 -16.5 42.5 -28.5s21.5 -26.167 28.5 -42.5s10.5 -33.833 10.5 -52.5s-3.5 -36.167 -10.5 -52.5s-16.5 -30.5 -28.5 -42.5
s-26.167 -21.5 -42.5 -28.5s-33.833 -10.5 -52.5 -10.5s-36.167 3.5 -52.5 10.5s-30.5 16.5 -42.5 28.5s-21.5 26.167 -28.5 42.5s-10.5 33.833 -10.5 52.5z" />
    <glyph glyph-name="cedilla" unicode="&#xb8;" horiz-adv-x="390" 
d="M185 50l-0.000976562 -145c6.66699 1.33301 13.5 2.5 20.5 3.5s16.167 1.5 27.5 1.5c22.667 0 43.667 -4.16699 63 -12.5s36 -20 50 -35s24.833 -33 32.5 -54s11.5 -43.833 11.5 -68.5c0 -34 -7.66699 -64.667 -23 -92s-35.333 -50.5 -60 -69.5s-52 -33.5 -82 -43.5
s-60 -15 -90 -15c-26 0 -49.833 3.83301 -71.5 11.5s-42.834 17.167 -63.501 28.5l10 100c14.667 -10.667 29.667 -18.334 45 -23.001s33.666 -7 54.999 -7c14.667 0 29.834 1.66699 45.501 5s30 9 43 17s23.833 18.333 32.5 31s13.334 28.334 14.001 47.001
c-0.666992 26 -10.167 47.5 -28.5 64.5s-41.166 25.5 -68.499 25.5c-16 0 -32 -2.5 -48 -7.5s-29.333 -10.833 -40 -17.5v255h125z" />
    <glyph glyph-name="onesuperior" unicode="&#xb9;" horiz-adv-x="840" 
d="M357 1499l-210 -112l-18 117l242 138h119v-852h220v-110h-574v110h221v709z" />
    <glyph glyph-name="ordmasculine" unicode="&#xba;" horiz-adv-x="798" 
d="M71 600h665v-100h-665v100zM201 1008c0 -38 5 -71.833 15 -101.5s23.833 -54.667 41.5 -75s39 -36 64 -47s52.5 -16.5 82.5 -16.5c28 0 54.333 5.5 79 16.5s46.167 26.667 64.5 47s32.833 45.333 43.5 75s16 63.5 16 101.5s-5 72 -15 102s-23.833 55.5 -41.5 76.5
s-39 37.167 -64 48.5s-52.5 17 -82.5 17c-28 0 -54.333 -5.66699 -79 -17s-46.167 -27.5 -64.5 -48.5s-32.833 -46.5 -43.5 -76.5s-16 -64 -16 -102zM71 1008c0 56 9 105.667 27 149s42.5 79.666 73.5 108.999s67.167 51.666 108.5 66.999s85 23 131 23
c48 0 92 -7.66699 132 -23s74.167 -37.666 102.5 -66.999s50.5 -65.666 66.5 -108.999s24 -93 24 -149s-9 -105.333 -27 -148s-42.5 -78.5 -73.5 -107.5s-67 -51 -108 -66s-84.5 -22.5 -130.5 -22.5c-48 0 -92 7.5 -132 22.5s-74.333 37 -103 66s-51 64.833 -67 107.5
s-24 92 -24 148z" />
    <glyph glyph-name="guillemotright" unicode="&#xbb;" horiz-adv-x="1300" 
d="M115 0l390 512l-390 508h185l435 -508l-438 -512h-182zM605 0l390 512l-390 508h185l435 -508l-438 -512h-182z" />
    <glyph glyph-name="onequarter" unicode="&#xbc;" horiz-adv-x="1600" 
d="M1000 365h255v355zM300 1470l-175 -105l-20 110l210 125h115v-785h180v-105h-495v105h185v655zM1442 1600l-1082 -1650h-130l1081 1650h131zM1385 260v-260h-130v260h-390v105l390 525h130v-525h135v-105h-135z" />
    <glyph glyph-name="onehalf" unicode="&#xbd;" horiz-adv-x="1600" 
d="M1550 0l-574.998 -0.00195312v110c27.333 19.333 56.166 41.833 86.499 67.5s60.5 53.167 90.5 82.5s58.833 59.833 86.5 91.5s52 63.5 73 95.5s37.667 63.5 50 94.5s18.5 60.5 18.5 88.5s-4.33301 51.333 -13 70s-20.334 33.5 -35.001 44.5s-31.667 18.833 -51 23.5
s-39.666 7 -60.999 7c-18.667 0 -37.834 -2.66699 -57.501 -8s-39 -12.833 -58 -22.5s-37 -21.334 -54 -35.001s-32.167 -28.5 -45.5 -44.5l-30 110c12 16.667 27.833 32.334 47.5 47.001s41.334 27.334 65.001 38.001s48.5 19.167 74.5 25.5s51.667 9.5 77 9.5
c36 0 70.333 -6 103 -18s61.5 -29.167 86.5 -51.5s44.833 -49.166 59.5 -80.499s22 -66.333 22 -105c0 -34 -6 -68.333 -18 -103s-27.833 -69 -47.5 -103s-42.334 -67 -68.001 -99s-52 -62.167 -79 -90.5s-53.667 -54.5 -80 -78.5s-50.5 -44.333 -72.5 -61h145
c59.333 0 111.5 0.666992 156.5 2s79.5 4 103.5 8v-115zM265.002 1470l-175 -105l-20 110l210 125h115v-785h180v-105h-495v105h185v655zM1407 1600l-1072 -1650h-130l1071 1650h131z" />
    <glyph glyph-name="threequarters" unicode="&#xbe;" horiz-adv-x="1600" 
d="M1380 260v-260h-130v260h-390v105l390 525h130v-525h135v-105h-135zM1432 1600l-1072 -1650h-130l1071 1650h131zM140 915c28 -31.333 62.5 -56.665 103.5 -75.998s83.167 -29 126.5 -29c25.333 0 49 3.16699 71 9.5s41 16.166 57 29.499s28.667 30.333 38 51
s14 45.667 14 75c0 49.333 -18.833 88.333 -56.5 117s-92.167 43 -163.5 43h-45v110h45c30 0 57 3.5 81 10.5s44.5 16.667 61.5 29s30 26.666 39 42.999s13.5 33.833 13.5 52.5c0 20 -3.66699 37 -11 51s-17.333 25.333 -30 34s-27.5 15 -44.5 19s-35.167 6 -54.5 6
c-16 0 -31.333 -1 -46 -3s-29.667 -5.5 -45 -10.5s-31.5 -12 -48.5 -21s-35.5 -20.833 -55.5 -35.5l-25 105c35.333 26.667 71.5 46.667 108.5 60s77.5 20 121.5 20c37.333 0 71.333 -5.5 102 -16.5s57 -26.167 79 -45.5s39 -42.5 51 -69.5s18 -56.5 18 -88.5
c0 -24.667 -4.83301 -47.667 -14.5 -69s-22.5 -40.166 -38.5 -56.499s-34.333 -29.833 -55 -40.5c-19.333 -10 -39.666 -16.333 -60.999 -19c21.333 -2.66699 43.333 -9.33398 66 -20.001c23.333 -10.667 44.833 -25.667 64.5 -45s36 -43.333 49 -72
s19.5 -61.334 19.5 -98.001c0 -35.333 -7.5 -69.166 -22.5 -101.499s-35.833 -61 -62.5 -86s-58.334 -45 -95.001 -60s-76.667 -22.5 -120 -22.5c-25.333 0 -49.833 2.33301 -73.5 7s-46.167 11 -67.5 19s-41.333 17.5 -60 28.5s-35 22.833 -49 35.5zM995 365.001h255v355z
" />
    <glyph glyph-name="questiondown" unicode="&#xbf;" horiz-adv-x="1050" 
d="M662 979c0 -18.667 -3.5 -36.167 -10.5 -52.5s-16.5 -30.5 -28.5 -42.5s-26.167 -21.5 -42.5 -28.5s-33.833 -10.5 -52.5 -10.5s-36.167 3.5 -52.5 10.5s-30.5 16.5 -42.5 28.5s-21.5 26.167 -28.5 42.5s-10.5 33.833 -10.5 52.5s3.5 36.167 10.5 52.5
s16.5 30.5 28.5 42.5s26.167 21.5 42.5 28.5s33.833 10.5 52.5 10.5s36.167 -3.5 52.5 -10.5s30.5 -16.5 42.5 -28.5s21.5 -26.167 28.5 -42.5s10.5 -33.833 10.5 -52.5zM830 -300c-16.667 -16 -36.8271 -30.666 -60.4941 -43.999s-49.5 -24.833 -77.5 -34.5
s-57.5 -17.334 -88.5 -23.001s-62.167 -8.5 -93.5 -8.5c-53.333 0 -102.5 6.16699 -147.5 18.5s-84 31 -117 56s-58.833 56.167 -77.5 93.5s-28 81.333 -28 132c0 26 2.66699 49.833 8 71.5s14.166 43.834 26.499 66.501s28.5 47 48.5 73s44.333 55.667 73 89
c20 23.333 37.5 44.833 52.5 64.5s27.667 39.5 38 59.5s18.666 41.167 24.999 63.5s11.166 48 14.499 77s5.66602 62.667 6.99902 101s2 83.166 2 134.499h175c0 -82 -1.5 -151 -4.5 -207s-8.83301 -103.833 -17.5 -143.5s-21.334 -74 -38.001 -103
s-38.334 -57.833 -65.001 -86.5c-32 -34 -57.167 -63.333 -75.5 -88s-32.333 -46.5 -42 -65.5s-15.834 -36.167 -18.501 -51.5s-4 -30.333 -4 -45s3.16699 -30 9.5 -46s17 -30.5 32 -43.5s34.833 -23.833 59.5 -32.5s55.334 -13 92.001 -13c40 0 81.667 9 125 27
s84 47 122 87z" />
    <glyph glyph-name="Agrave" unicode="&#xc0;" horiz-adv-x="1395" 
d="M685 1265l-252 -725h507zM40 0l27 63l30.5 74.5l36.5 94.5l46 123l400 1105h215l400 -1105l45 -123l37 -94.5l31 -74.5l27 -63h-205l-136 385h-615l-134 -385h-205zM527 2030l350 -430h-160l-420 430h230z" />
    <glyph glyph-name="Aacute" unicode="&#xc1;" horiz-adv-x="1395" 
d="M685 1265l-252 -725h507zM40 0l27 63l30.5 74.5l36.5 94.5l46 123l400 1105h215l400 -1105l45 -123l37 -94.5l31 -74.5l27 -63h-205l-136 385h-615l-134 -385h-205zM1087 2030l-420 -430h-160l350 430h230z" />
    <glyph glyph-name="Acircumflex" unicode="&#xc2;" horiz-adv-x="1395" 
d="M685 1265l-252 -725h507zM40 0l27 63l30.5 74.5l36.5 94.5l46 123l400 1105h215l400 -1105l45 -123l37 -94.5l31 -74.5l27 -63h-205l-136 385h-615l-134 -385h-205zM262 1600l340 430h170l340 -430h-150l-275 280l-275 -280h-150z" />
    <glyph glyph-name="Atilde" unicode="&#xc3;" horiz-adv-x="1395" 
d="M685 1265l-252 -725h507zM40 0l27 63l30.5 74.5l36.5 94.5l46 123l400 1105h215l400 -1105l45 -123l37 -94.5l31 -74.5l27 -63h-205l-136 385h-615l-134 -385h-205zM337 1635c0 30.667 4.50293 60.8311 13.5029 90.498s21.667 56.334 38 80.001s36.333 42.834 60 57.501
s50.5 22 80.5 22c14 0 27.667 -1.33301 41 -4s26.833 -6.5 40.5 -11.5s28 -10.667 43 -17s31.167 -12.833 48.5 -19.5l48.5 -20c14.333 -6 27.666 -11 39.999 -15s23.833 -7.16699 34.5 -9.5s21.334 -3.5 32.001 -3.5c23.333 0 42.5 8.33301 57.5 25s24.167 36.667 27.5 60
h105c0 -32 -4.5 -63 -13.5 -93s-22 -56.667 -39 -80s-37.833 -42 -62.5 -56s-52.334 -21 -83.001 -21c-26.667 0 -53.5 4.5 -80.5 13.5s-55.833 20.5 -86.5 34.5c-38.667 18 -69.5 31.167 -92.5 39.5s-43.833 12.5 -62.5 12.5c-24.667 0 -44.334 -8 -59.001 -24
s-23.334 -36.333 -26.001 -61h-105z" />
    <glyph glyph-name="Adieresis" unicode="&#xc4;" horiz-adv-x="1395" 
d="M685 1265l-252 -725h507zM40 0l27 63l30.5 74.5l36.5 94.5l46 123l400 1105h215l400 -1105l45 -123l37 -94.5l31 -74.5l27 -63h-205l-136 385h-615l-134 -385h-205zM347 1775c0 18.667 3.33301 36.167 10 52.5s15.834 30.666 27.501 42.999s25.334 22 41.001 29
s32.834 10.5 51.501 10.5s36 -3.5 52 -10.5s29.667 -16.667 41 -29s20.333 -26.666 27 -42.999s10 -33.833 10 -52.5s-3.33301 -36.167 -10 -52.5s-15.667 -30.666 -27 -42.999s-25 -22 -41 -29s-33.333 -10.5 -52 -10.5s-35.834 3.5 -51.501 10.5
s-29.334 16.667 -41.001 29s-20.834 26.666 -27.501 42.999s-10 33.833 -10 52.5zM767 1775c0 18.667 3.33301 36.167 10 52.5s15.834 30.666 27.501 42.999s25.334 22 41.001 29s32.834 10.5 51.501 10.5s36 -3.5 52 -10.5s29.667 -16.667 41 -29
s20.333 -26.666 27 -42.999s10 -33.833 10 -52.5s-3.33301 -36.167 -10 -52.5s-15.667 -30.666 -27 -42.999s-25 -22 -41 -29s-33.333 -10.5 -52 -10.5s-35.834 3.5 -51.501 10.5s-29.334 16.667 -41.001 29s-20.834 26.666 -27.501 42.999s-10 33.833 -10 52.5z" />
    <glyph glyph-name="Aring" unicode="&#xc5;" horiz-adv-x="1395" 
d="M685 1265l-252 -725h507zM40 0l27 63l30.5 74.5l36.5 94.5l46 123l400 1105h215l400 -1105l45 -123l37 -94.5l31 -74.5l27 -63h-205l-136 385h-615l-134 -385h-205zM474 1815c0 30 5.5 58 16.5 84s26.333 48.833 46 68.5s42.5 35 68.5 46s54 16.5 84 16.5
s58 -5.5 84 -16.5s48.833 -26.333 68.5 -46s35 -42.5 46 -68.5s16.5 -54 16.5 -84s-5.5 -58 -16.5 -84s-26.333 -48.833 -46 -68.5s-42.5 -35 -68.5 -46s-54 -16.5 -84 -16.5s-58 5.5 -84 16.5s-48.833 26.333 -68.5 46s-35 42.5 -46 68.5s-16.5 54 -16.5 84zM789 1815
c0 30 -9.16699 54.167 -27.5 72.5s-42.5 27.5 -72.5 27.5s-54.167 -9.16699 -72.5 -27.5s-27.5 -42.5 -27.5 -72.5s9.16699 -54.167 27.5 -72.5s42.5 -27.5 72.5 -27.5s54.167 9.16699 72.5 27.5s27.5 42.5 27.5 72.5z" />
    <glyph glyph-name="AE" unicode="&#xc6;" horiz-adv-x="1805" 
d="M1110 685v-519.999h164c99.333 0 182.666 0.666992 249.999 2s121 5.66602 161 12.999v-180h-780c2 11.333 3.83301 25.5 5.5 42.5s3 39.833 4 68.5s1.83301 65 2.5 109s1.33398 99 2.00098 165h-449l-190 -385h-200l62 104.5l53.5 97l49.5 96l50 101.5l515 1061h845
v-165h-545v-450h470v-160h-470zM547 540.001h372c0.666992 90 1 196.333 1 319v436z" />
    <glyph glyph-name="Ccedilla" unicode="&#xc7;" horiz-adv-x="1355" 
d="M1230 140c-29.333 -27.333 -63.666 -51.1689 -102.999 -71.502s-80.5 -37.5 -123.5 -51.5s-86.5 -24.333 -130.5 -31c-25.333 -4 -49.666 -7 -72.999 -9v-72c6.66699 1.33301 13.5 2.5 20.5 3.5s16.167 1.5 27.5 1.5c22.667 0 43.667 -4.16699 63 -12.5s36 -20 50 -35
s24.833 -33 32.5 -54s11.5 -43.833 11.5 -68.5c0 -34 -7.66699 -64.667 -23 -92s-35.333 -50.5 -60 -69.5s-52 -33.5 -82 -43.5s-60 -15 -90 -15c-26 0 -49.833 3.83301 -71.5 11.5s-42.834 17.167 -63.501 28.5l10 100c14.667 -10.667 29.667 -18.334 45 -23.001
s33.666 -7 54.999 -7c14.667 0 29.834 1.66699 45.501 5s30 9 43 17s23.833 18.333 32.5 31s13.334 28.334 14.001 47.001c-0.666992 26 -10.167 47.5 -28.5 64.5s-41.166 25.5 -68.499 25.5c-16 0 -32 -2.5 -48 -7.5s-29.333 -10.833 -40 -17.5v183
c-72 6.66699 -138 22.667 -198 48c-80.667 34.667 -149.334 83.834 -206.001 147.501s-100.167 140.834 -130.5 231.501s-45.5 192.334 -45.5 305.001c0 128.667 18.667 241.5 56 338.5s87.166 177.833 149.499 242.5s134.166 113.167 215.499 145.5s166 48.5 254 48.5
c36 0 72.667 -2.33301 110 -7s74.833 -12.334 112.5 -23.001s75.167 -25 112.5 -43s74 -40.333 110 -67l-60 -180c-31.333 28 -63.333 51.667 -96 71s-65.334 34.833 -98.001 46.5s-65.167 20 -97.5 25s-63.5 7.5 -93.5 7.5c-70 0 -134.333 -12.167 -193 -36.5
s-109.167 -60.833 -151.5 -109.5s-75.5 -109.167 -99.5 -181.5s-36 -156.5 -36 -252.5c0 -90 11.833 -171 35.5 -243s56.334 -133.333 98.001 -184s91.167 -89.667 148.5 -117s120 -41 188 -41c38 0 76.5 4.33301 115.5 13s77.167 21.167 114.5 37.5s73 35.833 107 58.5
s65 48 93 76z" />
    <glyph glyph-name="Egrave" unicode="&#xc8;" horiz-adv-x="1160" 
d="M935 845l0.000976562 -160.001h-570v-520h264c99.333 0 182.666 0.666992 249.999 2s121 5.66602 161 12.999v-180h-880c7.33301 40 11.666 97.833 12.999 173.5s2 162.834 2 261.501v590c0 98.667 -0.666992 185.834 -2 261.501s-5.66602 133.5 -12.999 173.5h850v-165
h-645v-450h570zM440.001 2030l350 -430h-160l-420 430h230z" />
    <glyph glyph-name="Eacute" unicode="&#xc9;" horiz-adv-x="1160" 
d="M935 845l0.000976562 -160.001h-570v-520h264c99.333 0 182.666 0.666992 249.999 2s121 5.66602 161 12.999v-180h-880c7.33301 40 11.666 97.833 12.999 173.5s2 162.834 2 261.501v590c0 98.667 -0.666992 185.834 -2 261.501s-5.66602 133.5 -12.999 173.5h850v-165
h-645v-450h570zM1000 2030l-420 -430h-160l350 430h230z" />
    <glyph glyph-name="Ecircumflex" unicode="&#xca;" horiz-adv-x="1160" 
d="M935 845l0.000976562 -160.001h-570v-520h264c99.333 0 182.666 0.666992 249.999 2s121 5.66602 161 12.999v-180h-880c7.33301 40 11.666 97.833 12.999 173.5s2 162.834 2 261.501v590c0 98.667 -0.666992 185.834 -2 261.501s-5.66602 133.5 -12.999 173.5h850v-165
h-645v-450h570zM175.001 1600l340 430h170l340 -430h-150l-275 280l-275 -280h-150z" />
    <glyph glyph-name="Edieresis" unicode="&#xcb;" horiz-adv-x="1160" 
d="M935 845l0.000976562 -160.001h-570v-520h264c99.333 0 182.666 0.666992 249.999 2s121 5.66602 161 12.999v-180h-880c7.33301 40 11.666 97.833 12.999 173.5s2 162.834 2 261.501v590c0 98.667 -0.666992 185.834 -2 261.501s-5.66602 133.5 -12.999 173.5h850v-165
h-645v-450h570zM260.001 1775c0 18.667 3.33301 36.167 10 52.5s15.834 30.666 27.501 42.999s25.334 22 41.001 29s32.834 10.5 51.501 10.5s36 -3.5 52 -10.5s29.667 -16.667 41 -29s20.333 -26.666 27 -42.999s10 -33.833 10 -52.5s-3.33301 -36.167 -10 -52.5
s-15.667 -30.666 -27 -42.999s-25 -22 -41 -29s-33.333 -10.5 -52 -10.5s-35.834 3.5 -51.501 10.5s-29.334 16.667 -41.001 29s-20.834 26.666 -27.501 42.999s-10 33.833 -10 52.5zM680.001 1775c0 18.667 3.33301 36.167 10 52.5s15.834 30.666 27.501 42.999
s25.334 22 41.001 29s32.834 10.5 51.501 10.5s36 -3.5 52 -10.5s29.667 -16.667 41 -29s20.333 -26.666 27 -42.999s10 -33.833 10 -52.5s-3.33301 -36.167 -10 -52.5s-15.667 -30.666 -27 -42.999s-25 -22 -41 -29s-33.333 -10.5 -52 -10.5s-35.834 3.5 -51.501 10.5
s-29.334 16.667 -41.001 29s-20.834 26.666 -27.501 42.999s-10 33.833 -10 52.5z" />
    <glyph glyph-name="Igrave" unicode="&#xcc;" horiz-adv-x="975" 
d="M815 1460v-145h-245v-1170h245v-145h-675v145h240v1170h-240v145h675zM317 2030l350 -430h-160l-420 430h230z" />
    <glyph glyph-name="Iacute" unicode="&#xcd;" horiz-adv-x="975" 
d="M815 1460v-145h-245v-1170h245v-145h-675v145h240v1170h-240v145h675zM877 2030l-420 -430h-160l350 430h230z" />
    <glyph glyph-name="Icircumflex" unicode="&#xce;" horiz-adv-x="975" 
d="M815 1460v-145h-245v-1170h245v-145h-675v145h240v1170h-240v145h675zM52 1600l340 430h170l340 -430h-150l-275 280l-275 -280h-150z" />
    <glyph glyph-name="Idieresis" unicode="&#xcf;" horiz-adv-x="975" 
d="M815 1460v-145h-245v-1170h245v-145h-675v145h240v1170h-240v145h675zM137 1775c0 18.667 3.33301 36.167 10 52.5s15.834 30.666 27.501 42.999s25.334 22 41.001 29s32.834 10.5 51.501 10.5s36 -3.5 52 -10.5s29.667 -16.667 41 -29s20.333 -26.666 27 -42.999
s10 -33.833 10 -52.5s-3.33301 -36.167 -10 -52.5s-15.667 -30.666 -27 -42.999s-25 -22 -41 -29s-33.333 -10.5 -52 -10.5s-35.834 3.5 -51.501 10.5s-29.334 16.667 -41.001 29s-20.834 26.666 -27.501 42.999s-10 33.833 -10 52.5zM557 1775
c0 18.667 3.33301 36.167 10 52.5s15.834 30.666 27.501 42.999s25.334 22 41.001 29s32.834 10.5 51.501 10.5s36 -3.5 52 -10.5s29.667 -16.667 41 -29s20.333 -26.666 27 -42.999s10 -33.833 10 -52.5s-3.33301 -36.167 -10 -52.5s-15.667 -30.666 -27 -42.999
s-25 -22 -41 -29s-33.333 -10.5 -52 -10.5s-35.834 3.5 -51.501 10.5s-29.334 16.667 -41.001 29s-20.834 26.666 -27.501 42.999s-10 33.833 -10 52.5z" />
    <glyph glyph-name="Eth" unicode="&#xd0;" horiz-adv-x="1435" 
d="M175 835l0.000976562 308c0 46.667 -0.5 90.167 -1.5 130.5s-2.5 76.5 -4.5 108.5s-5 58 -9 78l53.5 2.5c21.667 1 45.667 1.83301 72 2.5s54 1.33398 83 2.00098s58 1.16699 87 1.5l84.5 1c27.333 0.333008 52.333 0.5 75 0.5c26.667 0 57.167 -1.5 91.5 -4.5
s70.333 -8.83301 108 -17.5s76.334 -20.834 116.001 -36.501s78 -36.167 115 -61.5s71.833 -56 104.5 -92s61.167 -78.667 85.5 -128s43.666 -106.166 57.999 -170.499s21.5 -137.5 21.5 -219.5c0 -99.333 -11 -186.833 -33 -262.5s-51.5 -141.167 -88.5 -196.5
s-79.833 -101.666 -128.5 -138.999s-99.667 -67.333 -153 -90s-107.333 -38.667 -162 -48s-106.334 -14 -155.001 -14c-16 0 -34.5 0.166992 -55.5 0.5s-43.167 0.666016 -66.5 0.999023s-47.333 0.833008 -72 1.5l-72 2c-54.667 1.33301 -111 3 -169 5c4 20 7 45.667 9 77
s3.5 66.666 4.5 105.999s1.5 82 1.5 128v379h-175v145h175zM365.001 835l380 -0.00292969v-145h-380v-525c23.333 -2 53.833 -4.16699 91.5 -6.5s80.5 -3.5 128.5 -3.5c44.667 0 88.834 4.33301 132.501 13s85.334 22.5 125.001 41.5s76.5 43.5 110.5 73.5
s63.333 65.833 88 107.5s44 89.834 58 144.501s21 116.334 21 185.001c0 112 -14.167 205.667 -42.5 281s-66.5 135.833 -114.5 181.5s-104.167 78.334 -168.5 98.001s-132.5 29.5 -204.5 29.5c-16.667 0 -35.334 -0.166992 -56.001 -0.5s-41.5 -0.833008 -62.5 -1.5
s-40.833 -1.16699 -59.5 -1.5s-34.334 -0.833008 -47.001 -1.5v-470z" />
    <glyph glyph-name="Ntilde" unicode="&#xd1;" horiz-adv-x="1500" 
d="M340 1152v-1152h-180c7.33301 40 11.666 97.833 12.999 173.5s2 162.834 2 261.501v590c0 98.667 -0.666992 185.834 -2 261.501s-5.66602 133.5 -12.999 173.5h180l795 -1157v1157h180c-3.33301 -20 -6 -44.667 -8 -74s-3.5 -62.5 -4.5 -99.5s-1.66699 -77.5 -2 -121.5
s-0.5 -90.667 -0.5 -140v-1025h-165zM387 1635c0 30.667 4.50293 60.8311 13.5029 90.498s21.667 56.334 38 80.001s36.333 42.834 60 57.501s50.5 22 80.5 22c14 0 27.667 -1.33301 41 -4s26.833 -6.5 40.5 -11.5s28 -10.667 43 -17s31.167 -12.833 48.5 -19.5l48.5 -20
c14.333 -6 27.666 -11 39.999 -15s23.833 -7.16699 34.5 -9.5s21.334 -3.5 32.001 -3.5c23.333 0 42.5 8.33301 57.5 25s24.167 36.667 27.5 60h105c0 -32 -4.5 -63 -13.5 -93s-22 -56.667 -39 -80s-37.833 -42 -62.5 -56s-52.334 -21 -83.001 -21
c-26.667 0 -53.5 4.5 -80.5 13.5s-55.833 20.5 -86.5 34.5c-38.667 18 -69.5 31.167 -92.5 39.5s-43.833 12.5 -62.5 12.5c-24.667 0 -44.334 -8 -59.001 -24s-23.334 -36.333 -26.001 -61h-105z" />
    <glyph glyph-name="Ograve" unicode="&#xd2;" horiz-adv-x="1460" 
d="M1340 740c0 -120 -17.833 -227.332 -53.5 -321.999s-83 -174.834 -142 -240.501s-126.167 -115.834 -201.5 -150.501s-153 -52 -233 -52c-80.667 0 -158 16.333 -232 49s-139.333 80.667 -196 144s-102 141.166 -136 233.499s-51 198.5 -51 318.5
c0 80 8.16699 154.333 24.5 223s39 131.334 68 188.001s63.5 107 103.5 151s83.5 81 130.5 111s96.667 52.833 149 68.5s105.5 23.5 159.5 23.5c79.333 0 155.833 -16.333 229.5 -49s138.667 -80.667 195 -144s101.333 -141.166 135 -233.499s50.5 -198.5 50.5 -318.5z
M1145 715.001c0 92 -10.1709 174.835 -30.5039 248.502s-49.166 136.167 -86.499 187.5s-82.166 90.666 -134.499 117.999s-110.166 41 -173.499 41s-121.333 -13.167 -174 -39.5s-98 -64 -136 -113s-67.5 -108.333 -88.5 -178s-31.5 -147.834 -31.5 -234.501
c0 -91.333 10.167 -173.666 30.5 -246.999s49.333 -135.833 87 -187.5s82.834 -91.334 135.501 -119.001s111.667 -41.5 177 -41.5c61.333 0 118 12.833 170 38.5s96.833 62.667 134.5 111s67.167 107.5 88.5 177.5s32 149.333 32 238zM556.996 2030l350 -430h-160l-420 430
h230z" />
    <glyph glyph-name="Oacute" unicode="&#xd3;" horiz-adv-x="1460" 
d="M1340 740c0 -120 -17.833 -227.332 -53.5 -321.999s-83 -174.834 -142 -240.501s-126.167 -115.834 -201.5 -150.501s-153 -52 -233 -52c-80.667 0 -158 16.333 -232 49s-139.333 80.667 -196 144s-102 141.166 -136 233.499s-51 198.5 -51 318.5
c0 80 8.16699 154.333 24.5 223s39 131.334 68 188.001s63.5 107 103.5 151s83.5 81 130.5 111s96.667 52.833 149 68.5s105.5 23.5 159.5 23.5c79.333 0 155.833 -16.333 229.5 -49s138.667 -80.667 195 -144s101.333 -141.166 135 -233.499s50.5 -198.5 50.5 -318.5z
M1145 715.001c0 92 -10.1709 174.835 -30.5039 248.502s-49.166 136.167 -86.499 187.5s-82.166 90.666 -134.499 117.999s-110.166 41 -173.499 41s-121.333 -13.167 -174 -39.5s-98 -64 -136 -113s-67.5 -108.333 -88.5 -178s-31.5 -147.834 -31.5 -234.501
c0 -91.333 10.167 -173.666 30.5 -246.999s49.333 -135.833 87 -187.5s82.834 -91.334 135.501 -119.001s111.667 -41.5 177 -41.5c61.333 0 118 12.833 170 38.5s96.833 62.667 134.5 111s67.167 107.5 88.5 177.5s32 149.333 32 238zM1117 2030l-420 -430h-160l350 430
h230z" />
    <glyph glyph-name="Ocircumflex" unicode="&#xd4;" horiz-adv-x="1460" 
d="M1340 740c0 -120 -17.833 -227.332 -53.5 -321.999s-83 -174.834 -142 -240.501s-126.167 -115.834 -201.5 -150.501s-153 -52 -233 -52c-80.667 0 -158 16.333 -232 49s-139.333 80.667 -196 144s-102 141.166 -136 233.499s-51 198.5 -51 318.5
c0 80 8.16699 154.333 24.5 223s39 131.334 68 188.001s63.5 107 103.5 151s83.5 81 130.5 111s96.667 52.833 149 68.5s105.5 23.5 159.5 23.5c79.333 0 155.833 -16.333 229.5 -49s138.667 -80.667 195 -144s101.333 -141.166 135 -233.499s50.5 -198.5 50.5 -318.5z
M1145 715.001c0 92 -10.1709 174.835 -30.5039 248.502s-49.166 136.167 -86.499 187.5s-82.166 90.666 -134.499 117.999s-110.166 41 -173.499 41s-121.333 -13.167 -174 -39.5s-98 -64 -136 -113s-67.5 -108.333 -88.5 -178s-31.5 -147.834 -31.5 -234.501
c0 -91.333 10.167 -173.666 30.5 -246.999s49.333 -135.833 87 -187.5s82.834 -91.334 135.501 -119.001s111.667 -41.5 177 -41.5c61.333 0 118 12.833 170 38.5s96.833 62.667 134.5 111s67.167 107.5 88.5 177.5s32 149.333 32 238zM291.996 1600l340 430h170l340 -430
h-150l-275 280l-275 -280h-150z" />
    <glyph glyph-name="Otilde" unicode="&#xd5;" horiz-adv-x="1460" 
d="M1340 740c0 -120 -17.833 -227.332 -53.5 -321.999s-83 -174.834 -142 -240.501s-126.167 -115.834 -201.5 -150.501s-153 -52 -233 -52c-80.667 0 -158 16.333 -232 49s-139.333 80.667 -196 144s-102 141.166 -136 233.499s-51 198.5 -51 318.5
c0 80 8.16699 154.333 24.5 223s39 131.334 68 188.001s63.5 107 103.5 151s83.5 81 130.5 111s96.667 52.833 149 68.5s105.5 23.5 159.5 23.5c79.333 0 155.833 -16.333 229.5 -49s138.667 -80.667 195 -144s101.333 -141.166 135 -233.499s50.5 -198.5 50.5 -318.5z
M1145 715.001c0 92 -10.1709 174.835 -30.5039 248.502s-49.166 136.167 -86.499 187.5s-82.166 90.666 -134.499 117.999s-110.166 41 -173.499 41s-121.333 -13.167 -174 -39.5s-98 -64 -136 -113s-67.5 -108.333 -88.5 -178s-31.5 -147.834 -31.5 -234.501
c0 -91.333 10.167 -173.666 30.5 -246.999s49.333 -135.833 87 -187.5s82.834 -91.334 135.501 -119.001s111.667 -41.5 177 -41.5c61.333 0 118 12.833 170 38.5s96.833 62.667 134.5 111s67.167 107.5 88.5 177.5s32 149.333 32 238zM366.996 1635
c0 30.667 4.50293 60.8311 13.5029 90.498s21.667 56.334 38 80.001s36.333 42.834 60 57.501s50.5 22 80.5 22c14 0 27.667 -1.33301 41 -4s26.833 -6.5 40.5 -11.5s28 -10.667 43 -17s31.167 -12.833 48.5 -19.5l48.5 -20c14.333 -6 27.666 -11 39.999 -15
s23.833 -7.16699 34.5 -9.5s21.334 -3.5 32.001 -3.5c23.333 0 42.5 8.33301 57.5 25s24.167 36.667 27.5 60h105c0 -32 -4.5 -63 -13.5 -93s-22 -56.667 -39 -80s-37.833 -42 -62.5 -56s-52.334 -21 -83.001 -21c-26.667 0 -53.5 4.5 -80.5 13.5s-55.833 20.5 -86.5 34.5
c-38.667 18 -69.5 31.167 -92.5 39.5s-43.833 12.5 -62.5 12.5c-24.667 0 -44.334 -8 -59.001 -24s-23.334 -36.333 -26.001 -61h-105z" />
    <glyph glyph-name="Odieresis" unicode="&#xd6;" horiz-adv-x="1460" 
d="M1340 740c0 -120 -17.833 -227.332 -53.5 -321.999s-83 -174.834 -142 -240.501s-126.167 -115.834 -201.5 -150.501s-153 -52 -233 -52c-80.667 0 -158 16.333 -232 49s-139.333 80.667 -196 144s-102 141.166 -136 233.499s-51 198.5 -51 318.5
c0 80 8.16699 154.333 24.5 223s39 131.334 68 188.001s63.5 107 103.5 151s83.5 81 130.5 111s96.667 52.833 149 68.5s105.5 23.5 159.5 23.5c79.333 0 155.833 -16.333 229.5 -49s138.667 -80.667 195 -144s101.333 -141.166 135 -233.499s50.5 -198.5 50.5 -318.5z
M1145 715.001c0 92 -10.1709 174.835 -30.5039 248.502s-49.166 136.167 -86.499 187.5s-82.166 90.666 -134.499 117.999s-110.166 41 -173.499 41s-121.333 -13.167 -174 -39.5s-98 -64 -136 -113s-67.5 -108.333 -88.5 -178s-31.5 -147.834 -31.5 -234.501
c0 -91.333 10.167 -173.666 30.5 -246.999s49.333 -135.833 87 -187.5s82.834 -91.334 135.501 -119.001s111.667 -41.5 177 -41.5c61.333 0 118 12.833 170 38.5s96.833 62.667 134.5 111s67.167 107.5 88.5 177.5s32 149.333 32 238zM376.996 1775
c0 18.667 3.33301 36.167 10 52.5s15.834 30.666 27.501 42.999s25.334 22 41.001 29s32.834 10.5 51.501 10.5s36 -3.5 52 -10.5s29.667 -16.667 41 -29s20.333 -26.666 27 -42.999s10 -33.833 10 -52.5s-3.33301 -36.167 -10 -52.5s-15.667 -30.666 -27 -42.999
s-25 -22 -41 -29s-33.333 -10.5 -52 -10.5s-35.834 3.5 -51.501 10.5s-29.334 16.667 -41.001 29s-20.834 26.666 -27.501 42.999s-10 33.833 -10 52.5zM796.996 1775c0 18.667 3.33301 36.167 10 52.5s15.834 30.666 27.501 42.999s25.334 22 41.001 29
s32.834 10.5 51.501 10.5s36 -3.5 52 -10.5s29.667 -16.667 41 -29s20.333 -26.666 27 -42.999s10 -33.833 10 -52.5s-3.33301 -36.167 -10 -52.5s-15.667 -30.666 -27 -42.999s-25 -22 -41 -29s-33.333 -10.5 -52 -10.5s-35.834 3.5 -51.501 10.5
s-29.334 16.667 -41.001 29s-20.834 26.666 -27.501 42.999s-10 33.833 -10 52.5z" />
    <glyph glyph-name="multiply" unicode="&#xd7;" horiz-adv-x="1200" 
d="M304 1127l298 -299l294 294l106 -106l-294 -294l289 -288l-106 -106l-289 288l-293 -293l-106 106l293 293l-298 299z" />
    <glyph glyph-name="Oslash" unicode="&#xd8;" horiz-adv-x="1460" 
d="M290 745c0 -91.333 9.83203 -172.999 29.499 -244.999s48.167 -134 85.5 -186l508 944c-57.333 34.667 -121.666 52 -192.999 52c-63.333 0 -121.333 -13.167 -174 -39.5s-98 -64 -136 -113s-67.5 -108.333 -88.5 -178s-31.5 -147.834 -31.5 -234.501zM1145 715.001
c0 98.667 -11.5 186.167 -34.5 262.5s-55.5 140.5 -97.5 192.5l-513 -953c62.667 -44.667 136 -67 220 -67c61.333 0 118 12.833 170 38.5s96.833 62.667 134.5 111s67.167 107.5 88.5 177.5s32 149.333 32 238zM1206 1530l-101 -188.997
c34.667 -31.333 66.5 -67.5 95.5 -108.5s53.833 -86.5 74.5 -136.5s36.667 -104.833 48 -164.5s17 -123.5 17 -191.5c0 -120 -17.833 -227.333 -53.5 -322s-83 -174.834 -142 -240.501s-126.167 -115.834 -201.5 -150.501s-153 -52 -233 -52c-106 0 -204.667 27.333 -296 82
l-71 -132h-148l115 213c-65.333 63.333 -117.5 143.666 -156.5 240.999s-58.5 211 -58.5 341c0 80 8.16699 154.333 24.5 223s39 131.334 68 188.001s63.5 107 103.5 151s83.5 81 130.5 111s96.667 52.833 149 68.5s105.5 23.5 159.5 23.5
c47.333 0 93.5 -5.83301 138.5 -17.5s88.167 -28.834 129.5 -51.501l62 114h146z" />
    <glyph glyph-name="Ugrave" unicode="&#xd9;" horiz-adv-x="1440" 
d="M1255 1460c-6.66699 -40 -10.8291 -96.501 -12.4961 -169.501s-2.5 -161.5 -2.5 -265.5v-510c0 -81.333 -10.667 -155.166 -32 -221.499s-53.833 -123.166 -97.5 -170.499s-98.834 -83.833 -165.501 -109.5s-145 -38.5 -235 -38.5c-91.333 0 -170.5 12.833 -237.5 38.5
s-122.5 62.167 -166.5 109.5s-76.833 104.166 -98.5 170.499s-32.5 140.166 -32.5 221.499v510c0 98.667 -0.833008 185.834 -2.5 261.501s-5.83398 133.5 -12.501 173.5h205v-900c0 -65.333 5.66699 -124.166 17 -176.499s30.333 -97 57 -134s62 -65.333 106 -85
s99 -29.5 165 -29.5c64.667 0 118.667 9.83301 162 29.5s78.166 48 104.499 85s45.166 81.667 56.499 134s17 111.166 17 176.499v900h205zM547.005 2030l350 -430h-160l-420 430h230z" />
    <glyph glyph-name="Uacute" unicode="&#xda;" horiz-adv-x="1440" 
d="M1255 1460c-6.66699 -40 -10.8291 -96.501 -12.4961 -169.501s-2.5 -161.5 -2.5 -265.5v-510c0 -81.333 -10.667 -155.166 -32 -221.499s-53.833 -123.166 -97.5 -170.499s-98.834 -83.833 -165.501 -109.5s-145 -38.5 -235 -38.5c-91.333 0 -170.5 12.833 -237.5 38.5
s-122.5 62.167 -166.5 109.5s-76.833 104.166 -98.5 170.499s-32.5 140.166 -32.5 221.499v510c0 98.667 -0.833008 185.834 -2.5 261.501s-5.83398 133.5 -12.501 173.5h205v-900c0 -65.333 5.66699 -124.166 17 -176.499s30.333 -97 57 -134s62 -65.333 106 -85
s99 -29.5 165 -29.5c64.667 0 118.667 9.83301 162 29.5s78.166 48 104.499 85s45.166 81.667 56.499 134s17 111.166 17 176.499v900h205zM1107 2030l-420 -430h-160l350 430h230z" />
    <glyph glyph-name="Ucircumflex" unicode="&#xdb;" horiz-adv-x="1440" 
d="M1255 1460c-6.66699 -40 -10.8291 -96.501 -12.4961 -169.501s-2.5 -161.5 -2.5 -265.5v-510c0 -81.333 -10.667 -155.166 -32 -221.499s-53.833 -123.166 -97.5 -170.499s-98.834 -83.833 -165.501 -109.5s-145 -38.5 -235 -38.5c-91.333 0 -170.5 12.833 -237.5 38.5
s-122.5 62.167 -166.5 109.5s-76.833 104.166 -98.5 170.499s-32.5 140.166 -32.5 221.499v510c0 98.667 -0.833008 185.834 -2.5 261.501s-5.83398 133.5 -12.501 173.5h205v-900c0 -65.333 5.66699 -124.166 17 -176.499s30.333 -97 57 -134s62 -65.333 106 -85
s99 -29.5 165 -29.5c64.667 0 118.667 9.83301 162 29.5s78.166 48 104.499 85s45.166 81.667 56.499 134s17 111.166 17 176.499v900h205zM282.005 1600l340 430h170l340 -430h-150l-275 280l-275 -280h-150z" />
    <glyph glyph-name="Udieresis" unicode="&#xdc;" horiz-adv-x="1440" 
d="M1255 1460c-6.66699 -40 -10.8291 -96.501 -12.4961 -169.501s-2.5 -161.5 -2.5 -265.5v-510c0 -81.333 -10.667 -155.166 -32 -221.499s-53.833 -123.166 -97.5 -170.499s-98.834 -83.833 -165.501 -109.5s-145 -38.5 -235 -38.5c-91.333 0 -170.5 12.833 -237.5 38.5
s-122.5 62.167 -166.5 109.5s-76.833 104.166 -98.5 170.499s-32.5 140.166 -32.5 221.499v510c0 98.667 -0.833008 185.834 -2.5 261.501s-5.83398 133.5 -12.501 173.5h205v-900c0 -65.333 5.66699 -124.166 17 -176.499s30.333 -97 57 -134s62 -65.333 106 -85
s99 -29.5 165 -29.5c64.667 0 118.667 9.83301 162 29.5s78.166 48 104.499 85s45.166 81.667 56.499 134s17 111.166 17 176.499v900h205zM367.005 1775c0 18.667 3.33301 36.167 10 52.5s15.834 30.666 27.501 42.999s25.334 22 41.001 29s32.834 10.5 51.501 10.5
s36 -3.5 52 -10.5s29.667 -16.667 41 -29s20.333 -26.666 27 -42.999s10 -33.833 10 -52.5s-3.33301 -36.167 -10 -52.5s-15.667 -30.666 -27 -42.999s-25 -22 -41 -29s-33.333 -10.5 -52 -10.5s-35.834 3.5 -51.501 10.5s-29.334 16.667 -41.001 29
s-20.834 26.666 -27.501 42.999s-10 33.833 -10 52.5zM787.005 1775c0 18.667 3.33301 36.167 10 52.5s15.834 30.666 27.501 42.999s25.334 22 41.001 29s32.834 10.5 51.501 10.5s36 -3.5 52 -10.5s29.667 -16.667 41 -29s20.333 -26.666 27 -42.999s10 -33.833 10 -52.5
s-3.33301 -36.167 -10 -52.5s-15.667 -30.666 -27 -42.999s-25 -22 -41 -29s-33.333 -10.5 -52 -10.5s-35.834 3.5 -51.501 10.5s-29.334 16.667 -41.001 29s-20.834 26.666 -27.501 42.999s-10 33.833 -10 52.5z" />
    <glyph glyph-name="Yacute" unicode="&#xdd;" horiz-adv-x="1320" 
d="M265 1460l395.002 -661l375 661h230l-78 -114.5l-62.5 -97.5l-55 -90l-54.5 -93l-270 -462v-168c0 -98.667 0.666992 -185.834 2 -261.501s5.66602 -133.5 12.999 -173.5h-220c7.33301 40 11.666 97.833 12.999 173.5s2 162.834 2 261.501v176l-265 454l-56.5 96
l-57.5 95c-20 32 -41.5 64.667 -64.5 98l-76.5 106h230zM1050 2030l-420 -430h-160l350 430h230z" />
    <glyph glyph-name="Thorn" unicode="&#xde;" horiz-adv-x="1196" 
d="M365 1197l106.002 2c36.667 0.666992 75 1 115 1c80.667 0 153.667 -9.16699 219 -27.5s121 -46 167 -83s81.5 -83 106.5 -138s37.5 -118.833 37.5 -191.5c0 -73.333 -12.167 -139.333 -36.5 -198s-59.333 -108.5 -105 -149.5s-101.334 -72.5 -167.001 -94.5
s-139.5 -33 -221.5 -33c-36.667 0 -74.5 0.833008 -113.5 2.5s-74.833 4.16699 -107.5 7.5c0 -41.333 0.666992 -80.666 2 -117.999l2 -49c0.666992 -16.667 1.5 -32.834 2.5 -48.501s2.16699 -30.334 3.5 -44.001s3 -25.5 5 -35.5h-220
c7.33301 40 11.666 97.833 12.999 173.5s2 162.834 2 261.501v708c0 46.667 -0.5 90.167 -1.5 130.5s-2.5 76.5 -4.5 108.5s-5 58 -9 78h205v-263zM365.002 450c32 -4 64.668 -6.66602 98.001 -7.99902s69 -2 107 -2c70 0 127.833 8 173.5 24s82 37.833 109 65.5
s45.833 59.667 56.5 96s16 74.5 16 114.5s-5.83301 78.167 -17.5 114.5s-31 68.166 -58 95.499s-62.833 49.166 -107.5 65.499s-100.334 24.5 -167.001 24.5c-23.333 0 -44.333 -0.166992 -63 -0.5s-36 -0.666016 -52 -0.999023s-31.667 -0.833008 -47 -1.5l-48 -2v-585z
" />
    <glyph glyph-name="germandbls" unicode="&#xdf;" horiz-adv-x="1238" 
d="M581 228c12 -12 26.1699 -23.6758 42.5029 -35.0088s33.833 -21.166 52.5 -29.499s38 -15.166 58 -20.499s39.667 -8 59 -8c30.667 0 59.167 4.16699 85.5 12.5s49 20.333 68 36s33.833 34.834 44.5 57.501s16 48.667 16 78c0 22.667 -4.66699 43.834 -14 63.501
s-22 38.167 -38 55.5s-34.667 33.166 -56 47.499s-43.666 27.5 -66.999 39.5c-29.333 14.667 -58.833 31.5 -88.5 50.5s-56.5 41.333 -80.5 67s-43.5 55 -58.5 88s-22.5 71.167 -22.5 114.5c0 41.333 7.83301 76 23.5 104s35.334 52 59.001 72s49.167 37.833 76.5 53.5
s52.833 32 76.5 49s43.334 36.5 59.001 58.5s23.5 49.333 23.5 82c0 28.667 -7.5 55 -22.5 79s-34.333 44.667 -58 62s-50 30.833 -79 40.5s-57.5 14.5 -85.5 14.5c-42 0 -81.833 -7 -119.5 -21s-70.5 -34.5 -98.5 -61.5s-50.333 -60.5 -67 -100.5s-25 -85.667 -25 -137
v-1140h-215c5.33301 26 10 57.333 14 94s7.16699 76.5 9.5 119.5s4 88.333 5 136s1.5 95.834 1.5 144.501v626c0 90 13 166.667 39 230s60.5 115 103.5 155s92.167 69.167 147.5 87.5s112 27.5 170 27.5c76.667 0 144 -9.5 202 -28.5s106.333 -44.167 145 -75.5
s67.667 -67.166 87 -107.499s29 -81.833 29 -124.5c0 -53.333 -8 -97.166 -24 -131.499s-35.833 -62.833 -59.5 -85.5s-49.334 -41.5 -77.001 -56.5s-53.334 -29.833 -77.001 -44.5s-43.5 -31.167 -59.5 -49.5s-24 -42.166 -24 -71.499c0 -26 5.83301 -48 17.5 -66
s26.5 -34 44.5 -48s38.333 -26.833 61 -38.5s45 -23.834 67 -36.501c25.333 -15.333 51.666 -32.666 78.999 -51.999s52.166 -42.166 74.499 -68.499s40.833 -56.5 55.5 -90.5s22 -73 22 -117c0 -55.333 -9.66699 -104.833 -29 -148.5s-46.333 -80.667 -81 -111
s-75.834 -53.5 -123.501 -69.5s-99.834 -24 -156.501 -24c-24 0 -48.833 2.16699 -74.5 6.5s-50.167 9.83301 -73.5 16.5s-45 14.334 -65 23.001s-36.333 17.667 -49 27z" />
    <glyph glyph-name="agrave.SngStory" unicode="&#xe0;" horiz-adv-x="1150" 
d="M805 862c-8 2 -16.999 3.99902 -26.999 5.99902s-21.833 4 -35.5 6s-29.667 3.5 -48 4.5s-39.833 1.5 -64.5 1.5c-65.333 0 -119.833 -13.167 -163.5 -39.5s-78.5 -61.333 -104.5 -105s-44.5 -93.834 -55.5 -150.501s-16.5 -115 -16.5 -175
c0 -38.667 3.83301 -74.167 11.5 -106.5s18.167 -60.333 31.5 -84s28.666 -42 45.999 -55s36 -19.5 56 -19.5c29.333 0 58.833 11.333 88.5 34s58.167 51.834 85.5 87.501s53 75.667 77 120s44.833 88.333 62.5 132s31.5 84.834 41.5 123.501s15 69.667 15 93v127z
M880.001 -0.000976562c-7.33301 16 -13.8311 37.998 -19.498 65.998s-10.334 57.833 -14.001 89.5s-6.5 63.167 -8.5 94.5s-3 58 -3 80v80c-20 -52 -43.833 -103.833 -71.5 -155.5s-59.334 -98.167 -95.001 -139.5s-75.5 -75 -119.5 -101s-92 -39 -144 -39
c-42 0 -81.333 9.33301 -118 28s-68.5 46.334 -95.5 83.001s-48.167 82.167 -63.5 136.5s-23 116.833 -23 187.5c0 79.333 10.667 156.833 32 232.5s54 143 98 202s100 106.333 168 142s148.667 53.5 242 53.5c64.667 0 125.667 -4.16699 183 -12.5
s111.333 -19.166 162 -32.499v-465c0 -126 6 -231.833 18 -317.5s27.667 -156.5 47 -212.5h-175zM435.003 1600l350 -430h-160l-420 430h230z" />
    <glyph glyph-name="aacute.SngStory" unicode="&#xe1;" horiz-adv-x="1150" 
d="M805 862c-8 2 -16.999 3.99902 -26.999 5.99902s-21.833 4 -35.5 6s-29.667 3.5 -48 4.5s-39.833 1.5 -64.5 1.5c-65.333 0 -119.833 -13.167 -163.5 -39.5s-78.5 -61.333 -104.5 -105s-44.5 -93.834 -55.5 -150.501s-16.5 -115 -16.5 -175
c0 -38.667 3.83301 -74.167 11.5 -106.5s18.167 -60.333 31.5 -84s28.666 -42 45.999 -55s36 -19.5 56 -19.5c29.333 0 58.833 11.333 88.5 34s58.167 51.834 85.5 87.501s53 75.667 77 120s44.833 88.333 62.5 132s31.5 84.834 41.5 123.501s15 69.667 15 93v127z
M880.001 -0.000976562c-7.33301 16 -13.8311 37.998 -19.498 65.998s-10.334 57.833 -14.001 89.5s-6.5 63.167 -8.5 94.5s-3 58 -3 80v80c-20 -52 -43.833 -103.833 -71.5 -155.5s-59.334 -98.167 -95.001 -139.5s-75.5 -75 -119.5 -101s-92 -39 -144 -39
c-42 0 -81.333 9.33301 -118 28s-68.5 46.334 -95.5 83.001s-48.167 82.167 -63.5 136.5s-23 116.833 -23 187.5c0 79.333 10.667 156.833 32 232.5s54 143 98 202s100 106.333 168 142s148.667 53.5 242 53.5c64.667 0 125.667 -4.16699 183 -12.5
s111.333 -19.166 162 -32.499v-465c0 -126 6 -231.833 18 -317.5s27.667 -156.5 47 -212.5h-175zM995.003 1600l-420 -430h-160l350 430h230z" />
    <glyph glyph-name="acircumflex.SngStory" unicode="&#xe2;" horiz-adv-x="1150" 
d="M805 862c-8 2 -16.999 3.99902 -26.999 5.99902s-21.833 4 -35.5 6s-29.667 3.5 -48 4.5s-39.833 1.5 -64.5 1.5c-65.333 0 -119.833 -13.167 -163.5 -39.5s-78.5 -61.333 -104.5 -105s-44.5 -93.834 -55.5 -150.501s-16.5 -115 -16.5 -175
c0 -38.667 3.83301 -74.167 11.5 -106.5s18.167 -60.333 31.5 -84s28.666 -42 45.999 -55s36 -19.5 56 -19.5c29.333 0 58.833 11.333 88.5 34s58.167 51.834 85.5 87.501s53 75.667 77 120s44.833 88.333 62.5 132s31.5 84.834 41.5 123.501s15 69.667 15 93v127z
M880.001 -0.000976562c-7.33301 16 -13.8311 37.998 -19.498 65.998s-10.334 57.833 -14.001 89.5s-6.5 63.167 -8.5 94.5s-3 58 -3 80v80c-20 -52 -43.833 -103.833 -71.5 -155.5s-59.334 -98.167 -95.001 -139.5s-75.5 -75 -119.5 -101s-92 -39 -144 -39
c-42 0 -81.333 9.33301 -118 28s-68.5 46.334 -95.5 83.001s-48.167 82.167 -63.5 136.5s-23 116.833 -23 187.5c0 79.333 10.667 156.833 32 232.5s54 143 98 202s100 106.333 168 142s148.667 53.5 242 53.5c64.667 0 125.667 -4.16699 183 -12.5
s111.333 -19.166 162 -32.499v-465c0 -126 6 -231.833 18 -317.5s27.667 -156.5 47 -212.5h-175zM170.003 1170l340 430h170l340 -430h-150l-275 280l-275 -280h-150z" />
    <glyph glyph-name="atilde.SngStory" unicode="&#xe3;" horiz-adv-x="1150" 
d="M805 862c-8 2 -16.999 3.99902 -26.999 5.99902s-21.833 4 -35.5 6s-29.667 3.5 -48 4.5s-39.833 1.5 -64.5 1.5c-65.333 0 -119.833 -13.167 -163.5 -39.5s-78.5 -61.333 -104.5 -105s-44.5 -93.834 -55.5 -150.501s-16.5 -115 -16.5 -175
c0 -38.667 3.83301 -74.167 11.5 -106.5s18.167 -60.333 31.5 -84s28.666 -42 45.999 -55s36 -19.5 56 -19.5c29.333 0 58.833 11.333 88.5 34s58.167 51.834 85.5 87.501s53 75.667 77 120s44.833 88.333 62.5 132s31.5 84.834 41.5 123.501s15 69.667 15 93v127z
M880.001 -0.000976562c-7.33301 16 -13.8311 37.998 -19.498 65.998s-10.334 57.833 -14.001 89.5s-6.5 63.167 -8.5 94.5s-3 58 -3 80v80c-20 -52 -43.833 -103.833 -71.5 -155.5s-59.334 -98.167 -95.001 -139.5s-75.5 -75 -119.5 -101s-92 -39 -144 -39
c-42 0 -81.333 9.33301 -118 28s-68.5 46.334 -95.5 83.001s-48.167 82.167 -63.5 136.5s-23 116.833 -23 187.5c0 79.333 10.667 156.833 32 232.5s54 143 98 202s100 106.333 168 142s148.667 53.5 242 53.5c64.667 0 125.667 -4.16699 183 -12.5
s111.333 -19.166 162 -32.499v-465c0 -126 6 -231.833 18 -317.5s27.667 -156.5 47 -212.5h-175zM245.003 1205c0 30.667 4.50293 60.8311 13.5029 90.498s21.667 56.334 38 80.001s36.333 42.834 60 57.501s50.5 22 80.5 22c14 0 27.667 -1.33301 41 -4
s26.833 -6.5 40.5 -11.5s28 -10.667 43 -17s31.167 -12.833 48.5 -19.5l48.5 -20c14.333 -6 27.666 -11 39.999 -15s23.833 -7.16699 34.5 -9.5s21.334 -3.5 32.001 -3.5c23.333 0 42.5 8.33301 57.5 25s24.167 36.667 27.5 60h105c0 -32 -4.5 -63 -13.5 -93
s-22 -56.667 -39 -80s-37.833 -42 -62.5 -56s-52.334 -21 -83.001 -21c-26.667 0 -53.5 4.5 -80.5 13.5s-55.833 20.5 -86.5 34.5c-38.667 18 -69.5 31.167 -92.5 39.5s-43.833 12.5 -62.5 12.5c-24.667 0 -44.334 -8 -59.001 -24s-23.334 -36.333 -26.001 -61h-105z" />
    <glyph glyph-name="adieresis.SngStory" unicode="&#xe4;" horiz-adv-x="1150" 
d="M805 862c-8 2 -16.999 3.99902 -26.999 5.99902s-21.833 4 -35.5 6s-29.667 3.5 -48 4.5s-39.833 1.5 -64.5 1.5c-65.333 0 -119.833 -13.167 -163.5 -39.5s-78.5 -61.333 -104.5 -105s-44.5 -93.834 -55.5 -150.501s-16.5 -115 -16.5 -175
c0 -38.667 3.83301 -74.167 11.5 -106.5s18.167 -60.333 31.5 -84s28.666 -42 45.999 -55s36 -19.5 56 -19.5c29.333 0 58.833 11.333 88.5 34s58.167 51.834 85.5 87.501s53 75.667 77 120s44.833 88.333 62.5 132s31.5 84.834 41.5 123.501s15 69.667 15 93v127z
M880.001 -0.000976562c-7.33301 16 -13.8311 37.998 -19.498 65.998s-10.334 57.833 -14.001 89.5s-6.5 63.167 -8.5 94.5s-3 58 -3 80v80c-20 -52 -43.833 -103.833 -71.5 -155.5s-59.334 -98.167 -95.001 -139.5s-75.5 -75 -119.5 -101s-92 -39 -144 -39
c-42 0 -81.333 9.33301 -118 28s-68.5 46.334 -95.5 83.001s-48.167 82.167 -63.5 136.5s-23 116.833 -23 187.5c0 79.333 10.667 156.833 32 232.5s54 143 98 202s100 106.333 168 142s148.667 53.5 242 53.5c64.667 0 125.667 -4.16699 183 -12.5
s111.333 -19.166 162 -32.499v-465c0 -126 6 -231.833 18 -317.5s27.667 -156.5 47 -212.5h-175zM255.003 1345c0 18.667 3.33301 36.167 10 52.5s15.834 30.666 27.501 42.999s25.334 22 41.001 29s32.834 10.5 51.501 10.5s36 -3.5 52 -10.5s29.667 -16.667 41 -29
s20.333 -26.666 27 -42.999s10 -33.833 10 -52.5s-3.33301 -36.167 -10 -52.5s-15.667 -30.666 -27 -42.999s-25 -22 -41 -29s-33.333 -10.5 -52 -10.5s-35.834 3.5 -51.501 10.5s-29.334 16.667 -41.001 29s-20.834 26.666 -27.501 42.999s-10 33.833 -10 52.5z
M675.003 1345c0 18.667 3.33301 36.167 10 52.5s15.834 30.666 27.501 42.999s25.334 22 41.001 29s32.834 10.5 51.501 10.5s36 -3.5 52 -10.5s29.667 -16.667 41 -29s20.333 -26.666 27 -42.999s10 -33.833 10 -52.5s-3.33301 -36.167 -10 -52.5
s-15.667 -30.666 -27 -42.999s-25 -22 -41 -29s-33.333 -10.5 -52 -10.5s-35.834 3.5 -51.501 10.5s-29.334 16.667 -41.001 29s-20.834 26.666 -27.501 42.999s-10 33.833 -10 52.5z" />
    <glyph glyph-name="aring.SngStory" unicode="&#xe5;" horiz-adv-x="1150" 
d="M805 862c-8 2 -16.999 3.99902 -26.999 5.99902s-21.833 4 -35.5 6s-29.667 3.5 -48 4.5s-39.833 1.5 -64.5 1.5c-65.333 0 -119.833 -13.167 -163.5 -39.5s-78.5 -61.333 -104.5 -105s-44.5 -93.834 -55.5 -150.501s-16.5 -115 -16.5 -175
c0 -38.667 3.83301 -74.167 11.5 -106.5s18.167 -60.333 31.5 -84s28.666 -42 45.999 -55s36 -19.5 56 -19.5c29.333 0 58.833 11.333 88.5 34s58.167 51.834 85.5 87.501s53 75.667 77 120s44.833 88.333 62.5 132s31.5 84.834 41.5 123.501s15 69.667 15 93v127z
M880.001 -0.000976562c-7.33301 16 -13.8311 37.998 -19.498 65.998s-10.334 57.833 -14.001 89.5s-6.5 63.167 -8.5 94.5s-3 58 -3 80v80c-20 -52 -43.833 -103.833 -71.5 -155.5s-59.334 -98.167 -95.001 -139.5s-75.5 -75 -119.5 -101s-92 -39 -144 -39
c-42 0 -81.333 9.33301 -118 28s-68.5 46.334 -95.5 83.001s-48.167 82.167 -63.5 136.5s-23 116.833 -23 187.5c0 79.333 10.667 156.833 32 232.5s54 143 98 202s100 106.333 168 142s148.667 53.5 242 53.5c64.667 0 125.667 -4.16699 183 -12.5
s111.333 -19.166 162 -32.499v-465c0 -126 6 -231.833 18 -317.5s27.667 -156.5 47 -212.5h-175zM382.003 1385c0 30 5.5 58 16.5 84s26.333 48.833 46 68.5s42.5 35 68.5 46s54 16.5 84 16.5s58 -5.5 84 -16.5s48.833 -26.333 68.5 -46s35 -42.5 46 -68.5
s16.5 -54 16.5 -84s-5.5 -58 -16.5 -84s-26.333 -48.833 -46 -68.5s-42.5 -35 -68.5 -46s-54 -16.5 -84 -16.5s-58 5.5 -84 16.5s-48.833 26.333 -68.5 46s-35 42.5 -46 68.5s-16.5 54 -16.5 84zM697.003 1385c0 30 -9.16699 54.167 -27.5 72.5s-42.5 27.5 -72.5 27.5
s-54.167 -9.16699 -72.5 -27.5s-27.5 -42.5 -27.5 -72.5s9.16699 -54.167 27.5 -72.5s42.5 -27.5 72.5 -27.5s54.167 9.16699 72.5 27.5s27.5 42.5 27.5 72.5z" />
    <glyph glyph-name="ae" unicode="&#xe6;" horiz-adv-x="1745" 
d="M1460 625c0 42.667 -6.16602 80.5 -18.499 113.5s-29 60.833 -50 83.5s-45.333 39.667 -73 51s-57.167 17 -88.5 17c-73.333 0 -135.833 -21.5 -187.5 -64.5s-85.834 -109.833 -102.501 -200.5h520zM755.001 485c-12.667 -0.666992 -30.334 -1.33496 -53.001 -2.00195
s-46.667 -1.5 -72 -2.5s-50.166 -2.33301 -74.499 -4s-44.5 -3.83398 -60.5 -6.50098c-42 -7.33301 -76.667 -17.166 -104 -29.499s-49.333 -26.5 -66 -42.5s-28.334 -34 -35.001 -54s-10 -41.333 -10 -64c0 -20 4.16699 -38.5 12.5 -55.5s20 -31.667 35 -44
s32.833 -22.166 53.5 -29.499s43.667 -11 69 -11s50.333 2.16699 75 6.5s49.334 13 74.001 26s49.834 31.667 75.501 56s52.5 56.5 80.5 96.5c3.33301 4 6.33301 7.83301 9 11.5s4.66699 8.16699 6 13.5c-4.66699 20.667 -8.33398 42.334 -11.001 65.001s-4 46 -4 70z
M1645 74.999c-35.333 -18 -69.3311 -33.3379 -101.998 -46.0049s-65.5 -23 -98.5 -31s-66.5 -13.833 -100.5 -17.5s-70.333 -5.5 -109 -5.5c-41.333 0 -81.5 4.66699 -120.5 14s-76 23.166 -111 41.499s-67.167 41.333 -96.5 69s-55 59.834 -77 96.501l-22.5 -25.5
l-22.5 -25.5c-29.333 -31.333 -59.166 -57.833 -89.499 -79.5s-60.666 -39.167 -90.999 -52.5s-61 -23 -92 -29s-61.833 -9 -92.5 -9c-47.333 0 -90.833 7.66699 -130.5 23s-73.834 35.833 -102.501 61.5s-51.167 55.334 -67.5 89.001s-24.5 69.167 -24.5 106.5
c0 38 6.33301 76 19 114s34 73.167 64 105.5s70 60.5 120 84.5s112.333 41 187 51c17.333 2 39.166 3.83301 65.499 5.5s53 3 80 4s52 2 75 3s39.5 1.83301 49.5 2.5v85c0 30 -6.5 55.833 -19.5 77.5s-31 39.334 -54 53.001s-50.5 23.667 -82.5 30s-66.667 9.5 -104 9.5
c-26.667 0 -51.5 -2.66699 -74.5 -8s-46 -13.333 -69 -24s-46.667 -23.667 -71 -39s-51.166 -33.333 -80.499 -54c0 10.667 0.333008 24.834 1 42.501l2 55c0.666992 19 1.66699 37.333 3 55s2.66602 31.834 3.99902 42.501c26 10.667 50.667 21.5 74 32.5
s47.666 20.667 72.999 29s52.666 15.166 81.999 20.499s63 8 101 8c34 0 67.5 -3.66699 100.5 -11s64.333 -18.166 94 -32.499s57 -32.5 82 -54.5s46.167 -47.667 63.5 -77c45.333 55.333 99.333 98.333 162 129s130.334 46 203.001 46c51.333 0 96.833 -6.5 136.5 -19.5
s74.167 -30.833 103.5 -53.5s53.833 -49.334 73.5 -80.001s35.667 -63.667 48 -99s21 -72 26 -110s7.5 -75.667 7.5 -113v-80h-710c2 -58.667 11.833 -109.667 29.5 -153s41.167 -79.166 70.5 -107.499s63.666 -49.5 102.999 -63.5s81.666 -21 126.999 -21
c32 0 63.333 1.66699 94 5s61 9 91 17s59.833 18.333 89.5 31s59.834 28.334 90.501 47.001z" />
    <glyph glyph-name="ccedilla" unicode="&#xe7;" horiz-adv-x="1020" 
d="M925 85c-25.333 -19.333 -50.502 -35.832 -75.502 -49.499s-51.167 -25 -78.5 -34s-56.666 -15.5 -87.999 -19.5c-16.667 -2.66699 -34.334 -4.33398 -53.001 -5.00098v-72c6.66699 1.33301 13.5 2.5 20.5 3.5s16.167 1.5 27.5 1.5c22.667 0 43.667 -4.16699 63 -12.5
s36 -20 50 -35s24.833 -33 32.5 -54s11.5 -43.833 11.5 -68.5c0 -34 -7.66699 -64.667 -23 -92s-35.333 -50.5 -60 -69.5s-52 -33.5 -82 -43.5s-60 -15 -90 -15c-26 0 -49.833 3.83301 -71.5 11.5s-42.834 17.167 -63.501 28.5l10 100
c14.667 -10.667 29.667 -18.334 45 -23.001s33.666 -7 54.999 -7c14.667 0 29.834 1.66699 45.501 5s30 9 43 17s23.833 18.333 32.5 31s13.334 28.334 14.001 47.001c-0.666992 26 -10.167 47.5 -28.5 64.5s-41.166 25.5 -68.499 25.5c-16 0 -32 -2.5 -48 -7.5
s-29.333 -10.833 -40 -17.5v185c-40 6 -78 16 -114 30c-58.667 24 -110 58.333 -154 103s-78.667 98.667 -104 162s-38 135 -38 215c0 75.333 12.167 146.333 36.5 213s59 125 104 175s99.667 89.5 164 118.5s136.166 43.5 215.499 43.5
c66.667 0 124.167 -7.83301 172.5 -23.5s90.833 -36.167 127.5 -61.5l-35 -180c-45.333 33.333 -90.333 58.333 -135 75s-93 25 -145 25c-44.667 0 -86.167 -8.5 -124.5 -25.5s-71.666 -41.5 -99.999 -73.5s-50.5 -71.333 -66.5 -118s-24 -99.334 -24 -158.001
c0 -54 7.33301 -103 22 -147s35.667 -81.833 63 -113.5s60.333 -56.167 99 -73.5s82.334 -26 131.001 -26c60.667 0 115.667 10.333 165 31s96 50.334 140 89.001z" />
    <glyph glyph-name="egrave" unicode="&#xe8;" horiz-adv-x="1095" 
d="M280 485c2 -58.667 11.1719 -109.672 27.5049 -153.005s38.666 -79.166 66.999 -107.499s61.666 -49.5 99.999 -63.5s80.166 -21 125.499 -21c64.667 0 128 7.33301 190 22s123.667 40.667 185 78l20 -165c-35.333 -18 -70 -33.333 -104 -46s-68 -23 -102 -31
s-68.5 -13.833 -103.5 -17.5s-71.833 -5.5 -110.5 -5.5c-64 0 -125 11.167 -183 33.5s-109 55.333 -153 99s-79 97.834 -105 162.501s-39 139.667 -39 225c0 82.667 11.167 157.5 33.5 224.5s54.166 124.333 95.499 172s91.666 84.334 150.999 110.001s126 38.5 200 38.5
c54.667 0 103 -6.5 145 -19.5s78.333 -31 109 -54s56.334 -49.833 77.001 -80.5s37.167 -63.667 49.5 -99s21.166 -72.166 26.499 -110.499s8 -76.166 8 -113.499v-39c0 -16.667 -0.333008 -29.667 -1 -39h-709zM560.005 889.995c-73.333 0 -133.333 -21.5 -180 -64.5
s-77.334 -109.833 -92.001 -200.5h522c0 42.667 -6.16699 80.5 -18.5 113.5s-29.666 60.833 -51.999 83.5s-48.833 39.667 -79.5 51s-64 17 -100 17zM409.005 1600l350 -430h-160l-420 430h230z" />
    <glyph glyph-name="eacute" unicode="&#xe9;" horiz-adv-x="1095" 
d="M280 485c2 -58.667 11.1719 -109.672 27.5049 -153.005s38.666 -79.166 66.999 -107.499s61.666 -49.5 99.999 -63.5s80.166 -21 125.499 -21c64.667 0 128 7.33301 190 22s123.667 40.667 185 78l20 -165c-35.333 -18 -70 -33.333 -104 -46s-68 -23 -102 -31
s-68.5 -13.833 -103.5 -17.5s-71.833 -5.5 -110.5 -5.5c-64 0 -125 11.167 -183 33.5s-109 55.333 -153 99s-79 97.834 -105 162.501s-39 139.667 -39 225c0 82.667 11.167 157.5 33.5 224.5s54.166 124.333 95.499 172s91.666 84.334 150.999 110.001s126 38.5 200 38.5
c54.667 0 103 -6.5 145 -19.5s78.333 -31 109 -54s56.334 -49.833 77.001 -80.5s37.167 -63.667 49.5 -99s21.166 -72.166 26.499 -110.499s8 -76.166 8 -113.499v-39c0 -16.667 -0.333008 -29.667 -1 -39h-709zM560.005 889.995c-73.333 0 -133.333 -21.5 -180 -64.5
s-77.334 -109.833 -92.001 -200.5h522c0 42.667 -6.16699 80.5 -18.5 113.5s-29.666 60.833 -51.999 83.5s-48.833 39.667 -79.5 51s-64 17 -100 17zM969.005 1600l-420 -430h-160l350 430h230z" />
    <glyph glyph-name="ecircumflex" unicode="&#xea;" horiz-adv-x="1095" 
d="M280 485c2 -58.667 11.1719 -109.672 27.5049 -153.005s38.666 -79.166 66.999 -107.499s61.666 -49.5 99.999 -63.5s80.166 -21 125.499 -21c64.667 0 128 7.33301 190 22s123.667 40.667 185 78l20 -165c-35.333 -18 -70 -33.333 -104 -46s-68 -23 -102 -31
s-68.5 -13.833 -103.5 -17.5s-71.833 -5.5 -110.5 -5.5c-64 0 -125 11.167 -183 33.5s-109 55.333 -153 99s-79 97.834 -105 162.501s-39 139.667 -39 225c0 82.667 11.167 157.5 33.5 224.5s54.166 124.333 95.499 172s91.666 84.334 150.999 110.001s126 38.5 200 38.5
c54.667 0 103 -6.5 145 -19.5s78.333 -31 109 -54s56.334 -49.833 77.001 -80.5s37.167 -63.667 49.5 -99s21.166 -72.166 26.499 -110.499s8 -76.166 8 -113.499v-39c0 -16.667 -0.333008 -29.667 -1 -39h-709zM560.005 889.995c-73.333 0 -133.333 -21.5 -180 -64.5
s-77.334 -109.833 -92.001 -200.5h522c0 42.667 -6.16699 80.5 -18.5 113.5s-29.666 60.833 -51.999 83.5s-48.833 39.667 -79.5 51s-64 17 -100 17zM144.005 1170l340 430h170l340 -430h-150l-275 280l-275 -280h-150z" />
    <glyph glyph-name="edieresis" unicode="&#xeb;" horiz-adv-x="1095" 
d="M280 485c2 -58.667 11.1719 -109.672 27.5049 -153.005s38.666 -79.166 66.999 -107.499s61.666 -49.5 99.999 -63.5s80.166 -21 125.499 -21c64.667 0 128 7.33301 190 22s123.667 40.667 185 78l20 -165c-35.333 -18 -70 -33.333 -104 -46s-68 -23 -102 -31
s-68.5 -13.833 -103.5 -17.5s-71.833 -5.5 -110.5 -5.5c-64 0 -125 11.167 -183 33.5s-109 55.333 -153 99s-79 97.834 -105 162.501s-39 139.667 -39 225c0 82.667 11.167 157.5 33.5 224.5s54.166 124.333 95.499 172s91.666 84.334 150.999 110.001s126 38.5 200 38.5
c54.667 0 103 -6.5 145 -19.5s78.333 -31 109 -54s56.334 -49.833 77.001 -80.5s37.167 -63.667 49.5 -99s21.166 -72.166 26.499 -110.499s8 -76.166 8 -113.499v-39c0 -16.667 -0.333008 -29.667 -1 -39h-709zM560.005 889.995c-73.333 0 -133.333 -21.5 -180 -64.5
s-77.334 -109.833 -92.001 -200.5h522c0 42.667 -6.16699 80.5 -18.5 113.5s-29.666 60.833 -51.999 83.5s-48.833 39.667 -79.5 51s-64 17 -100 17zM229.005 1345c0 18.667 3.33301 36.167 10 52.5s15.834 30.666 27.501 42.999s25.334 22 41.001 29
s32.834 10.5 51.501 10.5s36 -3.5 52 -10.5s29.667 -16.667 41 -29s20.333 -26.666 27 -42.999s10 -33.833 10 -52.5s-3.33301 -36.167 -10 -52.5s-15.667 -30.666 -27 -42.999s-25 -22 -41 -29s-33.333 -10.5 -52 -10.5s-35.834 3.5 -51.501 10.5
s-29.334 16.667 -41.001 29s-20.834 26.666 -27.501 42.999s-10 33.833 -10 52.5zM649.005 1345c0 18.667 3.33301 36.167 10 52.5s15.834 30.666 27.501 42.999s25.334 22 41.001 29s32.834 10.5 51.501 10.5s36 -3.5 52 -10.5s29.667 -16.667 41 -29
s20.333 -26.666 27 -42.999s10 -33.833 10 -52.5s-3.33301 -36.167 -10 -52.5s-15.667 -30.666 -27 -42.999s-25 -22 -41 -29s-33.333 -10.5 -52 -10.5s-35.834 3.5 -51.501 10.5s-29.334 16.667 -41.001 29s-20.834 26.666 -27.501 42.999s-10 33.833 -10 52.5z" />
    <glyph glyph-name="igrave" unicode="&#xec;" horiz-adv-x="565" 
d="M375 475c0 -32 0.500977 -69.8281 1.50098 -113.495s2.33301 -87.834 4 -132.501s3.66699 -87.334 6 -128.001s5.16602 -74.334 8.49902 -101.001h-205v530c0 48.667 -0.166992 96.667 -0.5 144s-1 92.166 -2 134.499s-2.5 81.666 -4.5 117.999s-4.66699 67.5 -8 93.5
h200v-545zM125.001 1600l350 -430h-160l-420 430h230z" />
    <glyph glyph-name="iacute" unicode="&#xed;" horiz-adv-x="565" 
d="M375 475c0 -32 0.500977 -69.8281 1.50098 -113.495s2.33301 -87.834 4 -132.501s3.66699 -87.334 6 -128.001s5.16602 -74.334 8.49902 -101.001h-205v530c0 48.667 -0.166992 96.667 -0.5 144s-1 92.166 -2 134.499s-2.5 81.666 -4.5 117.999s-4.66699 67.5 -8 93.5
h200v-545zM685.001 1600l-420 -430h-160l350 430h230z" />
    <glyph glyph-name="icircumflex" unicode="&#xee;" horiz-adv-x="565" 
d="M375 475c0 -32 0.500977 -69.8281 1.50098 -113.495s2.33301 -87.834 4 -132.501s3.66699 -87.334 6 -128.001s5.16602 -74.334 8.49902 -101.001h-205v530c0 48.667 -0.166992 96.667 -0.5 144s-1 92.166 -2 134.499s-2.5 81.666 -4.5 117.999s-4.66699 67.5 -8 93.5
h200v-545zM-139.999 1170l340 430h170l340 -430h-150l-275 280l-275 -280h-150z" />
    <glyph glyph-name="idieresis" unicode="&#xef;" horiz-adv-x="565" 
d="M375 475c0 -32 0.500977 -69.8281 1.50098 -113.495s2.33301 -87.834 4 -132.501s3.66699 -87.334 6 -128.001s5.16602 -74.334 8.49902 -101.001h-205v530c0 48.667 -0.166992 96.667 -0.5 144s-1 92.166 -2 134.499s-2.5 81.666 -4.5 117.999s-4.66699 67.5 -8 93.5
h200v-545zM-54.999 1345c0 18.667 3.33301 36.167 10 52.5s15.834 30.666 27.501 42.999s25.334 22 41.001 29s32.834 10.5 51.501 10.5s36 -3.5 52 -10.5s29.667 -16.667 41 -29s20.333 -26.666 27 -42.999s10 -33.833 10 -52.5s-3.33301 -36.167 -10 -52.5
s-15.667 -30.666 -27 -42.999s-25 -22 -41 -29s-33.333 -10.5 -52 -10.5s-35.834 3.5 -51.501 10.5s-29.334 16.667 -41.001 29s-20.834 26.666 -27.501 42.999s-10 33.833 -10 52.5zM365.001 1345c0 18.667 3.33301 36.167 10 52.5s15.834 30.666 27.501 42.999
s25.334 22 41.001 29s32.834 10.5 51.501 10.5s36 -3.5 52 -10.5s29.667 -16.667 41 -29s20.333 -26.666 27 -42.999s10 -33.833 10 -52.5s-3.33301 -36.167 -10 -52.5s-15.667 -30.666 -27 -42.999s-25 -22 -41 -29s-33.333 -10.5 -52 -10.5s-35.834 3.5 -51.501 10.5
s-29.334 16.667 -41.001 29s-20.834 26.666 -27.501 42.999s-10 33.833 -10 52.5z" />
    <glyph glyph-name="eth" unicode="&#xf0;" horiz-adv-x="1160" 
d="M280 487c0 -56 7.00293 -105.831 21.0029 -149.498s33.833 -80.5 59.5 -110.5s56.167 -52.833 91.5 -68.5s74.666 -23.5 117.999 -23.5c45.333 0 85.833 8.33301 121.5 25s66 40.334 91 71.001s44.167 67.667 57.5 111s20 91.666 20 144.999c0 56 -7 105.833 -21 149.5
s-33.833 80.667 -59.5 111s-56.334 53.333 -92.001 69s-74.834 23.5 -117.501 23.5c-45.333 0 -86 -8.33301 -122 -25s-66.5 -40.334 -91.5 -71.001s-44 -67.834 -57 -111.501s-19.5 -92.167 -19.5 -145.5zM779.003 1351c38.667 -50.667 74.668 -105.333 108.001 -164
s62 -119.667 86 -183s42.833 -128.5 56.5 -195.5s20.5 -134.5 20.5 -202.5c0 -105.333 -11.167 -197.5 -33.5 -276.5s-54.5 -144.667 -96.5 -197s-93.333 -91.666 -154 -117.999s-129.334 -39.5 -206.001 -39.5c-68.667 0 -131.5 11 -188.5 33s-106 54.5 -147 97.5
s-72.833 96.5 -95.5 160.5s-34 137.667 -34 221c0 54 6.16699 104.167 18.5 150.5s29 88.5 50 126.5s45.5 71.667 73.5 101s58 54 90 74s65 35.167 99 45.5s67.333 15.5 100 15.5c40 0 75.167 -2.83301 105.5 -8.5s58 -14 83 -25s48.333 -24.833 70 -41.5
s44.167 -35.667 67.5 -57c-20.667 68 -49.667 135.667 -87 203s-80 131.333 -128 192l-233 -145l-83 108l225 139c-36 36 -73.167 68.167 -111.5 96.5s-76.833 51.833 -115.5 70.5l174 88c34 -20.667 67.5 -44.834 100.5 -72.501s65.5 -58.5 97.5 -92.5l220 136l85 -105z
" />
    <glyph glyph-name="ntilde" unicode="&#xf1;" horiz-adv-x="1185" 
d="M865 0l-0.00292969 549.998c0 62.667 -4.16699 114.334 -12.5 155.001s-20.666 72.834 -36.999 96.501s-37 40.167 -62 49.5s-54.5 14 -88.5 14c-36 0 -71.167 -8.5 -105.5 -25.5s-65.833 -39 -94.5 -66s-54 -57.5 -76 -91.5s-38.333 -68 -49 -102v-580h-185v615
c0 98.667 -5.5 182.167 -16.5 250.5s-22.167 119.833 -33.5 154.5h180c4 -10.667 8 -24.5 12 -41.5s7.66699 -34.833 11 -53.5s6.33301 -37 9 -55l8 -45c63.333 76 127.333 130.833 192 164.5s132.334 50.5 203.001 50.5c106.667 0 188.334 -34.833 245.001 -104.5
s85 -173.167 85 -310.5v-625h-185zM249.997 1205c0 30.667 4.50293 60.8311 13.5029 90.498s21.667 56.334 38 80.001s36.333 42.834 60 57.501s50.5 22 80.5 22c14 0 27.667 -1.33301 41 -4s26.833 -6.5 40.5 -11.5s28 -10.667 43 -17s31.167 -12.833 48.5 -19.5l48.5 -20
c14.333 -6 27.666 -11 39.999 -15s23.833 -7.16699 34.5 -9.5s21.334 -3.5 32.001 -3.5c23.333 0 42.5 8.33301 57.5 25s24.167 36.667 27.5 60h105c0 -32 -4.5 -63 -13.5 -93s-22 -56.667 -39 -80s-37.833 -42 -62.5 -56s-52.334 -21 -83.001 -21
c-26.667 0 -53.5 4.5 -80.5 13.5s-55.833 20.5 -86.5 34.5c-38.667 18 -69.5 31.167 -92.5 39.5s-43.833 12.5 -62.5 12.5c-24.667 0 -44.334 -8 -59.001 -24s-23.334 -36.333 -26.001 -61h-105z" />
    <glyph glyph-name="ograve" unicode="&#xf2;" horiz-adv-x="1140" 
d="M280 505c0 -58 7.00391 -110 21.0039 -156s33.833 -84.833 59.5 -116.5s56.167 -55.834 91.5 -72.501s74.666 -25 117.999 -25c40 0 77.667 8.33301 113 25s66.166 40.834 92.499 72.501s47 70.5 62 116.5s22.5 98 22.5 156c0 58.667 -7 111.167 -21 157.5
s-33.833 85.666 -59.5 117.999s-56.334 57 -92.001 74s-74.834 25.5 -117.501 25.5c-40.667 0 -78.667 -8.5 -114 -25.5s-66 -41.667 -92 -74s-46.5 -71.666 -61.5 -117.999s-22.5 -98.833 -22.5 -157.5zM95.0039 505c0 86 13 162.167 39 228.5s61 122.333 105 168
s95.333 80.167 154 103.5s121 35 187 35c68.667 0 131.5 -11.667 188.5 -35s106 -57.833 147 -103.5s72.833 -101.667 95.5 -168s34 -142.5 34 -228.5s-13 -162 -39 -228s-61 -121.333 -105 -166s-95.333 -78.5 -154 -101.5s-121 -34.5 -187 -34.5
c-68.667 0 -131.5 11.5 -188.5 34.5s-106 56.833 -147 101.5s-72.833 100 -95.5 166s-34 142 -34 228zM410.004 1600l350 -430h-160l-420 430h230z" />
    <glyph glyph-name="oacute" unicode="&#xf3;" horiz-adv-x="1140" 
d="M280 505c0 -58 7.00391 -110 21.0039 -156s33.833 -84.833 59.5 -116.5s56.167 -55.834 91.5 -72.501s74.666 -25 117.999 -25c40 0 77.667 8.33301 113 25s66.166 40.834 92.499 72.501s47 70.5 62 116.5s22.5 98 22.5 156c0 58.667 -7 111.167 -21 157.5
s-33.833 85.666 -59.5 117.999s-56.334 57 -92.001 74s-74.834 25.5 -117.501 25.5c-40.667 0 -78.667 -8.5 -114 -25.5s-66 -41.667 -92 -74s-46.5 -71.666 -61.5 -117.999s-22.5 -98.833 -22.5 -157.5zM95.0039 505c0 86 13 162.167 39 228.5s61 122.333 105 168
s95.333 80.167 154 103.5s121 35 187 35c68.667 0 131.5 -11.667 188.5 -35s106 -57.833 147 -103.5s72.833 -101.667 95.5 -168s34 -142.5 34 -228.5s-13 -162 -39 -228s-61 -121.333 -105 -166s-95.333 -78.5 -154 -101.5s-121 -34.5 -187 -34.5
c-68.667 0 -131.5 11.5 -188.5 34.5s-106 56.833 -147 101.5s-72.833 100 -95.5 166s-34 142 -34 228zM970.004 1600l-420 -430h-160l350 430h230z" />
    <glyph glyph-name="ocircumflex" unicode="&#xf4;" horiz-adv-x="1140" 
d="M280 505c0 -58 7.00391 -110 21.0039 -156s33.833 -84.833 59.5 -116.5s56.167 -55.834 91.5 -72.501s74.666 -25 117.999 -25c40 0 77.667 8.33301 113 25s66.166 40.834 92.499 72.501s47 70.5 62 116.5s22.5 98 22.5 156c0 58.667 -7 111.167 -21 157.5
s-33.833 85.666 -59.5 117.999s-56.334 57 -92.001 74s-74.834 25.5 -117.501 25.5c-40.667 0 -78.667 -8.5 -114 -25.5s-66 -41.667 -92 -74s-46.5 -71.666 -61.5 -117.999s-22.5 -98.833 -22.5 -157.5zM95.0039 505c0 86 13 162.167 39 228.5s61 122.333 105 168
s95.333 80.167 154 103.5s121 35 187 35c68.667 0 131.5 -11.667 188.5 -35s106 -57.833 147 -103.5s72.833 -101.667 95.5 -168s34 -142.5 34 -228.5s-13 -162 -39 -228s-61 -121.333 -105 -166s-95.333 -78.5 -154 -101.5s-121 -34.5 -187 -34.5
c-68.667 0 -131.5 11.5 -188.5 34.5s-106 56.833 -147 101.5s-72.833 100 -95.5 166s-34 142 -34 228zM145.004 1170l340 430h170l340 -430h-150l-275 280l-275 -280h-150z" />
    <glyph glyph-name="otilde" unicode="&#xf5;" horiz-adv-x="1140" 
d="M280 505c0 -58 7.00391 -110 21.0039 -156s33.833 -84.833 59.5 -116.5s56.167 -55.834 91.5 -72.501s74.666 -25 117.999 -25c40 0 77.667 8.33301 113 25s66.166 40.834 92.499 72.501s47 70.5 62 116.5s22.5 98 22.5 156c0 58.667 -7 111.167 -21 157.5
s-33.833 85.666 -59.5 117.999s-56.334 57 -92.001 74s-74.834 25.5 -117.501 25.5c-40.667 0 -78.667 -8.5 -114 -25.5s-66 -41.667 -92 -74s-46.5 -71.666 -61.5 -117.999s-22.5 -98.833 -22.5 -157.5zM95.0039 505c0 86 13 162.167 39 228.5s61 122.333 105 168
s95.333 80.167 154 103.5s121 35 187 35c68.667 0 131.5 -11.667 188.5 -35s106 -57.833 147 -103.5s72.833 -101.667 95.5 -168s34 -142.5 34 -228.5s-13 -162 -39 -228s-61 -121.333 -105 -166s-95.333 -78.5 -154 -101.5s-121 -34.5 -187 -34.5
c-68.667 0 -131.5 11.5 -188.5 34.5s-106 56.833 -147 101.5s-72.833 100 -95.5 166s-34 142 -34 228zM220.004 1205c0 30.667 4.50293 60.8311 13.5029 90.498s21.667 56.334 38 80.001s36.333 42.834 60 57.501s50.5 22 80.5 22c14 0 27.667 -1.33301 41 -4
s26.833 -6.5 40.5 -11.5s28 -10.667 43 -17s31.167 -12.833 48.5 -19.5l48.5 -20c14.333 -6 27.666 -11 39.999 -15s23.833 -7.16699 34.5 -9.5s21.334 -3.5 32.001 -3.5c23.333 0 42.5 8.33301 57.5 25s24.167 36.667 27.5 60h105c0 -32 -4.5 -63 -13.5 -93
s-22 -56.667 -39 -80s-37.833 -42 -62.5 -56s-52.334 -21 -83.001 -21c-26.667 0 -53.5 4.5 -80.5 13.5s-55.833 20.5 -86.5 34.5c-38.667 18 -69.5 31.167 -92.5 39.5s-43.833 12.5 -62.5 12.5c-24.667 0 -44.334 -8 -59.001 -24s-23.334 -36.333 -26.001 -61h-105z" />
    <glyph glyph-name="odieresis" unicode="&#xf6;" horiz-adv-x="1140" 
d="M280 505c0 -58 7.00391 -110 21.0039 -156s33.833 -84.833 59.5 -116.5s56.167 -55.834 91.5 -72.501s74.666 -25 117.999 -25c40 0 77.667 8.33301 113 25s66.166 40.834 92.499 72.501s47 70.5 62 116.5s22.5 98 22.5 156c0 58.667 -7 111.167 -21 157.5
s-33.833 85.666 -59.5 117.999s-56.334 57 -92.001 74s-74.834 25.5 -117.501 25.5c-40.667 0 -78.667 -8.5 -114 -25.5s-66 -41.667 -92 -74s-46.5 -71.666 -61.5 -117.999s-22.5 -98.833 -22.5 -157.5zM95.0039 505c0 86 13 162.167 39 228.5s61 122.333 105 168
s95.333 80.167 154 103.5s121 35 187 35c68.667 0 131.5 -11.667 188.5 -35s106 -57.833 147 -103.5s72.833 -101.667 95.5 -168s34 -142.5 34 -228.5s-13 -162 -39 -228s-61 -121.333 -105 -166s-95.333 -78.5 -154 -101.5s-121 -34.5 -187 -34.5
c-68.667 0 -131.5 11.5 -188.5 34.5s-106 56.833 -147 101.5s-72.833 100 -95.5 166s-34 142 -34 228zM230.004 1345c0 18.667 3.33301 36.167 10 52.5s15.834 30.666 27.501 42.999s25.334 22 41.001 29s32.834 10.5 51.501 10.5s36 -3.5 52 -10.5s29.667 -16.667 41 -29
s20.333 -26.666 27 -42.999s10 -33.833 10 -52.5s-3.33301 -36.167 -10 -52.5s-15.667 -30.666 -27 -42.999s-25 -22 -41 -29s-33.333 -10.5 -52 -10.5s-35.834 3.5 -51.501 10.5s-29.334 16.667 -41.001 29s-20.834 26.666 -27.501 42.999s-10 33.833 -10 52.5z
M650.004 1345c0 18.667 3.33301 36.167 10 52.5s15.834 30.666 27.501 42.999s25.334 22 41.001 29s32.834 10.5 51.501 10.5s36 -3.5 52 -10.5s29.667 -16.667 41 -29s20.333 -26.666 27 -42.999s10 -33.833 10 -52.5s-3.33301 -36.167 -10 -52.5
s-15.667 -30.666 -27 -42.999s-25 -22 -41 -29s-33.333 -10.5 -52 -10.5s-35.834 3.5 -51.501 10.5s-29.334 16.667 -41.001 29s-20.834 26.666 -27.501 42.999s-10 33.833 -10 52.5z" />
    <glyph glyph-name="divide" unicode="&#xf7;" horiz-adv-x="1200" 
d="M155 800h890v-150h-890v150zM458 1045c0 18.667 3.83301 36.5 11.5 53.5s18 31.833 31 44.5s28 22.667 45 30s35.167 11 54.5 11c18.667 0 36.334 -3.66699 53.001 -11s31.334 -17.333 44.001 -30s22.5 -27.5 29.5 -44.5s10.5 -34.833 10.5 -53.5
c0 -19.333 -3.5 -37.333 -10.5 -54s-16.833 -31.334 -29.5 -44.001s-27.334 -22.667 -44.001 -30s-34.334 -11 -53.001 -11c-19.333 0 -37.5 3.66699 -54.5 11s-32 17.333 -45 30s-23.333 27.334 -31 44.001s-11.5 34.667 -11.5 54zM458 407
c0 18.667 3.83301 36.5 11.5 53.5s18 31.667 31 44s28 22.166 45 29.499s35.167 11 54.5 11c18.667 0 36.334 -3.66699 53.001 -11s31.334 -17.166 44.001 -29.499s22.5 -27 29.5 -44s10.5 -34.833 10.5 -53.5c0 -19.333 -3.5 -37.333 -10.5 -54s-16.833 -31.5 -29.5 -44.5
s-27.334 -23.167 -44.001 -30.5s-34.334 -11 -53.001 -11c-19.333 0 -37.5 3.66699 -54.5 11s-32 17.5 -45 30.5s-23.333 27.833 -31 44.5s-11.5 34.667 -11.5 54z" />
    <glyph glyph-name="oslash" unicode="&#xf8;" horiz-adv-x="1140" 
d="M280 507c0 -52 5.49902 -98.833 16.499 -140.5s26.833 -78.5 47.5 -110.5l326 606c-31.333 12 -64.666 18 -99.999 18c-40.667 0 -78.667 -8.5 -114 -25.5s-66 -41.5 -92 -73.5s-46.5 -71 -61.5 -117s-22.5 -98.333 -22.5 -157zM859.999 507
c0 60 -7.33203 113.333 -21.999 160s-35.334 86 -62.001 118l-334 -620c36.667 -20 79.334 -30 128.001 -30c40 0 77.667 8.5 113 25.5s66.166 41.5 92.499 73.5s47 71 62 117s22.5 98 22.5 156zM948 1105l-84.001 -154.999c56.667 -44 101 -103 133 -177
s48 -162.667 48 -266c0 -86 -13 -162.167 -39 -228.5s-61 -122 -105 -167s-95.333 -79 -154 -102s-121 -34.5 -187 -34.5c-36.667 0 -71.5 3.33301 -104.5 10s-64.5 16.334 -94.5 29.001l-48 -89h-148l86 160c-49.333 45.333 -87.666 103.166 -114.999 173.499
s-41 153.166 -41 248.499c0 86 13 162.167 39 228.5s61 122 105 167s95.333 79.167 154 102.5s121 35 187 35c61.333 0 118.333 -9.66699 171 -29l51 94h146z" />
    <glyph glyph-name="ugrave" unicode="&#xf9;" horiz-adv-x="1185" 
d="M920 0c-4.66699 11.333 -9.66504 24.668 -14.998 40.001s-10.5 31.666 -15.5 48.999s-9.66699 35.5 -14 54.5s-7.83301 37.833 -10.5 56.5c-60.667 -74 -123.167 -130 -187.5 -168s-131.833 -57 -202.5 -57c-213.333 0 -320 143.333 -320 430v295
c0 32 -0.166992 61 -0.5 87s-1.16602 51.167 -2.49902 75.5s-3.33301 49.166 -6 74.499s-6.33398 53 -11.001 83h205v-555c0 -56.667 2.83301 -105.5 8.5 -146.5s15.167 -74.667 28.5 -101s30.833 -45.833 52.5 -58.5s48.5 -19 80.5 -19
c29.333 0 60.666 8.83301 93.999 26.5s65.166 40.167 95.499 67.5s58 57.5 83 90.5s44.167 64.833 57.5 95.5v280c0 32.667 -0.166992 62.167 -0.5 88.5s-1.16602 51.5 -2.49902 75.5s-3.33301 48.333 -6 73s-6.33398 52.334 -11.001 83.001h205v-570
c0 -97.333 5.5 -182.5 16.5 -255.5s27.167 -137.833 48.5 -194.5h-170zM429.002 1600l350 -430h-160l-420 430h230z" />
    <glyph glyph-name="uacute" unicode="&#xfa;" horiz-adv-x="1185" 
d="M920 0c-4.66699 11.333 -9.66504 24.668 -14.998 40.001s-10.5 31.666 -15.5 48.999s-9.66699 35.5 -14 54.5s-7.83301 37.833 -10.5 56.5c-60.667 -74 -123.167 -130 -187.5 -168s-131.833 -57 -202.5 -57c-213.333 0 -320 143.333 -320 430v295
c0 32 -0.166992 61 -0.5 87s-1.16602 51.167 -2.49902 75.5s-3.33301 49.166 -6 74.499s-6.33398 53 -11.001 83h205v-555c0 -56.667 2.83301 -105.5 8.5 -146.5s15.167 -74.667 28.5 -101s30.833 -45.833 52.5 -58.5s48.5 -19 80.5 -19
c29.333 0 60.666 8.83301 93.999 26.5s65.166 40.167 95.499 67.5s58 57.5 83 90.5s44.167 64.833 57.5 95.5v280c0 32.667 -0.166992 62.167 -0.5 88.5s-1.16602 51.5 -2.49902 75.5s-3.33301 48.333 -6 73s-6.33398 52.334 -11.001 83.001h205v-570
c0 -97.333 5.5 -182.5 16.5 -255.5s27.167 -137.833 48.5 -194.5h-170zM989.002 1600l-420 -430h-160l350 430h230z" />
    <glyph glyph-name="ucircumflex" unicode="&#xfb;" horiz-adv-x="1185" 
d="M920 0c-4.66699 11.333 -9.66504 24.668 -14.998 40.001s-10.5 31.666 -15.5 48.999s-9.66699 35.5 -14 54.5s-7.83301 37.833 -10.5 56.5c-60.667 -74 -123.167 -130 -187.5 -168s-131.833 -57 -202.5 -57c-213.333 0 -320 143.333 -320 430v295
c0 32 -0.166992 61 -0.5 87s-1.16602 51.167 -2.49902 75.5s-3.33301 49.166 -6 74.499s-6.33398 53 -11.001 83h205v-555c0 -56.667 2.83301 -105.5 8.5 -146.5s15.167 -74.667 28.5 -101s30.833 -45.833 52.5 -58.5s48.5 -19 80.5 -19
c29.333 0 60.666 8.83301 93.999 26.5s65.166 40.167 95.499 67.5s58 57.5 83 90.5s44.167 64.833 57.5 95.5v280c0 32.667 -0.166992 62.167 -0.5 88.5s-1.16602 51.5 -2.49902 75.5s-3.33301 48.333 -6 73s-6.33398 52.334 -11.001 83.001h205v-570
c0 -97.333 5.5 -182.5 16.5 -255.5s27.167 -137.833 48.5 -194.5h-170zM164.002 1170l340 430h170l340 -430h-150l-275 280l-275 -280h-150z" />
    <glyph glyph-name="udieresis" unicode="&#xfc;" horiz-adv-x="1185" 
d="M920 0c-4.66699 11.333 -9.66504 24.668 -14.998 40.001s-10.5 31.666 -15.5 48.999s-9.66699 35.5 -14 54.5s-7.83301 37.833 -10.5 56.5c-60.667 -74 -123.167 -130 -187.5 -168s-131.833 -57 -202.5 -57c-213.333 0 -320 143.333 -320 430v295
c0 32 -0.166992 61 -0.5 87s-1.16602 51.167 -2.49902 75.5s-3.33301 49.166 -6 74.499s-6.33398 53 -11.001 83h205v-555c0 -56.667 2.83301 -105.5 8.5 -146.5s15.167 -74.667 28.5 -101s30.833 -45.833 52.5 -58.5s48.5 -19 80.5 -19
c29.333 0 60.666 8.83301 93.999 26.5s65.166 40.167 95.499 67.5s58 57.5 83 90.5s44.167 64.833 57.5 95.5v280c0 32.667 -0.166992 62.167 -0.5 88.5s-1.16602 51.5 -2.49902 75.5s-3.33301 48.333 -6 73s-6.33398 52.334 -11.001 83.001h205v-570
c0 -97.333 5.5 -182.5 16.5 -255.5s27.167 -137.833 48.5 -194.5h-170zM249.002 1345c0 18.667 3.33301 36.167 10 52.5s15.834 30.666 27.501 42.999s25.334 22 41.001 29s32.834 10.5 51.501 10.5s36 -3.5 52 -10.5s29.667 -16.667 41 -29s20.333 -26.666 27 -42.999
s10 -33.833 10 -52.5s-3.33301 -36.167 -10 -52.5s-15.667 -30.666 -27 -42.999s-25 -22 -41 -29s-33.333 -10.5 -52 -10.5s-35.834 3.5 -51.501 10.5s-29.334 16.667 -41.001 29s-20.834 26.666 -27.501 42.999s-10 33.833 -10 52.5zM669.002 1345
c0 18.667 3.33301 36.167 10 52.5s15.834 30.666 27.501 42.999s25.334 22 41.001 29s32.834 10.5 51.501 10.5s36 -3.5 52 -10.5s29.667 -16.667 41 -29s20.333 -26.666 27 -42.999s10 -33.833 10 -52.5s-3.33301 -36.167 -10 -52.5s-15.667 -30.666 -27 -42.999
s-25 -22 -41 -29s-33.333 -10.5 -52 -10.5s-35.834 3.5 -51.501 10.5s-29.334 16.667 -41.001 29s-20.834 26.666 -27.501 42.999s-10 33.833 -10 52.5z" />
    <glyph glyph-name="yacute" unicode="&#xfd;" horiz-adv-x="1060" 
d="M655 0c-34.667 -96 -68.666 -174.335 -101.999 -235.002s-67.166 -108.5 -101.499 -143.5s-70 -59 -107 -72s-76.833 -19.5 -119.5 -19.5c-46 0 -89.167 7.33301 -129.5 22s-78.833 35.667 -115.5 63l60 160c10.667 -8.66699 23.167 -17.5 37.5 -26.5
s29.666 -17 45.999 -24s33.166 -12.833 50.499 -17.5s34.333 -7 51 -7c20 0 39.667 3.5 59 10.5s38.833 20.333 58.5 40s39.834 47.334 60.501 83.001s42.667 82.5 66 140.5l-279 691l-65 153c-24.667 56.667 -56.334 124 -95.001 202h200l323 -817l41.5 117.5l46.5 131
l48 136l46 131.5l105 301h200l-47 -107.5l-39 -93l-32.5 -81.5c-9.66699 -25.333 -18.5 -49.666 -26.5 -72.999zM935.001 1600l-420 -430h-160l350 430h230z" />
    <glyph glyph-name="thorn" unicode="&#xfe;" horiz-adv-x="1170" 
d="M340 260c34 -24 63.502 -43.833 88.502 -59.5s47.833 -28 68.5 -37s40.5 -15.167 59.5 -18.5s40.167 -5 63.5 -5c35.333 0 69.166 8.33301 101.499 25s61 40.834 86 72.501s45 70 60 115s22.5 95.833 22.5 152.5c0 55.333 -5.16699 105.5 -15.5 150.5
s-25.5 83.333 -45.5 115s-44.167 56.167 -72.5 73.5s-60.5 26 -96.5 26c-28.667 0 -58 -6.33301 -88 -19s-59.167 -31.334 -87.5 -56.001s-54.833 -55.5 -79.5 -92.5s-46.334 -79.5 -65.001 -127.5v-315zM340.002 1600l0.00488281 -751.002
c19.333 24.667 41.666 48.5 66.999 71.5s53.166 43.333 83.499 61s62.666 31.834 96.999 42.501s70.166 16 107.499 16c56.667 0 108.5 -12.5 155.5 -37.5s87 -60 120 -105s58.667 -98.333 77 -160s27.5 -129.167 27.5 -202.5c0 -85.333 -12 -162.5 -36 -231.5
s-56.5 -127.833 -97.5 -176.5s-89.167 -86.167 -144.5 -112.5s-114.333 -39.5 -177 -39.5c-26.667 0 -51.834 2.66699 -75.501 8s-46.667 12.666 -69 21.999s-44.5 20.833 -66.5 34.5s-45 28.834 -69 45.501v-235c0 -40 0.5 -76.167 1.5 -108.5s2.5 -62.166 4.5 -89.499
s4.66699 -52.5 8 -75.5s7 -45.167 11 -66.5h-210v1620c0 97.333 -1.66699 185.5 -5 264.5s-8.33301 147.5 -15 205.5h205z" />
    <glyph glyph-name="ydieresis" unicode="&#xff;" horiz-adv-x="1060" 
d="M655 0c-34.667 -96 -68.666 -174.335 -101.999 -235.002s-67.166 -108.5 -101.499 -143.5s-70 -59 -107 -72s-76.833 -19.5 -119.5 -19.5c-46 0 -89.167 7.33301 -129.5 22s-78.833 35.667 -115.5 63l60 160c10.667 -8.66699 23.167 -17.5 37.5 -26.5
s29.666 -17 45.999 -24s33.166 -12.833 50.499 -17.5s34.333 -7 51 -7c20 0 39.667 3.5 59 10.5s38.833 20.333 58.5 40s39.834 47.334 60.501 83.001s42.667 82.5 66 140.5l-279 691l-65 153c-24.667 56.667 -56.334 124 -95.001 202h200l323 -817l41.5 117.5l46.5 131
l48 136l46 131.5l105 301h200l-47 -107.5l-39 -93l-32.5 -81.5c-9.66699 -25.333 -18.5 -49.666 -26.5 -72.999zM195.001 1345c0 18.667 3.33301 36.167 10 52.5s15.834 30.666 27.501 42.999s25.334 22 41.001 29s32.834 10.5 51.501 10.5s36 -3.5 52 -10.5
s29.667 -16.667 41 -29s20.333 -26.666 27 -42.999s10 -33.833 10 -52.5s-3.33301 -36.167 -10 -52.5s-15.667 -30.666 -27 -42.999s-25 -22 -41 -29s-33.333 -10.5 -52 -10.5s-35.834 3.5 -51.501 10.5s-29.334 16.667 -41.001 29s-20.834 26.666 -27.501 42.999
s-10 33.833 -10 52.5zM615.001 1345c0 18.667 3.33301 36.167 10 52.5s15.834 30.666 27.501 42.999s25.334 22 41.001 29s32.834 10.5 51.501 10.5s36 -3.5 52 -10.5s29.667 -16.667 41 -29s20.333 -26.666 27 -42.999s10 -33.833 10 -52.5s-3.33301 -36.167 -10 -52.5
s-15.667 -30.666 -27 -42.999s-25 -22 -41 -29s-33.333 -10.5 -52 -10.5s-35.834 3.5 -51.501 10.5s-29.334 16.667 -41.001 29s-20.834 26.666 -27.501 42.999s-10 33.833 -10 52.5z" />
    <glyph glyph-name="Amacron" unicode="&#x100;" horiz-adv-x="1395" 
d="M685 1265l-252 -725h507zM40 0l27 63l30.5 74.5l36.5 94.5l46 123l400 1105h215l400 -1105l45 -123l37 -94.5l31 -74.5l27 -63h-205l-136 385h-615l-134 -385h-205zM312 1820h750v-150h-750v150z" />
    <glyph glyph-name="amacron.SngStory" unicode="&#x101;" horiz-adv-x="1150" 
d="M805 862c-8 2 -16.999 3.99902 -26.999 5.99902s-21.833 4 -35.5 6s-29.667 3.5 -48 4.5s-39.833 1.5 -64.5 1.5c-65.333 0 -119.833 -13.167 -163.5 -39.5s-78.5 -61.333 -104.5 -105s-44.5 -93.834 -55.5 -150.501s-16.5 -115 -16.5 -175
c0 -38.667 3.83301 -74.167 11.5 -106.5s18.167 -60.333 31.5 -84s28.666 -42 45.999 -55s36 -19.5 56 -19.5c29.333 0 58.833 11.333 88.5 34s58.167 51.834 85.5 87.501s53 75.667 77 120s44.833 88.333 62.5 132s31.5 84.834 41.5 123.501s15 69.667 15 93v127z
M880.001 -0.000976562c-7.33301 16 -13.8311 37.998 -19.498 65.998s-10.334 57.833 -14.001 89.5s-6.5 63.167 -8.5 94.5s-3 58 -3 80v80c-20 -52 -43.833 -103.833 -71.5 -155.5s-59.334 -98.167 -95.001 -139.5s-75.5 -75 -119.5 -101s-92 -39 -144 -39
c-42 0 -81.333 9.33301 -118 28s-68.5 46.334 -95.5 83.001s-48.167 82.167 -63.5 136.5s-23 116.833 -23 187.5c0 79.333 10.667 156.833 32 232.5s54 143 98 202s100 106.333 168 142s148.667 53.5 242 53.5c64.667 0 125.667 -4.16699 183 -12.5
s111.333 -19.166 162 -32.499v-465c0 -126 6 -231.833 18 -317.5s27.667 -156.5 47 -212.5h-175zM220.003 1390h750v-150h-750v150z" />
    <glyph glyph-name="Abreve" unicode="&#x102;" horiz-adv-x="1395" 
d="M685 1265l-252 -725h507zM40 0l27 63l30.5 74.5l36.5 94.5l46 123l400 1105h215l400 -1105l45 -123l37 -94.5l31 -74.5l27 -63h-205l-136 385h-615l-134 -385h-205zM1062 1980c0 -48.667 -8.6709 -96.834 -26.0039 -144.501s-42.166 -90.5 -74.499 -128.5
s-71.666 -68.667 -117.999 -92s-98.5 -35 -156.5 -35c-58.667 0 -111.167 11.667 -157.5 35s-85.666 54 -117.999 92s-57 80.833 -74 128.5s-25.5 95.834 -25.5 144.501h120c4 -34 13.5 -66 28.5 -96s33.833 -56.5 56.5 -79.5s48.5 -41.167 77.5 -54.5s59.833 -20 92.5 -20
s63.334 6.66699 92.001 20s54 31.5 76 54.5s40.333 49.5 55 79.5s24.667 62 30 96h122z" />
    <glyph glyph-name="abreve.SngStory" unicode="&#x103;" horiz-adv-x="1150" 
d="M805 862c-8 2 -16.999 3.99902 -26.999 5.99902s-21.833 4 -35.5 6s-29.667 3.5 -48 4.5s-39.833 1.5 -64.5 1.5c-65.333 0 -119.833 -13.167 -163.5 -39.5s-78.5 -61.333 -104.5 -105s-44.5 -93.834 -55.5 -150.501s-16.5 -115 -16.5 -175
c0 -38.667 3.83301 -74.167 11.5 -106.5s18.167 -60.333 31.5 -84s28.666 -42 45.999 -55s36 -19.5 56 -19.5c29.333 0 58.833 11.333 88.5 34s58.167 51.834 85.5 87.501s53 75.667 77 120s44.833 88.333 62.5 132s31.5 84.834 41.5 123.501s15 69.667 15 93v127z
M880.001 -0.000976562c-7.33301 16 -13.8311 37.998 -19.498 65.998s-10.334 57.833 -14.001 89.5s-6.5 63.167 -8.5 94.5s-3 58 -3 80v80c-20 -52 -43.833 -103.833 -71.5 -155.5s-59.334 -98.167 -95.001 -139.5s-75.5 -75 -119.5 -101s-92 -39 -144 -39
c-42 0 -81.333 9.33301 -118 28s-68.5 46.334 -95.5 83.001s-48.167 82.167 -63.5 136.5s-23 116.833 -23 187.5c0 79.333 10.667 156.833 32 232.5s54 143 98 202s100 106.333 168 142s148.667 53.5 242 53.5c64.667 0 125.667 -4.16699 183 -12.5
s111.333 -19.166 162 -32.499v-465c0 -126 6 -231.833 18 -317.5s27.667 -156.5 47 -212.5h-175zM970.003 1550c0 -48.667 -8.6709 -96.834 -26.0039 -144.501s-42.166 -90.5 -74.499 -128.5s-71.666 -68.667 -117.999 -92s-98.5 -35 -156.5 -35
c-58.667 0 -111.167 11.667 -157.5 35s-85.666 54 -117.999 92s-57 80.833 -74 128.5s-25.5 95.834 -25.5 144.501h120c4 -34 13.5 -66 28.5 -96s33.833 -56.5 56.5 -79.5s48.5 -41.167 77.5 -54.5s59.833 -20 92.5 -20s63.334 6.66699 92.001 20s54 31.5 76 54.5
s40.333 49.5 55 79.5s24.667 62 30 96h122z" />
    <glyph glyph-name="Cacute" unicode="&#x106;" horiz-adv-x="1355" 
d="M1230 140c-29.333 -27.333 -63.6641 -51.168 -102.997 -71.501s-80.5 -37.5 -123.5 -51.5s-86.5 -24.5 -130.5 -31.5s-85 -10.5 -123 -10.5c-101.333 0 -192.333 17.167 -273 51.5s-149.334 83.333 -206.001 147s-100.167 140.834 -130.5 231.501
s-45.5 192.334 -45.5 305.001c0 128.667 18.667 241.5 56 338.5s87.166 177.833 149.499 242.5s134.166 113.167 215.499 145.5s166 48.5 254 48.5c36 0 72.667 -2.33301 110 -7s74.833 -12.334 112.5 -23.001s75.167 -25 112.5 -43s74 -40.333 110 -67l-60 -180
c-31.333 28 -63.333 51.667 -96 71s-65.334 34.833 -98.001 46.5s-65.167 20 -97.5 25s-63.5 7.5 -93.5 7.5c-70 0 -134.333 -12.167 -193 -36.5s-109.167 -60.833 -151.5 -109.5s-75.5 -109.167 -99.5 -181.5s-36 -156.5 -36 -252.5c0 -90 11.833 -171 35.5 -243
s56.334 -133.333 98.001 -184s91.167 -89.667 148.5 -117s120 -41 188 -41c38 0 76.5 4.33301 115.5 13s77.167 21.167 114.5 37.5s73 35.833 107 58.5s65 48 93 76zM1150 2030l-420 -430h-160l350 430h230z" />
    <glyph glyph-name="cacute" unicode="&#x107;" horiz-adv-x="1020" 
d="M925 85c-25.333 -19.333 -50.5029 -35.834 -75.5029 -49.501s-51.167 -25 -78.5 -34s-56.666 -15.667 -87.999 -20s-65.666 -6.5 -102.999 -6.5c-67.333 0 -130.333 11.833 -189 35.5s-110 57.834 -154 102.501s-78.667 98.667 -104 162s-38 135 -38 215
c0 75.333 12.167 146.333 36.5 213s59 125 104 175s99.667 89.5 164 118.5s136.166 43.5 215.499 43.5c66.667 0 124.167 -7.83301 172.5 -23.5s90.833 -36.167 127.5 -61.5l-35 -180c-45.333 33.333 -90.333 58.333 -135 75s-93 25 -145 25
c-44.667 0 -86.167 -8.5 -124.5 -25.5s-71.666 -41.5 -99.999 -73.5s-50.5 -71.333 -66.5 -118s-24 -99.334 -24 -158.001c0 -54 7.33301 -103 22 -147s35.667 -81.833 63 -113.5s60.333 -56.167 99 -73.5s82.334 -26 131.001 -26c60.667 0 115.667 10.333 165 31
s96 50.334 140 89.001zM969.997 1600l-420 -430h-160l350 430h230z" />
    <glyph glyph-name="Ccircumflex" unicode="&#x108;" horiz-adv-x="1355" 
d="M1230 140c-29.333 -27.333 -63.6641 -51.168 -102.997 -71.501s-80.5 -37.5 -123.5 -51.5s-86.5 -24.5 -130.5 -31.5s-85 -10.5 -123 -10.5c-101.333 0 -192.333 17.167 -273 51.5s-149.334 83.333 -206.001 147s-100.167 140.834 -130.5 231.501
s-45.5 192.334 -45.5 305.001c0 128.667 18.667 241.5 56 338.5s87.166 177.833 149.499 242.5s134.166 113.167 215.499 145.5s166 48.5 254 48.5c36 0 72.667 -2.33301 110 -7s74.833 -12.334 112.5 -23.001s75.167 -25 112.5 -43s74 -40.333 110 -67l-60 -180
c-31.333 28 -63.333 51.667 -96 71s-65.334 34.833 -98.001 46.5s-65.167 20 -97.5 25s-63.5 7.5 -93.5 7.5c-70 0 -134.333 -12.167 -193 -36.5s-109.167 -60.833 -151.5 -109.5s-75.5 -109.167 -99.5 -181.5s-36 -156.5 -36 -252.5c0 -90 11.833 -171 35.5 -243
s56.334 -133.333 98.001 -184s91.167 -89.667 148.5 -117s120 -41 188 -41c38 0 76.5 4.33301 115.5 13s77.167 21.167 114.5 37.5s73 35.833 107 58.5s65 48 93 76zM325.002 1600l340 430h170l340 -430h-150l-275 280l-275 -280h-150z" />
    <glyph glyph-name="ccircumflex" unicode="&#x109;" horiz-adv-x="1020" 
d="M925 85c-25.333 -19.333 -50.5029 -35.834 -75.5029 -49.501s-51.167 -25 -78.5 -34s-56.666 -15.667 -87.999 -20s-65.666 -6.5 -102.999 -6.5c-67.333 0 -130.333 11.833 -189 35.5s-110 57.834 -154 102.501s-78.667 98.667 -104 162s-38 135 -38 215
c0 75.333 12.167 146.333 36.5 213s59 125 104 175s99.667 89.5 164 118.5s136.166 43.5 215.499 43.5c66.667 0 124.167 -7.83301 172.5 -23.5s90.833 -36.167 127.5 -61.5l-35 -180c-45.333 33.333 -90.333 58.333 -135 75s-93 25 -145 25
c-44.667 0 -86.167 -8.5 -124.5 -25.5s-71.666 -41.5 -99.999 -73.5s-50.5 -71.333 -66.5 -118s-24 -99.334 -24 -158.001c0 -54 7.33301 -103 22 -147s35.667 -81.833 63 -113.5s60.333 -56.167 99 -73.5s82.334 -26 131.001 -26c60.667 0 115.667 10.333 165 31
s96 50.334 140 89.001zM144.997 1170l340 430h170l340 -430h-150l-275 280l-275 -280h-150z" />
    <glyph glyph-name="Cdotaccent" unicode="&#x10a;" horiz-adv-x="1355" 
d="M1230 140c-29.333 -27.333 -63.6641 -51.168 -102.997 -71.501s-80.5 -37.5 -123.5 -51.5s-86.5 -24.5 -130.5 -31.5s-85 -10.5 -123 -10.5c-101.333 0 -192.333 17.167 -273 51.5s-149.334 83.333 -206.001 147s-100.167 140.834 -130.5 231.501
s-45.5 192.334 -45.5 305.001c0 128.667 18.667 241.5 56 338.5s87.166 177.833 149.499 242.5s134.166 113.167 215.499 145.5s166 48.5 254 48.5c36 0 72.667 -2.33301 110 -7s74.833 -12.334 112.5 -23.001s75.167 -25 112.5 -43s74 -40.333 110 -67l-60 -180
c-31.333 28 -63.333 51.667 -96 71s-65.334 34.833 -98.001 46.5s-65.167 20 -97.5 25s-63.5 7.5 -93.5 7.5c-70 0 -134.333 -12.167 -193 -36.5s-109.167 -60.833 -151.5 -109.5s-75.5 -109.167 -99.5 -181.5s-36 -156.5 -36 -252.5c0 -90 11.833 -171 35.5 -243
s56.334 -133.333 98.001 -184s91.167 -89.667 148.5 -117s120 -41 188 -41c38 0 76.5 4.33301 115.5 13s77.167 21.167 114.5 37.5s73 35.833 107 58.5s65 48 93 76zM615.002 1775c0 18.667 3.5 36.167 10.5 52.5s16.667 30.666 29 42.999s26.666 22 42.999 29
s33.833 10.5 52.5 10.5s36.167 -3.5 52.5 -10.5s30.666 -16.667 42.999 -29s22 -26.666 29 -42.999s10.5 -33.833 10.5 -52.5s-3.5 -36.167 -10.5 -52.5s-16.667 -30.666 -29 -42.999s-26.666 -22 -42.999 -29s-33.833 -10.5 -52.5 -10.5s-36.167 3.5 -52.5 10.5
s-30.666 16.667 -42.999 29s-22 26.666 -29 42.999s-10.5 33.833 -10.5 52.5z" />
    <glyph glyph-name="cdotaccent" unicode="&#x10b;" horiz-adv-x="1020" 
d="M925 85c-25.333 -19.333 -50.5029 -35.834 -75.5029 -49.501s-51.167 -25 -78.5 -34s-56.666 -15.667 -87.999 -20s-65.666 -6.5 -102.999 -6.5c-67.333 0 -130.333 11.833 -189 35.5s-110 57.834 -154 102.501s-78.667 98.667 -104 162s-38 135 -38 215
c0 75.333 12.167 146.333 36.5 213s59 125 104 175s99.667 89.5 164 118.5s136.166 43.5 215.499 43.5c66.667 0 124.167 -7.83301 172.5 -23.5s90.833 -36.167 127.5 -61.5l-35 -180c-45.333 33.333 -90.333 58.333 -135 75s-93 25 -145 25
c-44.667 0 -86.167 -8.5 -124.5 -25.5s-71.666 -41.5 -99.999 -73.5s-50.5 -71.333 -66.5 -118s-24 -99.334 -24 -158.001c0 -54 7.33301 -103 22 -147s35.667 -81.833 63 -113.5s60.333 -56.167 99 -73.5s82.334 -26 131.001 -26c60.667 0 115.667 10.333 165 31
s96 50.334 140 89.001zM434.997 1345c0 18.667 3.5 36.167 10.5 52.5s16.667 30.666 29 42.999s26.666 22 42.999 29s33.833 10.5 52.5 10.5s36.167 -3.5 52.5 -10.5s30.666 -16.667 42.999 -29s22 -26.666 29 -42.999s10.5 -33.833 10.5 -52.5s-3.5 -36.167 -10.5 -52.5
s-16.667 -30.666 -29 -42.999s-26.666 -22 -42.999 -29s-33.833 -10.5 -52.5 -10.5s-36.167 3.5 -52.5 10.5s-30.666 16.667 -42.999 29s-22 26.666 -29 42.999s-10.5 33.833 -10.5 52.5z" />
    <glyph glyph-name="Ccaron" unicode="&#x10c;" horiz-adv-x="1355" 
d="M1230 140c-29.333 -27.333 -63.6641 -51.168 -102.997 -71.501s-80.5 -37.5 -123.5 -51.5s-86.5 -24.5 -130.5 -31.5s-85 -10.5 -123 -10.5c-101.333 0 -192.333 17.167 -273 51.5s-149.334 83.333 -206.001 147s-100.167 140.834 -130.5 231.501
s-45.5 192.334 -45.5 305.001c0 128.667 18.667 241.5 56 338.5s87.166 177.833 149.499 242.5s134.166 113.167 215.499 145.5s166 48.5 254 48.5c36 0 72.667 -2.33301 110 -7s74.833 -12.334 112.5 -23.001s75.167 -25 112.5 -43s74 -40.333 110 -67l-60 -180
c-31.333 28 -63.333 51.667 -96 71s-65.334 34.833 -98.001 46.5s-65.167 20 -97.5 25s-63.5 7.5 -93.5 7.5c-70 0 -134.333 -12.167 -193 -36.5s-109.167 -60.833 -151.5 -109.5s-75.5 -109.167 -99.5 -181.5s-36 -156.5 -36 -252.5c0 -90 11.833 -171 35.5 -243
s56.334 -133.333 98.001 -184s91.167 -89.667 148.5 -117s120 -41 188 -41c38 0 76.5 4.33301 115.5 13s77.167 21.167 114.5 37.5s73 35.833 107 58.5s65 48 93 76zM475.002 2030l275 -280l275 280h150l-340 -430h-170l-340 430h150z" />
    <glyph glyph-name="ccaron" unicode="&#x10d;" horiz-adv-x="1020" 
d="M925 85c-25.333 -19.333 -50.5029 -35.834 -75.5029 -49.501s-51.167 -25 -78.5 -34s-56.666 -15.667 -87.999 -20s-65.666 -6.5 -102.999 -6.5c-67.333 0 -130.333 11.833 -189 35.5s-110 57.834 -154 102.501s-78.667 98.667 -104 162s-38 135 -38 215
c0 75.333 12.167 146.333 36.5 213s59 125 104 175s99.667 89.5 164 118.5s136.166 43.5 215.499 43.5c66.667 0 124.167 -7.83301 172.5 -23.5s90.833 -36.167 127.5 -61.5l-35 -180c-45.333 33.333 -90.333 58.333 -135 75s-93 25 -145 25
c-44.667 0 -86.167 -8.5 -124.5 -25.5s-71.666 -41.5 -99.999 -73.5s-50.5 -71.333 -66.5 -118s-24 -99.334 -24 -158.001c0 -54 7.33301 -103 22 -147s35.667 -81.833 63 -113.5s60.333 -56.167 99 -73.5s82.334 -26 131.001 -26c60.667 0 115.667 10.333 165 31
s96 50.334 140 89.001zM294.997 1600l275 -280l275 280h150l-340 -430h-170l-340 430h150z" />
    <glyph glyph-name="Dcaron" unicode="&#x10e;" horiz-adv-x="1435" 
d="M175 455l0.000976562 688.002c0 46.667 -0.5 90.167 -1.5 130.5s-2.5 76.5 -4.5 108.5s-5 58 -9 78l53.5 2.5c21.667 1 45.667 1.83301 72 2.5s54 1.33398 83 2.00098s58 1.16699 87 1.5l84.5 1c27.333 0.333008 52.333 0.5 75 0.5c26.667 0 57.167 -1.5 91.5 -4.5
s70.333 -8.83301 108 -17.5s76.334 -20.834 116.001 -36.501s78 -36.167 115 -61.5s71.833 -56 104.5 -92s61.167 -78.667 85.5 -128s43.666 -106.166 57.999 -170.499s21.5 -137.5 21.5 -219.5c0 -99.333 -11 -186.833 -33 -262.5s-51.5 -141.167 -88.5 -196.5
s-79.833 -101.666 -128.5 -138.999s-99.667 -67.333 -153 -90s-107.333 -38.667 -162 -48s-106.334 -14 -155.001 -14c-16 0 -34.5 0.166992 -55.5 0.5s-43.167 0.666016 -66.5 0.999023s-47.333 0.833008 -72 1.5l-72 2c-54.667 1.33301 -111 3 -169 5
c4 20 6.83301 45.667 8.5 77s3 66.666 4 105.999s1.66699 82.166 2 128.499s0.5 94.166 0.5 143.499zM365.001 165.002c23.333 -2 53.833 -4.16992 91.5 -6.50293s80.5 -3.5 128.5 -3.5c44.667 0 88.834 4.33301 132.501 13s85.334 22.5 125.001 41.5s76.5 43.5 110.5 73.5
s63.333 65.833 88 107.5s44 89.834 58 144.501s21 116.334 21 185.001c0 112 -14.167 205.667 -42.5 281s-66.5 135.833 -114.5 181.5s-104.167 78.334 -168.5 98.001s-132.5 29.5 -204.5 29.5c-16.667 0 -35.334 -0.166992 -56.001 -0.5s-41.5 -0.833008 -62.5 -1.5
s-40.833 -1.16699 -59.5 -1.5s-34.334 -0.833008 -47.001 -1.5v-1140zM440.001 2030l275 -280l275 280h150l-340 -430h-170l-340 430h150z" />
    <glyph glyph-name="Dcroat" unicode="&#x110;" horiz-adv-x="1435" 
d="M175 835l0.000976562 308.002c0 46.667 -0.5 90.167 -1.5 130.5s-2.5 76.5 -4.5 108.5s-5 58 -9 78l53.5 2.5c21.667 1 45.667 1.83301 72 2.5s54 1.33398 83 2.00098s58 1.16699 87 1.5l84.5 1c27.333 0.333008 52.333 0.5 75 0.5c26.667 0 57.167 -1.5 91.5 -4.5
s70.333 -8.83301 108 -17.5s76.334 -20.834 116.001 -36.501s78 -36.167 115 -61.5s71.833 -56 104.5 -92s61.167 -78.667 85.5 -128s43.666 -106.166 57.999 -170.499s21.5 -137.5 21.5 -219.5c0 -99.333 -11 -186.833 -33 -262.5s-51.5 -141.167 -88.5 -196.5
s-79.833 -101.666 -128.5 -138.999s-99.667 -67.333 -153 -90s-107.333 -38.667 -162 -48s-106.334 -14 -155.001 -14c-16 0 -34.5 0.166992 -55.5 0.5s-43.167 0.666016 -66.5 0.999023s-47.333 0.833008 -72 1.5l-72 2c-54.667 1.33301 -111 3 -169 5
c4 20 6.83301 45.667 8.5 77s3 66.666 4 105.999s1.66699 82.166 2 128.499s0.5 94.166 0.5 143.499v235h-175v145h175zM365.001 835.002l380 -0.00292969v-145h-380v-525c23.333 -2 53.833 -4.16699 91.5 -6.5s80.5 -3.5 128.5 -3.5c44.667 0 88.834 4.33301 132.501 13
s85.334 22.5 125.001 41.5s76.5 43.5 110.5 73.5s63.333 65.833 88 107.5s44 89.834 58 144.501s21 116.334 21 185.001c0 112 -14.167 205.667 -42.5 281s-66.5 135.833 -114.5 181.5s-104.167 78.334 -168.5 98.001s-132.5 29.5 -204.5 29.5
c-16.667 0 -35.334 -0.166992 -56.001 -0.5s-41.5 -0.833008 -62.5 -1.5s-40.833 -1.16699 -59.5 -1.5s-34.334 -0.833008 -47.001 -1.5v-470z" />
    <glyph glyph-name="dcroat" unicode="&#x111;" horiz-adv-x="1190" 
d="M845 795c-24.667 13.333 -47.668 24.666 -69.001 33.999s-42.333 17 -63 23s-41.667 10.5 -63 13.5s-44.666 4.5 -69.999 4.5c-38 0 -74.333 -8.66699 -109 -26s-65.5 -42.333 -92.5 -75s-48.5 -72.5 -64.5 -119.5s-24 -100.167 -24 -159.5
c0 -116.667 19.833 -205 59.5 -265s103.167 -90 190.5 -90c30.667 0 61.167 7.66699 91.5 23s59 35.333 86 60s51.5 52.834 73.5 84.501s40 64.167 54 97.5v395zM564.999 1310l278.998 0.00390625c-1.33301 62 -3.66602 116.833 -6.99902 164.5s-9 89.5 -17 125.5h210v-290
h160v-135h-160v-645c0 -126 7.16699 -231.833 21.5 -317.5s32.166 -156.5 53.499 -212.5h-180c-7.33301 17.333 -16.166 43.166 -26.499 77.499s-19.833 70.166 -28.5 107.499c-48 -68 -102.333 -120 -163 -156s-128 -54 -202 -54c-61.333 0 -116.5 11.5 -165.5 34.5
s-91 55.667 -126 98s-61.833 93.333 -80.5 153s-28 126.167 -28 199.5c0 88.667 12.167 168.667 36.5 240s57.833 132.166 100.5 182.499s92.834 89.166 150.501 116.499s120.167 41 187.5 41c21.333 0 43.5 -2.33301 66.5 -7s46 -11 69 -19s45.5 -17.167 67.5 -27.5
s42.667 -20.833 62 -31.5v220h-280v135z" />
    <glyph glyph-name="Emacron" unicode="&#x112;" horiz-adv-x="1160" 
d="M935 845l0.000976562 -160.001h-570v-520h264c99.333 0 182.666 0.666992 249.999 2s121 5.66602 161 12.999v-180h-880c7.33301 40 11.666 97.833 12.999 173.5s2 162.834 2 261.501v590c0 98.667 -0.666992 185.834 -2 261.501s-5.66602 133.5 -12.999 173.5h850v-165
h-645v-450h570zM225.001 1820h750v-150h-750v150z" />
    <glyph glyph-name="emacron" unicode="&#x113;" horiz-adv-x="1095" 
d="M280 485c2 -58.667 11.1719 -109.672 27.5049 -153.005s38.666 -79.166 66.999 -107.499s61.666 -49.5 99.999 -63.5s80.166 -21 125.499 -21c64.667 0 128 7.33301 190 22s123.667 40.667 185 78l20 -165c-35.333 -18 -70 -33.333 -104 -46s-68 -23 -102 -31
s-68.5 -13.833 -103.5 -17.5s-71.833 -5.5 -110.5 -5.5c-64 0 -125 11.167 -183 33.5s-109 55.333 -153 99s-79 97.834 -105 162.501s-39 139.667 -39 225c0 82.667 11.167 157.5 33.5 224.5s54.166 124.333 95.499 172s91.666 84.334 150.999 110.001s126 38.5 200 38.5
c54.667 0 103 -6.5 145 -19.5s78.333 -31 109 -54s56.334 -49.833 77.001 -80.5s37.167 -63.667 49.5 -99s21.166 -72.166 26.499 -110.499s8 -76.166 8 -113.499v-39c0 -16.667 -0.333008 -29.667 -1 -39h-709zM560.005 889.995c-73.333 0 -133.333 -21.5 -180 -64.5
s-77.334 -109.833 -92.001 -200.5h522c0 42.667 -6.16699 80.5 -18.5 113.5s-29.666 60.833 -51.999 83.5s-48.833 39.667 -79.5 51s-64 17 -100 17zM194.005 1390h750v-150h-750v150z" />
    <glyph glyph-name="Ebreve" unicode="&#x114;" horiz-adv-x="1160" 
d="M935 845l0.000976562 -160.001h-570v-520h264c99.333 0 182.666 0.666992 249.999 2s121 5.66602 161 12.999v-180h-880c7.33301 40 11.666 97.833 12.999 173.5s2 162.834 2 261.501v590c0 98.667 -0.666992 185.834 -2 261.501s-5.66602 133.5 -12.999 173.5h850v-165
h-645v-450h570zM975.001 1980c0 -48.667 -8.6709 -96.834 -26.0039 -144.501s-42.166 -90.5 -74.499 -128.5s-71.666 -68.667 -117.999 -92s-98.5 -35 -156.5 -35c-58.667 0 -111.167 11.667 -157.5 35s-85.666 54 -117.999 92s-57 80.833 -74 128.5
s-25.5 95.834 -25.5 144.501h120c4 -34 13.5 -66 28.5 -96s33.833 -56.5 56.5 -79.5s48.5 -41.167 77.5 -54.5s59.833 -20 92.5 -20s63.334 6.66699 92.001 20s54 31.5 76 54.5s40.333 49.5 55 79.5s24.667 62 30 96h122z" />
    <glyph glyph-name="ebreve" unicode="&#x115;" horiz-adv-x="1095" 
d="M280 485c2 -58.667 11.1719 -109.672 27.5049 -153.005s38.666 -79.166 66.999 -107.499s61.666 -49.5 99.999 -63.5s80.166 -21 125.499 -21c64.667 0 128 7.33301 190 22s123.667 40.667 185 78l20 -165c-35.333 -18 -70 -33.333 -104 -46s-68 -23 -102 -31
s-68.5 -13.833 -103.5 -17.5s-71.833 -5.5 -110.5 -5.5c-64 0 -125 11.167 -183 33.5s-109 55.333 -153 99s-79 97.834 -105 162.501s-39 139.667 -39 225c0 82.667 11.167 157.5 33.5 224.5s54.166 124.333 95.499 172s91.666 84.334 150.999 110.001s126 38.5 200 38.5
c54.667 0 103 -6.5 145 -19.5s78.333 -31 109 -54s56.334 -49.833 77.001 -80.5s37.167 -63.667 49.5 -99s21.166 -72.166 26.499 -110.499s8 -76.166 8 -113.499v-39c0 -16.667 -0.333008 -29.667 -1 -39h-709zM560.005 889.995c-73.333 0 -133.333 -21.5 -180 -64.5
s-77.334 -109.833 -92.001 -200.5h522c0 42.667 -6.16699 80.5 -18.5 113.5s-29.666 60.833 -51.999 83.5s-48.833 39.667 -79.5 51s-64 17 -100 17zM944.005 1550c0 -48.667 -8.6709 -96.834 -26.0039 -144.501s-42.166 -90.5 -74.499 -128.5s-71.666 -68.667 -117.999 -92
s-98.5 -35 -156.5 -35c-58.667 0 -111.167 11.667 -157.5 35s-85.666 54 -117.999 92s-57 80.833 -74 128.5s-25.5 95.834 -25.5 144.501h120c4 -34 13.5 -66 28.5 -96s33.833 -56.5 56.5 -79.5s48.5 -41.167 77.5 -54.5s59.833 -20 92.5 -20s63.334 6.66699 92.001 20
s54 31.5 76 54.5s40.333 49.5 55 79.5s24.667 62 30 96h122z" />
    <glyph glyph-name="Edotaccent" unicode="&#x116;" horiz-adv-x="1160" 
d="M935 845l0.000976562 -160.001h-570v-520h264c99.333 0 182.666 0.666992 249.999 2s121 5.66602 161 12.999v-180h-880c7.33301 40 11.666 97.833 12.999 173.5s2 162.834 2 261.501v590c0 98.667 -0.666992 185.834 -2 261.501s-5.66602 133.5 -12.999 173.5h850v-165
h-645v-450h570zM465.001 1775c0 18.667 3.5 36.167 10.5 52.5s16.667 30.666 29 42.999s26.666 22 42.999 29s33.833 10.5 52.5 10.5s36.167 -3.5 52.5 -10.5s30.666 -16.667 42.999 -29s22 -26.666 29 -42.999s10.5 -33.833 10.5 -52.5s-3.5 -36.167 -10.5 -52.5
s-16.667 -30.666 -29 -42.999s-26.666 -22 -42.999 -29s-33.833 -10.5 -52.5 -10.5s-36.167 3.5 -52.5 10.5s-30.666 16.667 -42.999 29s-22 26.666 -29 42.999s-10.5 33.833 -10.5 52.5z" />
    <glyph glyph-name="edotaccent" unicode="&#x117;" horiz-adv-x="1095" 
d="M280 485c2 -58.667 11.1719 -109.672 27.5049 -153.005s38.666 -79.166 66.999 -107.499s61.666 -49.5 99.999 -63.5s80.166 -21 125.499 -21c64.667 0 128 7.33301 190 22s123.667 40.667 185 78l20 -165c-35.333 -18 -70 -33.333 -104 -46s-68 -23 -102 -31
s-68.5 -13.833 -103.5 -17.5s-71.833 -5.5 -110.5 -5.5c-64 0 -125 11.167 -183 33.5s-109 55.333 -153 99s-79 97.834 -105 162.501s-39 139.667 -39 225c0 82.667 11.167 157.5 33.5 224.5s54.166 124.333 95.499 172s91.666 84.334 150.999 110.001s126 38.5 200 38.5
c54.667 0 103 -6.5 145 -19.5s78.333 -31 109 -54s56.334 -49.833 77.001 -80.5s37.167 -63.667 49.5 -99s21.166 -72.166 26.499 -110.499s8 -76.166 8 -113.499v-39c0 -16.667 -0.333008 -29.667 -1 -39h-709zM560.005 889.995c-73.333 0 -133.333 -21.5 -180 -64.5
s-77.334 -109.833 -92.001 -200.5h522c0 42.667 -6.16699 80.5 -18.5 113.5s-29.666 60.833 -51.999 83.5s-48.833 39.667 -79.5 51s-64 17 -100 17zM434.005 1345c0 18.667 3.5 36.167 10.5 52.5s16.667 30.666 29 42.999s26.666 22 42.999 29s33.833 10.5 52.5 10.5
s36.167 -3.5 52.5 -10.5s30.666 -16.667 42.999 -29s22 -26.666 29 -42.999s10.5 -33.833 10.5 -52.5s-3.5 -36.167 -10.5 -52.5s-16.667 -30.666 -29 -42.999s-26.666 -22 -42.999 -29s-33.833 -10.5 -52.5 -10.5s-36.167 3.5 -52.5 10.5s-30.666 16.667 -42.999 29
s-22 26.666 -29 42.999s-10.5 33.833 -10.5 52.5z" />
    <glyph glyph-name="Ecaron" unicode="&#x11a;" horiz-adv-x="1160" 
d="M935 845l0.000976562 -160.001h-570v-520h264c99.333 0 182.666 0.666992 249.999 2s121 5.66602 161 12.999v-180h-880c7.33301 40 11.666 97.833 12.999 173.5s2 162.834 2 261.501v590c0 98.667 -0.666992 185.834 -2 261.501s-5.66602 133.5 -12.999 173.5h850v-165
h-645v-450h570zM325.001 2030l275 -280l275 280h150l-340 -430h-170l-340 430h150z" />
    <glyph glyph-name="ecaron" unicode="&#x11b;" horiz-adv-x="1095" 
d="M280 485c2 -58.667 11.1719 -109.672 27.5049 -153.005s38.666 -79.166 66.999 -107.499s61.666 -49.5 99.999 -63.5s80.166 -21 125.499 -21c64.667 0 128 7.33301 190 22s123.667 40.667 185 78l20 -165c-35.333 -18 -70 -33.333 -104 -46s-68 -23 -102 -31
s-68.5 -13.833 -103.5 -17.5s-71.833 -5.5 -110.5 -5.5c-64 0 -125 11.167 -183 33.5s-109 55.333 -153 99s-79 97.834 -105 162.501s-39 139.667 -39 225c0 82.667 11.167 157.5 33.5 224.5s54.166 124.333 95.499 172s91.666 84.334 150.999 110.001s126 38.5 200 38.5
c54.667 0 103 -6.5 145 -19.5s78.333 -31 109 -54s56.334 -49.833 77.001 -80.5s37.167 -63.667 49.5 -99s21.166 -72.166 26.499 -110.499s8 -76.166 8 -113.499v-39c0 -16.667 -0.333008 -29.667 -1 -39h-709zM560.005 889.995c-73.333 0 -133.333 -21.5 -180 -64.5
s-77.334 -109.833 -92.001 -200.5h522c0 42.667 -6.16699 80.5 -18.5 113.5s-29.666 60.833 -51.999 83.5s-48.833 39.667 -79.5 51s-64 17 -100 17zM294.005 1600l275 -280l275 280h150l-340 -430h-170l-340 430h150z" />
    <glyph glyph-name="Gcircumflex" unicode="&#x11c;" horiz-adv-x="1420" 
d="M1275 155c-51.333 -36 -99.6709 -65.6729 -145.004 -89.0059s-89.333 -41.666 -132 -54.999s-84.667 -22.666 -126 -27.999s-83.666 -8 -126.999 -8c-94.667 0 -181.667 16.333 -261 49s-147.833 80.667 -205.5 144s-102.667 141.166 -135 233.499
s-48.5 198.5 -48.5 318.5s18 227.333 54 322s85.167 174.834 147.5 240.501s135.333 115.834 219 150.501s173.5 52 269.5 52c40.667 0 80 -1.83301 118 -5.5s76.167 -10.5 114.5 -20.5s77.333 -24.167 117 -42.5s81.5 -42.166 125.5 -71.499l-65 -180
c-37.333 30 -73.5 54.833 -108.5 74.5s-69.167 35 -102.5 46s-66.5 18.667 -99.5 23s-66.167 6.5 -99.5 6.5c-76 0 -144.667 -13.333 -206 -40s-113.333 -64.667 -156 -114s-75.5 -109.166 -98.5 -179.499s-34.5 -149.166 -34.5 -236.499c0 -92 10.833 -174.667 32.5 -248
s52.834 -135.833 93.501 -187.5s89.834 -91.167 147.501 -118.5s122.167 -41 193.5 -41c30 0 58.167 1.5 84.5 4.5s52.5 8.16699 78.5 15.5s52.333 17 79 29s55.334 27.333 86.001 46v335h-350v165h540v-590zM319.995 1599.99l340 430h170l340 -430h-150l-275 280l-275 -280
h-150z" />
    <glyph glyph-name="gcircumflex.SngBowl" unicode="&#x11d;" horiz-adv-x="1125" 
d="M805 830c-16 6 -32.999 11.498 -50.999 16.498s-36.333 9.16699 -55 12.5s-36.834 6 -54.501 8s-34.167 3 -49.5 3c-54.667 0 -101.334 -11.167 -140.001 -33.5s-70.167 -51.666 -94.5 -87.999s-42.166 -77.5 -53.499 -123.5s-17 -92.667 -17 -140
c0 -62 4.83301 -113.5 14.5 -154.5s23 -73.667 40 -98s37 -41.666 60 -51.999s48.167 -15.5 75.5 -15.5c25.333 0 52.333 5.16699 81 15.5s57.5 25.166 86.5 44.499s57 43.333 84 72s51.5 61.334 73.5 98.001v435zM990.001 24.998
c0 -88 -12.8301 -163.331 -38.4971 -225.998s-59.334 -113.834 -101.001 -153.501s-89.167 -68.834 -142.5 -87.501s-107.666 -28 -162.999 -28c-64 0 -127.5 11 -190.5 33s-121.167 51 -174.5 87l65 155c47.333 -34 95 -61.667 143 -83s97 -32 147 -32
c26 0 54.667 4.66699 86 14s60.666 25.5 87.999 48.5s50.166 53.833 68.499 92.5s27.5 87 27.5 145v205c-26 -32.667 -53.5 -61.5 -82.5 -86.5s-58.333 -45.833 -88 -62.5s-59.334 -29.334 -89.001 -38.001s-58.167 -13 -85.5 -13c-46 0 -90.333 8 -133 24
s-80.5 41.5 -113.5 76.5s-59.333 80.5 -79 136.5s-29.5 123.667 -29.5 203c0 76.667 10 151.334 30 224.001s51 137.167 93 193.5s95.833 101.666 161.5 135.999s144.167 51.5 235.5 51.5c30 0 60.833 -2.16699 92.5 -6.5s63.167 -10.166 94.5 -17.499s62 -15.5 92 -24.5
l86 -26.5v-940zM170.004 1170l340 430h170l340 -430h-150l-275 280l-275 -280h-150z" />
    <glyph glyph-name="Gbreve" unicode="&#x11e;" horiz-adv-x="1420" 
d="M1275 155c-51.333 -36 -99.6709 -65.6729 -145.004 -89.0059s-89.333 -41.666 -132 -54.999s-84.667 -22.666 -126 -27.999s-83.666 -8 -126.999 -8c-94.667 0 -181.667 16.333 -261 49s-147.833 80.667 -205.5 144s-102.667 141.166 -135 233.499
s-48.5 198.5 -48.5 318.5s18 227.333 54 322s85.167 174.834 147.5 240.501s135.333 115.834 219 150.501s173.5 52 269.5 52c40.667 0 80 -1.83301 118 -5.5s76.167 -10.5 114.5 -20.5s77.333 -24.167 117 -42.5s81.5 -42.166 125.5 -71.499l-65 -180
c-37.333 30 -73.5 54.833 -108.5 74.5s-69.167 35 -102.5 46s-66.5 18.667 -99.5 23s-66.167 6.5 -99.5 6.5c-76 0 -144.667 -13.333 -206 -40s-113.333 -64.667 -156 -114s-75.5 -109.166 -98.5 -179.499s-34.5 -149.166 -34.5 -236.499c0 -92 10.833 -174.667 32.5 -248
s52.834 -135.833 93.501 -187.5s89.834 -91.167 147.501 -118.5s122.167 -41 193.5 -41c30 0 58.167 1.5 84.5 4.5s52.5 8.16699 78.5 15.5s52.333 17 79 29s55.334 27.333 86.001 46v335h-350v165h540v-590zM1120 1979.99c0 -48.667 -8.6709 -96.834 -26.0039 -144.501
s-42.166 -90.5 -74.499 -128.5s-71.666 -68.667 -117.999 -92s-98.5 -35 -156.5 -35c-58.667 0 -111.167 11.667 -157.5 35s-85.666 54 -117.999 92s-57 80.833 -74 128.5s-25.5 95.834 -25.5 144.501h120c4 -34 13.5 -66 28.5 -96s33.833 -56.5 56.5 -79.5
s48.5 -41.167 77.5 -54.5s59.833 -20 92.5 -20s63.334 6.66699 92.001 20s54 31.5 76 54.5s40.333 49.5 55 79.5s24.667 62 30 96h122z" />
    <glyph glyph-name="gbreve.SngBowl" unicode="&#x11f;" horiz-adv-x="1125" 
d="M805 830c-16 6 -32.999 11.498 -50.999 16.498s-36.333 9.16699 -55 12.5s-36.834 6 -54.501 8s-34.167 3 -49.5 3c-54.667 0 -101.334 -11.167 -140.001 -33.5s-70.167 -51.666 -94.5 -87.999s-42.166 -77.5 -53.499 -123.5s-17 -92.667 -17 -140
c0 -62 4.83301 -113.5 14.5 -154.5s23 -73.667 40 -98s37 -41.666 60 -51.999s48.167 -15.5 75.5 -15.5c25.333 0 52.333 5.16699 81 15.5s57.5 25.166 86.5 44.499s57 43.333 84 72s51.5 61.334 73.5 98.001v435zM990.001 24.998
c0 -88 -12.8301 -163.331 -38.4971 -225.998s-59.334 -113.834 -101.001 -153.501s-89.167 -68.834 -142.5 -87.501s-107.666 -28 -162.999 -28c-64 0 -127.5 11 -190.5 33s-121.167 51 -174.5 87l65 155c47.333 -34 95 -61.667 143 -83s97 -32 147 -32
c26 0 54.667 4.66699 86 14s60.666 25.5 87.999 48.5s50.166 53.833 68.499 92.5s27.5 87 27.5 145v205c-26 -32.667 -53.5 -61.5 -82.5 -86.5s-58.333 -45.833 -88 -62.5s-59.334 -29.334 -89.001 -38.001s-58.167 -13 -85.5 -13c-46 0 -90.333 8 -133 24
s-80.5 41.5 -113.5 76.5s-59.333 80.5 -79 136.5s-29.5 123.667 -29.5 203c0 76.667 10 151.334 30 224.001s51 137.167 93 193.5s95.833 101.666 161.5 135.999s144.167 51.5 235.5 51.5c30 0 60.833 -2.16699 92.5 -6.5s63.167 -10.166 94.5 -17.499s62 -15.5 92 -24.5
l86 -26.5v-940zM970.004 1550c0 -48.667 -8.6709 -96.834 -26.0039 -144.501s-42.166 -90.5 -74.499 -128.5s-71.666 -68.667 -117.999 -92s-98.5 -35 -156.5 -35c-58.667 0 -111.167 11.667 -157.5 35s-85.666 54 -117.999 92s-57 80.833 -74 128.5
s-25.5 95.834 -25.5 144.501h120c4 -34 13.5 -66 28.5 -96s33.833 -56.5 56.5 -79.5s48.5 -41.167 77.5 -54.5s59.833 -20 92.5 -20s63.334 6.66699 92.001 20s54 31.5 76 54.5s40.333 49.5 55 79.5s24.667 62 30 96h122z" />
    <glyph glyph-name="Gdotaccent" unicode="&#x120;" horiz-adv-x="1420" 
d="M1275 155c-51.333 -36 -99.6709 -65.6729 -145.004 -89.0059s-89.333 -41.666 -132 -54.999s-84.667 -22.666 -126 -27.999s-83.666 -8 -126.999 -8c-94.667 0 -181.667 16.333 -261 49s-147.833 80.667 -205.5 144s-102.667 141.166 -135 233.499
s-48.5 198.5 -48.5 318.5s18 227.333 54 322s85.167 174.834 147.5 240.501s135.333 115.834 219 150.501s173.5 52 269.5 52c40.667 0 80 -1.83301 118 -5.5s76.167 -10.5 114.5 -20.5s77.333 -24.167 117 -42.5s81.5 -42.166 125.5 -71.499l-65 -180
c-37.333 30 -73.5 54.833 -108.5 74.5s-69.167 35 -102.5 46s-66.5 18.667 -99.5 23s-66.167 6.5 -99.5 6.5c-76 0 -144.667 -13.333 -206 -40s-113.333 -64.667 -156 -114s-75.5 -109.166 -98.5 -179.499s-34.5 -149.166 -34.5 -236.499c0 -92 10.833 -174.667 32.5 -248
s52.834 -135.833 93.501 -187.5s89.834 -91.167 147.501 -118.5s122.167 -41 193.5 -41c30 0 58.167 1.5 84.5 4.5s52.5 8.16699 78.5 15.5s52.333 17 79 29s55.334 27.333 86.001 46v335h-350v165h540v-590zM609.995 1774.99c0 18.667 3.5 36.167 10.5 52.5
s16.667 30.666 29 42.999s26.666 22 42.999 29s33.833 10.5 52.5 10.5s36.167 -3.5 52.5 -10.5s30.666 -16.667 42.999 -29s22 -26.666 29 -42.999s10.5 -33.833 10.5 -52.5s-3.5 -36.167 -10.5 -52.5s-16.667 -30.666 -29 -42.999s-26.666 -22 -42.999 -29
s-33.833 -10.5 -52.5 -10.5s-36.167 3.5 -52.5 10.5s-30.666 16.667 -42.999 29s-22 26.666 -29 42.999s-10.5 33.833 -10.5 52.5z" />
    <glyph glyph-name="gdotaccent.SngBowl" unicode="&#x121;" horiz-adv-x="1125" 
d="M805 830c-16 6 -32.999 11.498 -50.999 16.498s-36.333 9.16699 -55 12.5s-36.834 6 -54.501 8s-34.167 3 -49.5 3c-54.667 0 -101.334 -11.167 -140.001 -33.5s-70.167 -51.666 -94.5 -87.999s-42.166 -77.5 -53.499 -123.5s-17 -92.667 -17 -140
c0 -62 4.83301 -113.5 14.5 -154.5s23 -73.667 40 -98s37 -41.666 60 -51.999s48.167 -15.5 75.5 -15.5c25.333 0 52.333 5.16699 81 15.5s57.5 25.166 86.5 44.499s57 43.333 84 72s51.5 61.334 73.5 98.001v435zM990.001 24.998
c0 -88 -12.8301 -163.331 -38.4971 -225.998s-59.334 -113.834 -101.001 -153.501s-89.167 -68.834 -142.5 -87.501s-107.666 -28 -162.999 -28c-64 0 -127.5 11 -190.5 33s-121.167 51 -174.5 87l65 155c47.333 -34 95 -61.667 143 -83s97 -32 147 -32
c26 0 54.667 4.66699 86 14s60.666 25.5 87.999 48.5s50.166 53.833 68.499 92.5s27.5 87 27.5 145v205c-26 -32.667 -53.5 -61.5 -82.5 -86.5s-58.333 -45.833 -88 -62.5s-59.334 -29.334 -89.001 -38.001s-58.167 -13 -85.5 -13c-46 0 -90.333 8 -133 24
s-80.5 41.5 -113.5 76.5s-59.333 80.5 -79 136.5s-29.5 123.667 -29.5 203c0 76.667 10 151.334 30 224.001s51 137.167 93 193.5s95.833 101.666 161.5 135.999s144.167 51.5 235.5 51.5c30 0 60.833 -2.16699 92.5 -6.5s63.167 -10.166 94.5 -17.499s62 -15.5 92 -24.5
l86 -26.5v-940zM460.004 1345c0 18.667 3.5 36.167 10.5 52.5s16.667 30.666 29 42.999s26.666 22 42.999 29s33.833 10.5 52.5 10.5s36.167 -3.5 52.5 -10.5s30.666 -16.667 42.999 -29s22 -26.666 29 -42.999s10.5 -33.833 10.5 -52.5s-3.5 -36.167 -10.5 -52.5
s-16.667 -30.666 -29 -42.999s-26.666 -22 -42.999 -29s-33.833 -10.5 -52.5 -10.5s-36.167 3.5 -52.5 10.5s-30.666 16.667 -42.999 29s-22 26.666 -29 42.999s-10.5 33.833 -10.5 52.5z" />
    <glyph glyph-name="Hcircumflex" unicode="&#x124;" horiz-adv-x="1475" 
d="M1085 0v675h-720v-675h-205c7.33301 40 11.666 97.833 12.999 173.5s2 162.834 2 261.501v590c0 98.667 -0.666992 185.834 -2 261.501s-5.66602 133.5 -12.999 173.5h205v-625h720v625h205c-7.33301 -40 -11.666 -97.833 -12.999 -173.5s-2 -162.834 -2 -261.501v-590
c0 -98.667 0.666992 -185.834 2 -261.501s5.66602 -133.5 12.999 -173.5h-205zM300 1600l340 430h170l340 -430h-150l-275 280l-275 -280h-150z" />
    <glyph glyph-name="hcircumflex" unicode="&#x125;" horiz-adv-x="1175" 
d="M855 0l-0.00292969 549.998c0 62.667 -4.16699 114.334 -12.5 155.001s-20.833 72.834 -37.5 96.501s-37.5 40.167 -62.5 49.5s-54.167 14 -87.5 14c-36 0 -71.167 -8.5 -105.5 -25.5s-65.833 -39 -94.5 -66s-54 -57.5 -76 -91.5s-38.333 -68 -49 -102v-580h-185v1130
c0 108 -0.666992 202.5 -2 283.5s-5.66602 143.167 -12.999 186.5h200v-770c49.333 70 107.333 122.5 174 157.5s135.334 52.5 206.001 52.5c106.667 0 188.334 -34.833 245.001 -104.5s85 -173.167 85 -310.5v-625h-185zM159.997 1705l340 430h170l340 -430h-150l-275 280
l-275 -280h-150z" />
    <glyph glyph-name="Itilde" unicode="&#x128;" horiz-adv-x="975" 
d="M815 1460v-145h-245v-1170h245v-145h-675v145h240v1170h-240v145h675zM127 1635c0 30.667 4.50293 60.8311 13.5029 90.498s21.667 56.334 38 80.001s36.333 42.834 60 57.501s50.5 22 80.5 22c14 0 27.667 -1.33301 41 -4s26.833 -6.5 40.5 -11.5s28 -10.667 43 -17
s31.167 -12.833 48.5 -19.5l48.5 -20c14.333 -6 27.666 -11 39.999 -15s23.833 -7.16699 34.5 -9.5s21.334 -3.5 32.001 -3.5c23.333 0 42.5 8.33301 57.5 25s24.167 36.667 27.5 60h105c0 -32 -4.5 -63 -13.5 -93s-22 -56.667 -39 -80s-37.833 -42 -62.5 -56
s-52.334 -21 -83.001 -21c-26.667 0 -53.5 4.5 -80.5 13.5s-55.833 20.5 -86.5 34.5c-38.667 18 -69.5 31.167 -92.5 39.5s-43.833 12.5 -62.5 12.5c-24.667 0 -44.334 -8 -59.001 -24s-23.334 -36.333 -26.001 -61h-105z" />
    <glyph glyph-name="itilde" unicode="&#x129;" horiz-adv-x="565" 
d="M375 475c0 -32 0.500977 -69.8281 1.50098 -113.495s2.33301 -87.834 4 -132.501s3.66699 -87.334 6 -128.001s5.16602 -74.334 8.49902 -101.001h-205v530c0 48.667 -0.166992 96.667 -0.5 144s-1 92.166 -2 134.499s-2.5 81.666 -4.5 117.999s-4.66699 67.5 -8 93.5
h200v-545zM-64.999 1205c0 30.667 4.50293 60.8311 13.5029 90.498s21.667 56.334 38 80.001s36.333 42.834 60 57.501s50.5 22 80.5 22c14 0 27.667 -1.33301 41 -4s26.833 -6.5 40.5 -11.5s28 -10.667 43 -17s31.167 -12.833 48.5 -19.5l48.5 -20
c14.333 -6 27.666 -11 39.999 -15s23.833 -7.16699 34.5 -9.5s21.334 -3.5 32.001 -3.5c23.333 0 42.5 8.33301 57.5 25s24.167 36.667 27.5 60h105c0 -32 -4.5 -63 -13.5 -93s-22 -56.667 -39 -80s-37.833 -42 -62.5 -56s-52.334 -21 -83.001 -21
c-26.667 0 -53.5 4.5 -80.5 13.5s-55.833 20.5 -86.5 34.5c-38.667 18 -69.5 31.167 -92.5 39.5s-43.833 12.5 -62.5 12.5c-24.667 0 -44.334 -8 -59.001 -24s-23.334 -36.333 -26.001 -61h-105z" />
    <glyph glyph-name="Imacron" unicode="&#x12a;" horiz-adv-x="975" 
d="M815 1460v-145h-245v-1170h245v-145h-675v145h240v1170h-240v145h675zM212 1820h530v-150h-530v150z" />
    <glyph glyph-name="imacron" unicode="&#x12b;" horiz-adv-x="565" 
d="M375 475c0 -32 0.500977 -69.8281 1.50098 -113.495s2.33301 -87.834 4 -132.501s3.66699 -87.334 6 -128.001s5.16602 -74.334 8.49902 -101.001h-205v530c0 48.667 -0.166992 96.667 -0.5 144s-1 92.166 -2 134.499s-2.5 81.666 -4.5 117.999s-4.66699 67.5 -8 93.5
h200v-545zM20.001 1390h530v-150h-530v150z" />
    <glyph glyph-name="Ibreve" unicode="&#x12c;" horiz-adv-x="975" 
d="M815 1460v-145h-245v-1170h245v-145h-675v145h240v1170h-240v145h675zM852 1980c0 -48.667 -8.6709 -96.834 -26.0039 -144.501s-42.166 -90.5 -74.499 -128.5s-71.666 -68.667 -117.999 -92s-98.5 -35 -156.5 -35c-58.667 0 -111.167 11.667 -157.5 35
s-85.666 54 -117.999 92s-57 80.833 -74 128.5s-25.5 95.834 -25.5 144.501h120c4 -34 13.5 -66 28.5 -96s33.833 -56.5 56.5 -79.5s48.5 -41.167 77.5 -54.5s59.833 -20 92.5 -20s63.334 6.66699 92.001 20s54 31.5 76 54.5s40.333 49.5 55 79.5s24.667 62 30 96h122z" />
    <glyph glyph-name="ibreve" unicode="&#x12d;" horiz-adv-x="565" 
d="M375 475c0 -32 0.500977 -69.8281 1.50098 -113.495s2.33301 -87.834 4 -132.501s3.66699 -87.334 6 -128.001s5.16602 -74.334 8.49902 -101.001h-205v530c0 48.667 -0.166992 96.667 -0.5 144s-1 92.166 -2 134.499s-2.5 81.666 -4.5 117.999s-4.66699 67.5 -8 93.5
h200v-545zM660.001 1550c0 -48.667 -8.6709 -96.834 -26.0039 -144.501s-42.166 -90.5 -74.499 -128.5s-71.666 -68.667 -117.999 -92s-98.5 -35 -156.5 -35c-58.667 0 -111.167 11.667 -157.5 35s-85.666 54 -117.999 92s-57 80.833 -74 128.5s-25.5 95.834 -25.5 144.501
h120c4 -34 13.5 -66 28.5 -96s33.833 -56.5 56.5 -79.5s48.5 -41.167 77.5 -54.5s59.833 -20 92.5 -20s63.334 6.66699 92.001 20s54 31.5 76 54.5s40.333 49.5 55 79.5s24.667 62 30 96h122z" />
    <glyph glyph-name="Idotaccent" unicode="&#x130;" horiz-adv-x="975" 
d="M815 1460v-145h-245v-1170h245v-145h-675v145h240v1170h-240v145h675zM342 1775c0 18.667 3.5 36.167 10.5 52.5s16.667 30.666 29 42.999s26.666 22 42.999 29s33.833 10.5 52.5 10.5s36.167 -3.5 52.5 -10.5s30.666 -16.667 42.999 -29s22 -26.666 29 -42.999
s10.5 -33.833 10.5 -52.5s-3.5 -36.167 -10.5 -52.5s-16.667 -30.666 -29 -42.999s-26.666 -22 -42.999 -29s-33.833 -10.5 -52.5 -10.5s-36.167 3.5 -52.5 10.5s-30.666 16.667 -42.999 29s-22 26.666 -29 42.999s-10.5 33.833 -10.5 52.5z" />
    <glyph glyph-name="dotlessi" unicode="&#x131;" horiz-adv-x="565" 
d="M375 475c0 -32 0.500977 -69.8281 1.50098 -113.495s2.33301 -87.834 4 -132.501s3.66699 -87.334 6 -128.001s5.16602 -74.334 8.49902 -101.001h-205v530c0 48.667 -0.166992 96.667 -0.5 144s-1 92.166 -2 134.499s-2.5 81.666 -4.5 117.999s-4.66699 67.5 -8 93.5
h200v-545z" />
    <glyph glyph-name="IJ" unicode="&#x132;" horiz-adv-x="1940" 
d="M815 1460v-145h-245v-1170h245v-145h-675v145h240v1170h-240v145h675zM1755 1460l-0.00390625 -924.998c0 -104 -10.667 -191.667 -32 -263s-51.166 -129 -89.499 -173s-84.166 -75.667 -137.499 -95s-112 -29 -176 -29c-24 0 -50.167 2.16699 -78.5 6.5
s-56.833 11.166 -85.5 20.499s-55.667 21.333 -81 36s-47 32 -65 52l45 185c16.667 -19.333 35.334 -36.5 56.001 -51.5s42.167 -27.5 64.5 -37.5s45.333 -17.667 69 -23s47.167 -8 70.5 -8c36.667 0 70.334 6.5 101.001 19.5s57 33 79 60s39.167 61.167 51.5 102.5
s18.5 90.666 18.5 147.999v495c0 48.667 -0.166992 96.167 -0.5 142.5s-1 90 -2 131s-2.5 79 -4.5 114s-4.66699 65.833 -8 92.5h205z" />
    <glyph glyph-name="ij" unicode="&#x133;" horiz-adv-x="1160" 
d="M155 1345c0 18.667 3 36.167 9 52.5s14.5 30.666 25.5 42.999s24.167 22 39.5 29s32.333 10.5 51 10.5s36 -3.5 52 -10.5s29.667 -16.667 41 -29s20.333 -26.666 27 -42.999s10 -33.833 10 -52.5s-3.33301 -36.167 -10 -52.5s-15.667 -30.666 -27 -42.999
s-25 -22 -41 -29s-33.333 -10.5 -52 -10.5s-35.667 3.5 -51 10.5s-28.5 16.667 -39.5 29s-19.5 26.666 -25.5 42.999s-9 33.833 -9 52.5zM375 475c0 -32 0.500977 -69.8281 1.50098 -113.495s2.33301 -87.834 4 -132.501s3.66699 -87.334 6 -128.001
s5.16602 -74.334 8.49902 -101.001h-205v530c0 48.667 -0.166992 96.667 -0.5 144s-1 92.166 -2 134.499s-2.5 81.666 -4.5 117.999s-4.66699 67.5 -8 93.5h200v-545zM750.001 1345c0 18.667 3 36.167 9 52.5s14.5 30.666 25.5 42.999s24.167 22 39.5 29
s32.333 10.5 51 10.5s36 -3.5 52 -10.5s29.667 -16.667 41 -29s20.333 -26.666 27 -42.999s10 -33.833 10 -52.5s-3.33301 -36.167 -10 -52.5s-15.667 -30.666 -27 -42.999s-25 -22 -41 -29s-33.333 -10.5 -52 -10.5s-35.667 3.5 -51 10.5s-28.5 16.667 -39.5 29
s-19.5 26.666 -25.5 42.999s-9 33.833 -9 52.5zM970.001 25.0049c0 -93.333 -8.83203 -171.665 -26.499 -234.998s-42.834 -114.166 -75.501 -152.499s-72.167 -65.833 -118.5 -82.5s-97.833 -25 -154.5 -25c-14 0 -30.5 1.5 -49.5 4.5s-38.667 7.16699 -59 12.5
s-40.333 12.166 -60 20.499s-36.834 17.5 -51.501 27.5l35 165c10.667 -8 24.334 -15.667 41.001 -23s34 -13.833 52 -19.5s36 -10 54 -13s34 -4.5 48 -4.5c26.667 0 51 5.16699 73 15.5s41 26.5 57 48.5s28.333 50.333 37 85s13 76.667 13 126v555
c0 48.667 -0.166992 96.667 -0.5 144s-1 92.166 -2 134.499s-2.5 81.666 -4.5 117.999s-4.66699 67.5 -8 93.5h200v-995z" />
    <glyph glyph-name="Lacute" unicode="&#x139;" horiz-adv-x="1080" 
d="M589 165c49.333 0 96.001 0.165039 140.001 0.498047s84.667 1 122 2s70.666 2.5 99.999 4.5s54 4.66699 74 8v-180h-865c7.33301 40 11.666 97.833 12.999 173.5s2 162.834 2 261.501v590c0 98.667 -0.666992 185.834 -2 261.501s-5.66602 133.5 -12.999 173.5h205
v-1295h224zM992.001 2030l-420 -430h-160l350 430h230z" />
    <glyph glyph-name="lacute" unicode="&#x13a;" horiz-adv-x="565" 
d="M375 475c0 -32 0.500977 -69.666 1.50098 -112.999s2.33301 -87.333 4 -132s3.66699 -87.334 6 -128.001s5.16602 -74.667 8.49902 -102h-205v1130c0 97.333 -1.66699 185.5 -5 264.5s-8.33301 147.5 -15 205.5h205v-1125zM682.001 2135l-420 -430h-160l350 430h230z" />
    <glyph glyph-name="Lslash" unicode="&#x141;" horiz-adv-x="1130" 
d="M639 165c49.333 0 96.001 0.165039 140.001 0.498047s84.667 1 122 2s70.666 2.5 99.999 4.5s54 4.66699 74 8v-180h-865c7.33301 40 11.666 97.833 12.999 173.5s2 162.834 2 261.501v127l-115 -72l-60 145l175 109v281c0 98.667 -0.666992 185.834 -2 261.501
s-5.66602 133.5 -12.999 173.5h205v-597l315 197l60 -145l-375 -235v-515h224z" />
    <glyph glyph-name="lslash" unicode="&#x142;" horiz-adv-x="860" 
d="M525 764l0.000976562 -288.999c0 -32 0.5 -69.667 1.5 -113s2.33301 -87.333 4 -132s3.66699 -87.334 6 -128.001s5.16602 -74.667 8.49902 -102h-205v636l-175 -121l-65 140l240 166v309c0 97.333 -1.66699 185.5 -5 264.5s-8.33301 147.5 -15 205.5h205v-651l175 121
l65 -140z" />
    <glyph glyph-name="Nacute" unicode="&#x143;" horiz-adv-x="1500" 
d="M340 1152v-1152h-180c7.33301 40 11.666 97.833 12.999 173.5s2 162.834 2 261.501v590c0 98.667 -0.666992 185.834 -2 261.501s-5.66602 133.5 -12.999 173.5h180l795 -1157v1157h180c-3.33301 -20 -6 -44.667 -8 -74s-3.5 -62.5 -4.5 -99.5s-1.66699 -77.5 -2 -121.5
s-0.5 -90.667 -0.5 -140v-1025h-165zM1137 2030l-420 -430h-160l350 430h230z" />
    <glyph glyph-name="nacute" unicode="&#x144;" horiz-adv-x="1185" 
d="M865 0l-0.00292969 549.998c0 62.667 -4.16699 114.334 -12.5 155.001s-20.666 72.834 -36.999 96.501s-37 40.167 -62 49.5s-54.5 14 -88.5 14c-36 0 -71.167 -8.5 -105.5 -25.5s-65.833 -39 -94.5 -66s-54 -57.5 -76 -91.5s-38.333 -68 -49 -102v-580h-185v615
c0 98.667 -5.5 182.167 -16.5 250.5s-22.167 119.833 -33.5 154.5h180c4 -10.667 8 -24.5 12 -41.5s7.66699 -34.833 11 -53.5s6.33301 -37 9 -55l8 -45c63.333 76 127.333 130.833 192 164.5s132.334 50.5 203.001 50.5c106.667 0 188.334 -34.833 245.001 -104.5
s85 -173.167 85 -310.5v-625h-185zM999.997 1600l-420 -430h-160l350 430h230z" />
    <glyph glyph-name="Ncaron" unicode="&#x147;" horiz-adv-x="1500" 
d="M340 1152v-1152h-180c7.33301 40 11.666 97.833 12.999 173.5s2 162.834 2 261.501v590c0 98.667 -0.666992 185.834 -2 261.501s-5.66602 133.5 -12.999 173.5h180l795 -1157v1157h180c-3.33301 -20 -6 -44.667 -8 -74s-3.5 -62.5 -4.5 -99.5s-1.66699 -77.5 -2 -121.5
s-0.5 -90.667 -0.5 -140v-1025h-165zM462 2030l275 -280l275 280h150l-340 -430h-170l-340 430h150z" />
    <glyph glyph-name="ncaron" unicode="&#x148;" horiz-adv-x="1185" 
d="M865 0l-0.00292969 549.998c0 62.667 -4.16699 114.334 -12.5 155.001s-20.666 72.834 -36.999 96.501s-37 40.167 -62 49.5s-54.5 14 -88.5 14c-36 0 -71.167 -8.5 -105.5 -25.5s-65.833 -39 -94.5 -66s-54 -57.5 -76 -91.5s-38.333 -68 -49 -102v-580h-185v615
c0 98.667 -5.5 182.167 -16.5 250.5s-22.167 119.833 -33.5 154.5h180c4 -10.667 8 -24.5 12 -41.5s7.66699 -34.833 11 -53.5s6.33301 -37 9 -55l8 -45c63.333 76 127.333 130.833 192 164.5s132.334 50.5 203.001 50.5c106.667 0 188.334 -34.833 245.001 -104.5
s85 -173.167 85 -310.5v-625h-185zM324.997 1600l275 -280l275 280h150l-340 -430h-170l-340 430h150z" />
    <glyph glyph-name="Eng" unicode="&#x14a;" horiz-adv-x="1460" 
d="M320 1455c4.66699 -15.333 9.50293 -35.002 14.5029 -59.002s9.66699 -49.167 14 -75.5l12.5 -77c4 -25 7 -46.167 9 -63.5c40 54 80.833 100.333 122.5 139s83.834 70.334 126.501 95.001s85.834 42.667 129.501 54s87.5 17 131.5 17c62 0 117.5 -12.5 166.5 -37.5
s90.333 -62.333 124 -112s59.5 -111.5 77.5 -185.5s27 -160 27 -258v-747c0 -106 -10 -197.667 -30 -275s-48.5 -141.166 -85.5 -191.499s-82.167 -87.666 -135.5 -111.999s-113 -36.5 -179 -36.5c-20.667 0 -40.834 1.66699 -60.501 5s-38.167 7.5 -55.5 12.5
s-32.833 10.333 -46.5 16s-24.5 11.167 -32.5 16.5l65 155c16.667 -12.667 38.834 -21.667 66.501 -27s57.167 -8 88.5 -8c26.667 0 52.834 7.16699 78.501 21.5s48.667 36.666 69 66.999s36.666 69.5 48.999 117.5s18.5 106 18.5 174v705c0 89.333 -4 165.666 -12 228.999
s-22 115 -42 155s-47.5 69.333 -82.5 88s-79.5 28 -133.5 28c-32 0 -63.333 -6.5 -94 -19.5s-60.167 -30.667 -88.5 -53s-55.333 -48.166 -81 -77.499s-48.834 -60.5 -69.501 -93.5s-38.834 -66.667 -54.501 -101s-28.167 -67.833 -37.5 -100.5v-840h-205
c7.33301 40 11.666 96.833 12.999 170.5s2 160.167 2 259.5v450c0 70 -2 134.667 -6 194s-9.33301 113 -16 161s-13.834 90.5 -21.501 127.5s-14.834 67.833 -21.501 92.5h185z" />
    <glyph glyph-name="eng" unicode="&#x14b;" horiz-adv-x="1185" 
d="M285 1020c4 -10.667 8 -24.5029 12 -41.5029s7.66699 -34.833 11 -53.5s6.33301 -37 9 -55l8 -45c64 76 128.333 130.833 193 164.5s132 50.5 202 50.5c53.333 0 100.5 -8.83301 141.5 -26.5s75.5 -45.667 103.5 -84s49.167 -88 63.5 -149s21.5 -134.5 21.5 -220.5v-450
c0 -112.667 -9.83301 -206.167 -29.5 -280.5s-47.167 -133.666 -82.5 -177.999s-77.833 -75.666 -127.5 -93.999s-104.834 -27.5 -165.501 -27.5c-30 0 -62.167 4.83301 -96.5 14.5s-65.5 23.167 -93.5 40.5l65 150c15.333 -11.333 35.833 -20.833 61.5 -28.5
s51.834 -11.5 78.501 -11.5c32 0 60.667 5.16699 86 15.5s46.833 28.5 64.5 54.5s31.167 61.667 40.5 107s14 103 14 173v440c0 80 -4.16699 144.833 -12.5 194.5s-20.833 88.334 -37.5 116.001s-37.5 46.167 -62.5 55.5s-54.167 14 -87.5 14
c-36 0 -71.167 -8.5 -105.5 -25.5s-65.833 -39 -94.5 -66s-54 -57.5 -76 -91.5s-38.333 -68 -49 -102v-580h-185v615c0 98.667 -5.66699 182.167 -17 250.5s-22.333 119.833 -33 154.5h180z" />
    <glyph glyph-name="Omacron" unicode="&#x14c;" horiz-adv-x="1460" 
d="M1340 740c0 -120 -17.833 -227.332 -53.5 -321.999s-83 -174.834 -142 -240.501s-126.167 -115.834 -201.5 -150.501s-153 -52 -233 -52c-80.667 0 -158 16.333 -232 49s-139.333 80.667 -196 144s-102 141.166 -136 233.499s-51 198.5 -51 318.5
c0 80 8.16699 154.333 24.5 223s39 131.334 68 188.001s63.5 107 103.5 151s83.5 81 130.5 111s96.667 52.833 149 68.5s105.5 23.5 159.5 23.5c79.333 0 155.833 -16.333 229.5 -49s138.667 -80.667 195 -144s101.333 -141.166 135 -233.499s50.5 -198.5 50.5 -318.5z
M1145 715.001c0 92 -10.1709 174.835 -30.5039 248.502s-49.166 136.167 -86.499 187.5s-82.166 90.666 -134.499 117.999s-110.166 41 -173.499 41s-121.333 -13.167 -174 -39.5s-98 -64 -136 -113s-67.5 -108.333 -88.5 -178s-31.5 -147.834 -31.5 -234.501
c0 -91.333 10.167 -173.666 30.5 -246.999s49.333 -135.833 87 -187.5s82.834 -91.334 135.501 -119.001s111.667 -41.5 177 -41.5c61.333 0 118 12.833 170 38.5s96.833 62.667 134.5 111s67.167 107.5 88.5 177.5s32 149.333 32 238zM341.996 1820h750v-150h-750v150z" />
    </font>
</defs>
</svg>
